SplineFontDB: 3.0
FontName: EUEX10
FullName: EUEX10
FamilyName: Euler
Weight: Medium
Copyright: Copyright (c) 1997, 2009 American Mathematical Society (<http://www.ams.org>), with Reserved Font Name EUEX10.
Version: 003.001
ItalicAngle: 0
UnderlinePosition: -100
UnderlineWidth: 50
Ascent: 800
Descent: 200
LayerCount: 2
Layer: 0 0 "Back"  1
Layer: 1 0 "Fore"  0
UniqueID: 5096681
OS2Version: 0
OS2_WeightWidthSlopeOnly: 0
OS2_UseTypoMetrics: 0
CreationTime: 1245785330
ModificationTime: 1245785330
OS2TypoAscent: 0
OS2TypoAOffset: 1
OS2TypoDescent: 0
OS2TypoDOffset: 1
OS2TypoLinegap: 0
OS2WinAscent: 0
OS2WinAOffset: 1
OS2WinDescent: 0
OS2WinDOffset: 1
HheadAscent: 0
HheadAOffset: 1
HheadDescent: 0
HheadDOffset: 1
OS2Vendor: 'PfEd'
DEI: 91125
Encoding: UnicodeFull
UnicodeInterp: none
NameList: Adobe Glyph List
DisplaySize: -24
AntiAlias: 1
FitToEm: 1
BeginPrivate: 10
BlueValues 17 [ -22 0 693 706 ]
OtherBlues 13 [ -206 -194 ]
BlueScale 7 0.04379
BlueShift 1 7
BlueFuzz 1 1
StdHW 6 [ 40 ]
StdVW 6 [ 40 ]
ForceBold 5 false
StemSnapH 9 [ 40 54 ]
StemSnapV 9 [ 40 75 ]
EndPrivate
BeginChars: 1114183 487

StartChar: uni007B.alt01
Encoding: 1114112 -1 0
Width: 583
Flags: MW
HStem: -1159 35 -577 35 5 35
VStem: 258 69
LayerCount: 2
Fore
SplineSet
257 -397 m 2
 257 -138 l 2
 257 -104 257 -102 260 -89 c 0
 282 11 456 40 458 40 c 0
 472 40 474 37 474 24 c 0
 474 19 474 12 467 10 c 0
 427 -4 328 -38 327 -110 c 0
 326 -164 327 -218 327 -272 c 2
 327 -377 l 2
 327 -416 327 -418 325 -429 c 0
 313 -502 228 -540 165 -560 c 1
 232 -580 327 -622 327 -712 c 2
 327 -992 l 2
 327 -1040 337 -1085 465 -1128 c 0
 474 -1131 474 -1135 474 -1143 c 0
 474 -1156 472 -1159 458 -1159 c 0
 451 -1159 262 -1124 257 -1012 c 1
 257 -735 l 2
 257 -704 257 -702 256 -696 c 0
 247 -640 195 -604 133 -580 c 0
 111 -572 110 -571 110 -559 c 0
 110 -547 114 -546 126 -541 c 0
 257 -492 257 -431 257 -397 c 2
EndSplineSet
EndChar

StartChar: uni007D.alt01
Encoding: 1114113 -1 1
Width: 583
Flags: MW
HStem: -1159 35 -577 35 5 35
VStem: 258 69
LayerCount: 2
Fore
SplineSet
327 -722 m 2
 327 -981 l 2
 327 -1027 327 -1051 287 -1090 c 0
 244 -1132 140 -1159 127 -1159 c 0
 115 -1159 110 -1157 110 -1143 c 0
 110 -1138 110 -1131 119 -1128 c 0
 161 -1113 256 -1080 257 -1009 c 0
 258 -955 257 -901 257 -847 c 2
 257 -742 l 2
 257 -703 257 -701 259 -690 c 0
 271 -617 356 -579 419 -559 c 1
 352 -539 257 -497 257 -407 c 2
 257 -127 l 2
 257 -69 237 -32 120 9 c 0
 110 12 110 18 110 24 c 0
 110 38 115 40 127 40 c 0
 141 40 243 12 285 -28 c 0
 327 -67 327 -86 327 -162 c 2
 327 -384 l 2
 327 -437 327 -493 465 -544 c 0
 474 -547 474 -551 474 -560 c 0
 474 -572 473 -572 457 -578 c 0
 327 -626 327 -690 327 -722 c 2
EndSplineSet
EndChar

StartChar: uni007B.alt02
Encoding: 1114114 -1 2
Width: 667
Flags: MW
HStem: -1759 42 -881 42 -2 42
VStem: 296 73
LayerCount: 2
Fore
SplineSet
296 -1498 m 2
 296 -1082 l 2
 296 -1058 289 -955 129 -881 c 0
 119 -876 119 -874 119 -859 c 0
 119 -847 119 -843 127 -839 c 0
 165 -822 284 -767 295 -643 c 0
 296 -635 296 -578 296 -545 c 2
 296 -233 l 2
 296 -150 296 -113 365 -44 c 0
 400 -9 493 40 527 40 c 0
 546 40 547 39 547 20 c 0
 547 7 547 3 540 0 c 0
 499 -17 370 -71 370 -188 c 2
 370 -638 l 1
 369 -713 314 -799 176 -860 c 1
 295 -909 368 -993 370 -1080 c 1
 370 -1505 l 2
 370 -1561 370 -1650 538 -1719 c 0
 547 -1722 547 -1725 547 -1739 c 0
 547 -1758 546 -1759 527 -1759 c 0
 490 -1759 400 -1708 367 -1677 c 0
 296 -1608 296 -1563 296 -1498 c 2
EndSplineSet
EndChar

StartChar: uni007D.alt02
Encoding: 1114115 -1 3
Width: 667
Flags: MW
HStem: -1759 42 -881 42 -2 42
VStem: 296 73
LayerCount: 2
Fore
SplineSet
296 -1531 m 2
 296 -1081 l 1
 297 -1006 352 -920 490 -859 c 1
 371 -810 298 -726 296 -639 c 1
 296 -214 l 2
 296 -155 296 -71 129 -1 c 0
 119 3 119 8 119 20 c 0
 119 39 122 40 140 40 c 0
 174 40 264 -9 299 -42 c 0
 370 -111 370 -156 370 -221 c 2
 370 -637 l 2
 370 -644 370 -646 373 -663 c 0
 392 -772 508 -825 540 -840 c 0
 547 -843 547 -848 547 -860 c 0
 547 -870 547 -876 541 -879 c 0
 501 -897 382 -952 371 -1076 c 0
 370 -1084 370 -1141 370 -1174 c 2
 370 -1486 l 2
 370 -1569 370 -1606 301 -1675 c 0
 265 -1711 172 -1759 140 -1759 c 0
 122 -1759 119 -1758 119 -1739 c 0
 119 -1729 119 -1723 127 -1719 c 0
 169 -1701 296 -1647 296 -1531 c 2
EndSplineSet
EndChar

StartChar: uni007B.alt03
Encoding: 1114116 -1 4
Width: 750
Flags: MW
HStem: -2359 61 -1190 61 -21 61
VStem: 335 79<-2049 -1489 -781 -319 -319 -289>
LayerCount: 2
Fore
SplineSet
335 -2049 m 2
 335 -1455 l 2
 335 -1426 325 -1281 147 -1185 c 0
 132 -1177 131 -1176 131 -1159 c 0
 131 -1146 132 -1145 134 -1143 c 0
 136 -1141 137 -1140 154 -1130 c 0
 245 -1081 324 -993 334 -874 c 0
 335 -862 335 -812 335 -781 c 2
 335 -319 l 2
 335 -258 335 -246 337 -231 c 0
 355 -102 460 -15 561 31 c 0
 581 40 583 40 596 40 c 0
 618 40 618 39 618 18 c 0
 618 7 618 4 615 1 c 0
 614 0 613 -1 596 -9 c 0
 573 -21 514 -54 473 -105 c 0
 414 -180 414 -236 414 -289 c 2
 414 -865 l 2
 414 -931 374 -1069 187 -1160 c 1
 265 -1195 314 -1242 347 -1282 c 0
 414 -1365 414 -1441 414 -1489 c 2
 414 -2065 l 2
 414 -2140 470 -2249 598 -2310 c 0
 613 -2318 614 -2319 616 -2320 c 0
 618 -2322 618 -2324 618 -2337 c 0
 618 -2359 617 -2359 596 -2359 c 0
 584 -2359 582 -2359 565 -2351 c 0
 490 -2319 335 -2226 335 -2049 c 2
EndSplineSet
EndChar

StartChar: uni007D.alt03
Encoding: 1114117 -1 5
Width: 750
Flags: MW
HStem: -2359 61 -1190 61 -21 61
VStem: 335 79<-2030 -2000 -2000 -1472 -830 -270>
LayerCount: 2
Fore
SplineSet
335 -2030 m 2
 335 -1454 l 2
 335 -1388 375 -1250 562 -1159 c 1
 484 -1124 435 -1077 402 -1037 c 0
 335 -954 335 -878 335 -830 c 2
 335 -254 l 2
 335 -207 307 -85 150 -9 c 1
 132 1 131 2 131 18 c 0
 131 39 132 40 153 40 c 0
 165 40 167 40 184 32 c 0
 259 0 414 -93 414 -270 c 2
 414 -864 l 2
 414 -891 423 -1040 609 -1137 c 0
 617 -1142 618 -1143 618 -1160 c 0
 618 -1175 618 -1177 610 -1181 c 0
 496 -1240 414 -1336 414 -1472 c 2
 414 -2000 l 2
 414 -2061 414 -2073 412 -2088 c 0
 394 -2217 289 -2304 188 -2350 c 0
 168 -2359 166 -2359 153 -2359 c 0
 132 -2359 131 -2357 131 -2337 c 0
 131 -2321 132 -2320 153 -2310 c 0
 177 -2298 235 -2265 276 -2214 c 0
 335 -2139 335 -2083 335 -2030 c 2
EndSplineSet
EndChar

StartChar: uni007B.alt04
Encoding: 1114118 -1 6
Width: 806
Flags: MW
HStem: -2959 64 -1492 64 -24 64
VStem: 361 83
LayerCount: 2
Fore
SplineSet
361 -2595 m 2
 361 -1906 l 2
 361 -1814 361 -1789 348 -1740 c 0
 305 -1578 192 -1508 152 -1483 c 0
 145 -1478 144 -1477 144 -1459 c 0
 144 -1442 145 -1441 157 -1433 c 0
 205 -1403 256 -1364 301 -1291 c 0
 361 -1192 361 -1111 361 -1035 c 2
 361 -324 l 2
 361 -250 404 -76 601 29 c 0
 620 40 622 40 638 40 c 0
 660 40 661 39 661 17 c 0
 661 1 661 -2 655 -5 c 0
 590 -43 513 -96 466 -217 c 0
 445 -273 445 -314 445 -399 c 2
 445 -1015 l 2
 445 -1089 445 -1096 443 -1116 c 0
 429 -1257 339 -1382 201 -1460 c 1
 294 -1509 396 -1604 433 -1744 c 0
 445 -1791 445 -1819 445 -1901 c 2
 445 -2517 l 2
 445 -2583 445 -2597 447 -2613 c 0
 459 -2746 539 -2847 650 -2911 c 0
 660 -2917 661 -2918 661 -2936 c 0
 661 -2958 660 -2959 638 -2959 c 0
 623 -2959 621 -2959 608 -2951 c 1
 398 -2841 361 -2662 361 -2595 c 2
EndSplineSet
EndChar

StartChar: uni007D.alt04
Encoding: 1114119 -1 7
Width: 806
Flags: MW
HStem: -2959 64 -1492 64 -24 64
VStem: 361 83
LayerCount: 2
Fore
SplineSet
361 -2520 m 2
 361 -1827 l 2
 361 -1756 400 -1573 604 -1459 c 1
 437 -1371 361 -1205 361 -1092 c 2
 361 -402 l 2
 361 -336 361 -322 359 -306 c 0
 346 -167 262 -69 152 -6 c 0
 144 -2 144 2 144 17 c 0
 144 39 145 40 168 40 c 0
 182 40 184 40 198 32 c 0
 418 -84 445 -271 445 -324 c 2
 445 -1092 l 2
 445 -1101 445 -1175 493 -1270 c 0
 542 -1368 625 -1419 653 -1436 c 0
 660 -1441 661 -1442 661 -1460 c 0
 661 -1476 661 -1478 653 -1483 c 0
 603 -1514 557 -1548 510 -1619 c 0
 445 -1719 445 -1810 445 -1884 c 2
 445 -2595 l 2
 445 -2640 425 -2810 234 -2931 c 0
 189 -2959 182 -2959 168 -2959 c 0
 145 -2959 144 -2958 144 -2936 c 0
 144 -2918 145 -2917 157 -2910 c 0
 298 -2829 337 -2718 350 -2669 c 0
 361 -2624 361 -2610 361 -2520 c 2
EndSplineSet
EndChar

StartChar: uni21BC
Encoding: 8636 8636 8
Width: 1000
Flags: MW
HStem: 230 40<137 910 137 910>
VStem: 204 40
LayerCount: 2
Fore
SplineSet
910 230 m 2
 56 230 l 1
 56 242 56 247 57 249 c 0
 58 250 59 251 73 264 c 1
 102 287 185 366 202 500 c 1
 242 500 l 1
 229 390 175 313 137 270 c 1
 910 270 l 2
 927 270 945 270 945 250 c 0
 945 230 928 230 910 230 c 2
EndSplineSet
EndChar

StartChar: uni21BD
Encoding: 8637 8637 9
Width: 1000
Flags: MW
HStem: 230 40<137 910 137 137>
VStem: 204 40
LayerCount: 2
Fore
SplineSet
910 230 m 2
 137 230 l 1
 171 191 229 115 242 0 c 1
 202 0 l 1
 190 95 142 179 69 240 c 0
 57 251 56 252 56 270 c 1
 910 270 l 2
 927 270 945 270 945 250 c 0
 945 230 928 230 910 230 c 2
EndSplineSet
EndChar

StartChar: uni21C0
Encoding: 8640 8640 10
Width: 1000
Flags: MW
HStem: 230 40<82.5 864 91 864 91 945>
VStem: 757 40
LayerCount: 2
Fore
SplineSet
945 230 m 1
 91 230 l 2
 74 230 56 230 56 250 c 0
 56 270 73 270 91 270 c 2
 864 270 l 1
 830 309 772 385 759 500 c 1
 799 500 l 1
 811 405 859 321 932 260 c 0
 944 249 945 248 945 230 c 1
EndSplineSet
EndChar

StartChar: uni21C1
Encoding: 8641 8641 11
Width: 1000
Flags: MW
HStem: 230 40<82.5 945 91 864>
VStem: 757 40
LayerCount: 2
Fore
SplineSet
864 230 m 1
 91 230 l 2
 74 230 56 230 56 250 c 0
 56 270 73 270 91 270 c 2
 945 270 l 1
 945 258 945 253 944 251 c 0
 943 250 942 249 928 236 c 1
 899 213 816 134 799 0 c 1
 759 0 l 1
 772 110 826 187 864 230 c 1
EndSplineSet
EndChar

StartChar: uni2190
Encoding: 8592 8592 12
Width: 1000
Flags: MW
HStem: 230 40<127 910 127 910>
VStem: 204 40
LayerCount: 2
Fore
SplineSet
910 230 m 2
 127 230 l 1
 165 183 217 104 242 0 c 1
 202 0 l 1
 171 130 89 220 57 250 c 1
 87 278 171 369 202 500 c 1
 242 500 l 1
 217 395 164 316 127 270 c 1
 910 270 l 2
 927 270 945 270 945 250 c 0
 945 230 928 230 910 230 c 2
EndSplineSet
EndChar

StartChar: uni2192
Encoding: 8594 8594 13
Width: 1000
Flags: MW
HStem: 230 40<82.5 874 91 874>
VStem: 757 40
LayerCount: 2
Fore
SplineSet
874 230 m 1
 91 230 l 2
 74 230 56 230 56 250 c 0
 56 270 73 270 91 270 c 2
 874 270 l 1
 836 317 784 396 759 500 c 1
 799 500 l 1
 830 370 912 280 944 250 c 1
 914 222 830 131 799 0 c 1
 759 0 l 1
 784 105 837 184 874 230 c 1
EndSplineSet
EndChar

StartChar: uni2191
Encoding: 8593 8593 14
Width: 500
Flags: MW
HStem: -194 21<240 260> 508 40<28 28>
VStem: 230 40<-159 617>
LayerCount: 2
Fore
SplineSet
270 617 m 1
 270 -159 l 2
 270 -176 270 -194 250 -194 c 0
 230 -194 230 -177 230 -159 c 2
 230 617 l 1
 177 572 109 529 28 508 c 1
 28 548 l 1
 107 569 189 619 250 693 c 1
 305 627 384 571 472 548 c 1
 472 508 l 1
 393 529 324 571 270 617 c 1
EndSplineSet
EndChar

StartChar: uni2193
Encoding: 8595 8595 15
Width: 500
Flags: MW
HStem: -48 40<28 28> 674 20<240 260>
VStem: 230 40<-117 659 -117 667.5>
LayerCount: 2
Fore
SplineSet
270 659 m 2
 270 -117 l 1
 323 -72 391 -29 472 -8 c 1
 472 -48 l 1
 393 -69 311 -119 250 -193 c 1
 195 -127 116 -71 28 -48 c 1
 28 -8 l 1
 107 -29 176 -71 230 -117 c 1
 230 659 l 2
 230 676 230 694 250 694 c 0
 270 694 270 677 270 659 c 2
EndSplineSet
EndChar

StartChar: uni2194
Encoding: 8596 8596 16
Width: 1000
Flags: MW
HStem: 230 40<127 874 127 874>
VStem: 204 40 757 40
LayerCount: 2
Fore
SplineSet
874 230 m 1
 127 230 l 1
 165 183 217 104 242 0 c 1
 202 0 l 1
 171 130 89 220 57 250 c 1
 87 278 171 369 202 500 c 1
 242 500 l 1
 217 395 164 316 127 270 c 1
 874 270 l 1
 836 317 784 396 759 500 c 1
 799 500 l 1
 830 370 912 280 944 250 c 1
 914 222 830 131 799 0 c 1
 759 0 l 1
 784 105 837 184 874 230 c 1
EndSplineSet
EndChar

StartChar: uni2197
Encoding: 8599 8599 17
Width: 1000
Flags: MW
HStem: -193 21 654 40
VStem: 904 40
LayerCount: 2
Fore
SplineSet
908 629 m 1
 98 -181 l 2
 85 -194 84 -195 76 -195 c 0
 65 -195 56 -186 56 -175 c 0
 56 -170 56 -166 70 -152 c 2
 880 658 l 1
 760 669 667 720 637 739 c 1
 665 767 l 1
 787 694 900 694 945 694 c 1
 945 649 945 536 1018 414 c 1
 990 386 l 1
 971 415 923 503 908 629 c 1
EndSplineSet
EndChar

StartChar: uni2198
Encoding: 8600 8600 18
Width: 1000
Flags: MW
HStem: -194 40 673 20
VStem: 904 40
LayerCount: 2
Fore
SplineSet
880 -157 m 1
 70 653 l 2
 57 666 56 667 56 675 c 0
 56 686 65 695 76 695 c 0
 81 695 85 695 99 681 c 2
 909 -129 l 1
 920 -9 971 84 990 114 c 1
 1018 86 l 1
 945 -36 945 -149 945 -194 c 1
 900 -194 787 -194 665 -267 c 1
 637 -239 l 1
 666 -220 754 -172 880 -157 c 1
EndSplineSet
EndChar

StartChar: uni21D0
Encoding: 8656 8656 19
Width: 1000
Flags: MW
HStem: 133 40<270 909 909 910 270 270> 327 40<270 909>
VStem: 370 40
LayerCount: 2
Fore
SplineSet
910 133 m 2
 270 133 l 1
 309 90 371 8 409 -97 c 1
 369 -97 l 1
 312 59 198 180 57 250 c 1
 203 323 314 446 369 597 c 1
 409 597 l 1
 372 493 310 410 270 367 c 1
 910 367 l 2
 927 367 945 367 945 347 c 0
 945 327 927 327 909 327 c 2
 230 327 l 1
 190 289 158 266 133 250 c 1
 184 217 215 187 230 173 c 1
 909 173 l 2
 927 173 945 173 945 153 c 0
 945 133 927 133 910 133 c 2
EndSplineSet
EndChar

StartChar: uni21D2
Encoding: 8658 8658 20
Width: 1000
Flags: MW
HStem: 133 40<82.5 771 92 731> 327 40<91 92 92 731 91 771>
VStem: 591 40
LayerCount: 2
Fore
SplineSet
771 327 m 1
 92 327 l 2
 75 327 56 327 56 347 c 0
 56 367 74 367 91 367 c 2
 731 367 l 1
 692 410 630 492 592 597 c 1
 632 597 l 1
 689 441 803 320 944 250 c 1
 798 177 687 54 632 -97 c 1
 592 -97 l 1
 629 7 691 90 731 133 c 1
 91 133 l 2
 74 133 56 133 56 153 c 0
 56 173 75 173 92 173 c 2
 771 173 l 1
 811 211 843 234 868 250 c 1
 817 283 786 313 771 327 c 1
EndSplineSet
EndChar

StartChar: uni21D1
Encoding: 8657 8657 21
Width: 667
Flags: MW
HStem: -194 21<226 246 420 440> 341 40<14 14>
VStem: 216 40<-158 468 468 468> 410 40<-158 468>
LayerCount: 2
Fore
SplineSet
450 468 m 1
 450 -158 l 2
 450 -176 450 -194 430 -194 c 0
 410 -194 410 -175 410 -158 c 2
 410 510 l 1
 370 552 337 607 333 613 c 1
 329 606 296 551 256 510 c 1
 256 -158 l 2
 256 -176 256 -194 236 -194 c 0
 216 -194 216 -176 216 -158 c 2
 216 468 l 1
 150 409 88 371 14 341 c 1
 14 381 l 1
 101 415 168 469 196 496 c 0
 279 577 309 642 333 693 c 1
 354 649 385 582 457 510 c 0
 513 453 581 409 652 381 c 1
 652 341 l 1
 583 369 520 405 450 468 c 1
EndSplineSet
EndChar

StartChar: uni21D3
Encoding: 8659 8659 22
Width: 667
Flags: MW
HStem: 119 40<14 14> 674 20<226 246 420 440>
VStem: 216 40<32 658 -10 667> 410 40<32 658 32 658 32 666.5>
LayerCount: 2
Fore
SplineSet
450 658 m 2
 450 32 l 1
 516 91 578 129 652 159 c 1
 652 119 l 1
 565 85 498 31 470 4 c 0
 387 -77 357 -142 333 -193 c 1
 312 -149 281 -82 209 -10 c 0
 153 47 85 91 14 119 c 1
 14 159 l 1
 83 131 146 95 216 32 c 1
 216 658 l 2
 216 676 216 694 236 694 c 0
 256 694 256 676 256 658 c 2
 256 -10 l 1
 298 -55 326 -101 333 -113 c 1
 344 -94 370 -52 410 -10 c 1
 410 658 l 2
 410 675 410 694 430 694 c 0
 450 694 450 676 450 658 c 2
EndSplineSet
EndChar

StartChar: uni21D4
Encoding: 8660 8660 23
Width: 1000
Flags: MW
HStem: 133 40<213 788 213 213> 327 40<213 788 213 822 179 788>
VStem: 293 40 668 40
LayerCount: 2
Fore
SplineSet
213 367 m 1
 788 367 l 1
 725 448 687 537 670 597 c 1
 710 597 l 1
 731 522 792 372 966 250 c 1
 796 131 733 -15 710 -97 c 1
 670 -97 l 1
 687 -35 727 53 788 133 c 1
 213 133 l 1
 276 52 314 -37 331 -97 c 1
 291 -97 l 1
 270 -22 209 128 35 250 c 1
 205 369 268 515 291 597 c 1
 331 597 l 1
 314 535 274 447 213 367 c 1
179 173 m 1
 822 173 l 1
 846 199 864 219 901 250 c 1
 864 281 846 301 822 327 c 1
 179 327 l 1
 155 301 137 281 100 250 c 1
 137 219 155 199 179 173 c 1
EndSplineSet
EndChar

StartChar: uni2196
Encoding: 8598 8598 24
Width: 1000
Flags: MW
HStem: -193 21 654 40
VStem: 57 40
LayerCount: 2
Fore
SplineSet
121 657 m 1
 931 -153 l 2
 944 -166 945 -167 945 -175 c 0
 945 -186 936 -195 925 -195 c 0
 920 -195 916 -195 902 -181 c 2
 92 629 l 1
 81 509 30 416 11 386 c 1
 -17 414 l 1
 56 536 56 649 56 694 c 1
 101 694 214 694 336 767 c 1
 364 739 l 1
 335 720 247 672 121 657 c 1
EndSplineSet
EndChar

StartChar: uni2199
Encoding: 8601 8601 25
Width: 1000
Flags: MW
HStem: -194 40 673 20
VStem: 55 40
LayerCount: 2
Fore
SplineSet
931 652 m 2
 121 -158 l 1
 241 -169 334 -220 364 -239 c 1
 336 -267 l 1
 214 -194 101 -194 56 -194 c 1
 56 -149 56 -36 -17 86 c 1
 11 114 l 1
 30 85 78 -3 93 -129 c 1
 903 681 l 2
 916 694 917 695 925 695 c 0
 936 695 945 686 945 675 c 0
 945 670 945 666 931 652 c 2
EndSplineSet
EndChar

StartChar: uni221E
Encoding: 8734 8734 26
Width: 1000
Flags: W
HStem: -11 43<196 285 193.5 315.5> -11 58<724 802.5 724 803> 384 58<198.5 277> 399 43<716 805>
VStem: 56 42<171 263.5 171 274.5> 56 43 902 41 903 43
LayerCount: 2
Fore
SplineSet
462 197 m 1xa5
 412 262 l 2
 376 308 317 384 237 384 c 0
 160 384 98 312 98 215 c 0
 98 127 146 32 241 32 c 0
 329 32 404 96 462 197 c 1xa5
507 276 m 1
 543 336 624 442 747 442 c 0
 863 442 945 334 945 216 c 0
 945 97 862 -11 744 -11 c 0
 662 -11 593 38 542 95 c 0x5a
 522 117 515 129 494 155 c 1
 458 95 377 -11 254 -11 c 0
 138 -11 56 97 56 215 c 0
 56 334 139 442 257 442 c 0
 339 442 408 393 459 336 c 0
 479 314 486 302 507 276 c 1
539 234 m 1
 589 169 l 2
 625 123 684 47 764 47 c 0
 841 47 903 119 903 216 c 0
 903 304 855 399 760 399 c 0
 672 399 597 335 539 234 c 1
EndSplineSet
EndChar

StartChar: uniF8F1
Encoding: 1114120 -1 27
Width: 889
Flags: MW
HStem: -900 21 -44 44
VStem: 395 97<-883 -467 -904 -453 -904 -373.5>
LayerCount: 2
Fore
SplineSet
492 -467 m 2
 492 -904 l 1
 486 -910 484 -910 463 -910 c 2
 424 -910 l 2
 396 -910 395 -909 395 -883 c 2
 395 -453 l 2
 395 -294 479 -110 676 -1 c 1
 710 -1 l 1
 718 -3 718 -8 718 -25 c 0
 718 -44 717 -45 712 -48 c 0
 558 -147 492 -301 492 -467 c 2
EndSplineSet
EndChar

StartChar: uniF8FC
Encoding: 1114121 -1 28
Width: 889
Flags: MW
HStem: -901 21 -44 44
VStem: 395 97<-883 -453 -453 -445 -904 -394>
LayerCount: 2
Fore
SplineSet
492 -445 m 2
 492 -904 l 1
 486 -910 484 -910 463 -910 c 2
 424 -910 l 2
 396 -910 395 -909 395 -883 c 2
 395 -453 l 2
 395 -335 348 -161 181 -52 c 1
 171 -44 170 -43 170 -25 c 0
 170 -10 170 -2 180 -1 c 1
 212 -1 l 1
 424 -119 492 -316 492 -445 c 2
EndSplineSet
EndChar

StartChar: uniF8F3
Encoding: 1114122 -1 29
Width: 889
Flags: MW
HStem: -900 44 -20 20
VStem: 395 97<-447 -433 -433 -17 -17 -4>
LayerCount: 2
Fore
SplineSet
708 -899 m 1
 676 -899 l 1
 482 -791 395 -610 395 -447 c 2
 395 -17 l 2
 395 9 396 10 424 10 c 2
 463 10 l 2
 484 10 486 10 492 4 c 1
 492 -433 l 2
 492 -648 602 -780 703 -846 c 0
 717 -856 718 -857 718 -875 c 0
 718 -892 718 -898 708 -899 c 1
EndSplineSet
EndChar

StartChar: uniF8FE
Encoding: 1114123 -1 30
Width: 889
Flags: MW
HStem: -900 44 -20 20
VStem: 395 97<-447 -17 -17 -4>
LayerCount: 2
Fore
SplineSet
395 -447 m 2
 395 -17 l 2
 395 9 396 10 424 10 c 2
 463 10 l 2
 484 10 486 10 492 4 c 1
 492 -455 l 2
 492 -582 426 -780 212 -899 c 1
 201 -899 181 -899 179 -898 c 0
 170 -896 170 -890 170 -875 c 0
 170 -856 171 -855 176 -852 c 0
 364 -731 395 -541 395 -447 c 2
EndSplineSet
EndChar

StartChar: uniF8F2
Encoding: 1114124 -1 31
Width: 889
Flags: MW
HStem: -1800 21 -924 48 -20 20
VStem: 395 97<-1783 -1360 -1360 -1353 -1804 -1332 -440 -17 -17 -4>
LayerCount: 2
Fore
SplineSet
492 -1353 m 2
 492 -1804 l 1
 486 -1810 484 -1810 463 -1810 c 2
 424 -1810 l 2
 396 -1810 395 -1809 395 -1783 c 2
 395 -1360 l 2
 395 -1304 386 -1212 338 -1110 c 1
 285 -1001 206 -945 175 -922 c 0
 171 -919 170 -918 170 -900 c 0
 170 -882 171 -881 181 -873 c 0
 356 -751 395 -553 395 -440 c 2
 395 -17 l 2
 395 9 396 10 424 10 c 2
 463 10 l 2
 484 10 486 10 492 4 c 1
 492 -447 l 2
 492 -519 471 -745 228 -900 c 1
 478 -1060 492 -1294 492 -1353 c 2
EndSplineSet
EndChar

StartChar: uniF8FD
Encoding: 1114125 -1 32
Width: 889
Flags: MW
HStem: -1800 21 -924 48 -20 20
VStem: 395 97<-1783 -1375 -1804 -1361 -1804 -1275.5 -439 -425 -425 -17 -17 -4>
LayerCount: 2
Fore
SplineSet
492 -1375 m 2
 492 -1804 l 1
 486 -1810 484 -1810 463 -1810 c 2
 424 -1810 l 2
 396 -1810 395 -1809 395 -1783 c 2
 395 -1361 l 2
 395 -1190 485 -1007 660 -900 c 1
 486 -794 395 -612 395 -439 c 2
 395 -17 l 2
 395 9 396 10 424 10 c 2
 463 10 l 2
 484 10 486 10 492 4 c 1
 492 -425 l 2
 492 -539 518 -632 562 -712 c 0
 615 -808 677 -852 713 -878 c 0
 717 -881 718 -882 718 -900 c 0
 718 -918 717 -919 713 -922 c 0
 676 -949 613 -994 560 -1092 c 1
 511 -1180 492 -1276 492 -1375 c 2
EndSplineSet
EndChar

StartChar: uniF8F4
Encoding: 1114126 -1 33
Width: 889
Flags: MW
HStem: -300 21 -20 20
VStem: 395 97<-283 -17 -17 -4>
LayerCount: 2
Fore
SplineSet
492 4 m 1
 492 -304 l 1
 486 -310 484 -310 463 -310 c 2
 424 -310 l 2
 396 -310 395 -309 395 -283 c 2
 395 -17 l 2
 395 9 396 10 424 10 c 2
 463 10 l 2
 484 10 486 10 492 4 c 1
EndSplineSet
EndChar

StartChar: uni222E.alt01
Encoding: 1114127 -1 34
Width: 528
Flags: W
HStem: -1111 31<165 206 165 211.5> -737 40 -413 40 -31 31<352.5 391.5>
VStem: 49 104 95 40 243 74 244 74<-697 -670.5> 402 104 427 40<-588 -522>
LayerCount: 2
Fore
SplineSet
244 -697 m 1xf580
 244 -644 243 -591 243 -538 c 0
 243 -462 243 -425 244 -414 c 1
 178 -430 134 -489 134 -556 c 0
 134 -619 176 -680 244 -697 c 1xf580
317 -373 m 1
 412 -393 467 -474 467 -556 c 0
 467 -634 414 -717 318 -738 c 1
 314 -789 322 -899 304 -975 c 0
 290 -1031 257 -1111 166 -1111 c 0
 108 -1111 49 -1086 49 -1024 c 0
 49 -971 94 -970 98 -970 c 0
 122 -970 154 -988 154 -1024 c 0
 154 -1042 148 -1058 132 -1068 c 1
 134 -1070 140 -1074 144 -1075 c 0
 150 -1078 152 -1078 159 -1079 c 0
 161 -1080 162 -1080 168 -1080 c 0
 244 -1080 246 -977 246 -866 c 0
 246 -845 245 -824 245 -804 c 2xfa40
 245 -738 l 1
 150 -720 94 -638 94 -555 c 0
 94 -478 145 -393 244 -373 c 1
 244 -193 251 -161 256 -137 c 0
 271 -74 304 0 391 0 c 0
 445 0 507 -23 507 -87 c 0
 507 -139 463 -141 458 -141 c 0
 433 -141 402 -123 402 -87 c 0
 402 -69 408 -53 424 -43 c 1
 423 -42 418 -38 412 -36 c 0
 406 -33 404 -33 397 -32 c 0
 396 -31 394 -31 389 -31 c 0
 316 -31 316 -132 316 -254 c 0
 316 -294 317 -333 317 -373 c 1
318 -697 m 1
 384 -680 427 -620 427 -556 c 0
 427 -488 381 -430 318 -414 c 1
 318 -519 l 2
 318 -529 319 -540 319 -549 c 0
 319 -558 318 -569 318 -579 c 2
 318 -697 l 1
EndSplineSet
EndChar

StartChar: uni222E.alt02
Encoding: 1114128 -1 35
Width: 444
Flags: W
HStem: -2222 31<153 195.5 153 210> -2162 70 -1376 40<329 329> -884 40 -130 70 -31 31<368.5 402>
VStem: 18 40 41 80 242 89 243 89 434 80 516 40<-1162 -1067 -1174 -1062.5>
LayerCount: 2
Fore
SplineSet
243 -1217 m 2xfe60
 243 -885 l 1
 128 -909 57 -1007 57 -1111 c 0
 57 -1208 123 -1312 245 -1336 c 1
 243 -1311 243 -1257 243 -1217 c 2xfe60
326 -822 m 0
 326 -831 327 -844 331 -845 c 0
 507 -883 556 -1023 556 -1111 c 0
 556 -1237 464 -1355 329 -1376 c 1
 329 -1445 l 2
 329 -1577 326 -1708 322 -1840 c 0
 313 -2138 254 -2222 166 -2222 c 0
 97 -2222 40 -2187 40 -2131 c 0
 40 -2116 47 -2091 77 -2091 c 0
 96 -2091 121 -2105 121 -2132 c 0
 121 -2151 115 -2157 110 -2161 c 1
 119 -2174 141 -2191 165 -2191 c 0
 226 -2191 237 -2034 241 -1985 c 0
 243 -1960 249 -1880 249 -1679 c 0
 249 -1607 248 -1535 247 -1463 c 0xfd90
 246 -1396 246 -1378 241 -1376 c 0
 208 -1369 140 -1353 82 -1286 c 0
 40 -1236 17 -1175 17 -1110 c 0
 17 -984 109 -867 243 -845 c 1
 243 -776 l 2
 243 -743 246 -529 247 -478 c 0
 248 -423 251 -368 254 -314 c 0
 265 -120 299 0 391 0 c 0
 461 0 516 -37 516 -90 c 0
 516 -113 504 -131 479 -131 c 0
 461 -131 435 -118 435 -90 c 0
 435 -70 441 -65 446 -61 c 1
 435 -45 412 -31 392 -31 c 0
 345 -31 334 -182 331 -226 c 0
 329 -253 323 -339 323 -544 c 0
 323 -637 324 -729 326 -822 c 0
329 -1336 m 1
 445 -1313 516 -1214 516 -1110 c 0
 516 -1015 452 -909 327 -885 c 1
 329 -908 329 -966 329 -1006 c 2
 329 -1336 l 1
EndSplineSet
EndChar

StartChar: uni2211.alt01
Encoding: 1114129 -1 36
Width: 1056
Flags: MW
HStem: -1000 97<79 971 180 957> -70 70<229 888 229 229>
VStem: 56 915<-992 -903>
LayerCount: 2
Fore
SplineSet
484 -497 m 2
 180 -903 l 1
 971 -903 l 1
 957 -1000 l 1
 88 -1000 l 2
 70 -1000 56 -1000 56 -984 c 0
 56 -980 58 -976 65 -967 c 2
 411 -504 l 1
 122 -59 l 1
 122 -13 l 1
 125 0 135 0 154 0 c 2
 902 0 l 1
 888 -70 l 1
 229 -70 l 1
 486 -464 l 2
 489 -468 493 -474 493 -480 c 0
 493 -484 491 -488 484 -497 c 2
EndSplineSet
EndChar

StartChar: uni220F.alt01
Encoding: 1114130 -1 37
Width: 1056
Flags: MW
HStem: -1000 40<70 121.5 321.5 373 70 121.5 682 733.5 933.5 985> -40 40<70 121.5 270 785 270 270 933.5 985>
VStem: 173 97<-881 -119 -119 -104> 785 97<-881 -119>
LayerCount: 2
Fore
SplineSet
882 -119 m 2
 882 -881 l 2
 882 -911 882 -960 985 -960 c 1
 985 -1000 l 1
 682 -1000 l 1
 682 -960 l 1
 785 -960 785 -911 785 -881 c 2
 785 -40 l 1
 270 -40 l 1
 270 -881 l 2
 270 -911 270 -960 373 -960 c 1
 373 -1000 l 1
 70 -1000 l 1
 70 -960 l 1
 173 -960 173 -911 173 -881 c 2
 173 -119 l 2
 173 -89 173 -40 70 -40 c 1
 70 0 l 1
 985 0 l 1
 985 -40 l 1
 882 -40 882 -89 882 -119 c 2
EndSplineSet
EndChar

StartChar: uni222B.alt01
Encoding: 1114131 -1 38
Width: 528
Flags: MW
HStem: -1111 31<165 206 165 235> -31 31<352.5 391.5>
VStem: 50 105 245 76 401 105
LayerCount: 2
Fore
SplineSet
319 -549 m 2
 318 -750 l 2
 318 -793 317 -837 315 -881 c 0
 313 -932 304 -1111 166 -1111 c 0
 108 -1111 49 -1086 49 -1024 c 0
 49 -971 94 -970 98 -970 c 0
 122 -970 154 -988 154 -1024 c 0
 154 -1042 148 -1058 132 -1068 c 1
 134 -1070 140 -1074 144 -1075 c 0
 150 -1078 152 -1078 159 -1079 c 0
 161 -1080 162 -1080 168 -1080 c 0
 244 -1080 246 -977 246 -866 c 0
 246 -828 243 -661 243 -538 c 0
 243 -457 244 -376 245 -295 c 0
 246 -189 248 0 391 0 c 0
 445 0 507 -23 507 -87 c 0
 507 -139 463 -141 458 -141 c 0
 433 -141 402 -123 402 -87 c 0
 402 -69 408 -53 424 -43 c 1
 423 -42 418 -38 412 -36 c 0
 406 -33 404 -33 397 -32 c 0
 396 -31 394 -31 389 -31 c 0
 316 -31 316 -132 316 -254 c 0
 316 -302 319 -519 319 -549 c 2
EndSplineSet
EndChar

StartChar: uni2211.alt02
Encoding: 1114132 -1 39
Width: 1444
Flags: MW
HStem: -1400 118<219 1347> -76 76
VStem: 57 1304
LayerCount: 2
Fore
SplineSet
1347 -1400 m 1
 88 -1400 l 2
 70 -1400 56 -1400 56 -1384 c 0
 56 -1383 56 -1378 65 -1367 c 2
 572 -728 l 1
 167 -66 l 1
 167 -16 l 1
 168 0 179 0 199 0 c 2
 1236 0 l 1
 1222 -77 l 1
 337 -77 l 1
 691 -655 l 2
 694 -659 698 -667 698 -672 c 0
 698 -674 698 -679 688 -691 c 2
 219 -1282 l 1
 1361 -1282 l 1
 1347 -1400 l 1
EndSplineSet
EndChar

StartChar: uni220F.alt02
Encoding: 1114133 -1 40
Width: 1411
Flags: MW
HStem: -1400 54<56 122 470.5 537 56 122 873 939 1287.5 1354> -54 54<56 122.5 373 1037 373 373 1288 1354>
VStem: 220 153<-1236 -164 -164 -132> 1037 153<-1236 -164>
LayerCount: 2
Fore
SplineSet
1037 -1236 m 2
 1037 -54 l 1
 373 -54 l 1
 373 -1236 l 2
 373 -1300 404 -1346 537 -1346 c 1
 537 -1400 l 1
 56 -1400 l 1
 56 -1346 l 1
 188 -1346 220 -1301 220 -1236 c 2
 220 -164 l 2
 220 -100 189 -54 56 -54 c 1
 56 0 l 1
 1354 0 l 1
 1354 -54 l 1
 1222 -54 1190 -99 1190 -164 c 2
 1190 -1236 l 2
 1190 -1300 1221 -1346 1354 -1346 c 1
 1354 -1400 l 1
 873 -1400 l 1
 873 -1346 l 1
 1005 -1346 1037 -1301 1037 -1236 c 2
EndSplineSet
EndChar

StartChar: uni222B.alt02
Encoding: 1114134 -1 41
Width: 444
Flags: MW
HStem: -2222 31<154 196.5 154 212> -2161 71 -130 71 -31 31<369.5 403>
VStem: 41 85 247 84 434 85
LayerCount: 2
Fore
SplineSet
245 -1242 m 2
 244 -996 l 2
 244 -852 245 -707 247 -563 c 0
 249 -386 256 -291 257 -277 c 0
 270 -108 305 0 392 0 c 0
 462 0 517 -37 517 -90 c 0
 517 -113 505 -131 480 -131 c 0
 462 -131 436 -118 436 -90 c 0
 436 -70 442 -65 447 -61 c 1
 436 -45 413 -31 393 -31 c 0
 346 -31 335 -182 332 -226 c 0
 330 -253 324 -339 324 -544 c 0
 324 -573 324 -676 326 -698 c 1
 326 -759 l 1
 327 -815 329 -871 329 -927 c 0
 329 -1027 330 -1126 330 -1226 c 0
 330 -1404 330 -1739 318 -1921 c 0
 305 -2130 257 -2222 167 -2222 c 0
 98 -2222 41 -2187 41 -2131 c 0
 41 -2116 48 -2091 78 -2091 c 0
 97 -2091 122 -2105 122 -2132 c 0
 122 -2151 116 -2157 111 -2161 c 1
 120 -2174 142 -2191 166 -2191 c 0
 227 -2191 238 -2034 242 -1985 c 0
 244 -1960 250 -1880 250 -1679 c 0
 250 -1658 250 -1623 249 -1616 c 1
 249 -1556 l 1
 247 -1452 245 -1347 245 -1242 c 2
EndSplineSet
EndChar

StartChar: uni2210.alt01
Encoding: 1114135 -1 42
Width: 1056
Flags: MW
HStem: -1000 40<70 121.5 270 785 933.5 985 70 121.5> -40 40<70 121.5 321.5 373 682 733.5 933.5 985>
VStem: 173 97<-881 -119 -960 -104> 785 97<-896 -881 -881 -119>
LayerCount: 2
Fore
SplineSet
882 -119 m 2
 882 -881 l 2
 882 -911 882 -960 985 -960 c 1
 985 -1000 l 1
 70 -1000 l 1
 70 -960 l 1
 173 -960 173 -911 173 -881 c 2
 173 -119 l 2
 173 -89 173 -40 70 -40 c 1
 70 0 l 1
 373 0 l 1
 373 -40 l 1
 270 -40 270 -89 270 -119 c 2
 270 -960 l 1
 785 -960 l 1
 785 -119 l 2
 785 -89 785 -40 682 -40 c 1
 682 0 l 1
 985 0 l 1
 985 -40 l 1
 882 -40 882 -89 882 -119 c 2
EndSplineSet
EndChar

StartChar: uni2210.alt02
Encoding: 1114136 -1 43
Width: 1411
Flags: MW
HStem: -1400 54<56 122 373 1037 1287.5 1354 56 122> -54 54<56 122.5 471 537 873 939.5 1288 1354>
VStem: 220 153<-1236 -164 -1346 -132> 1037 153<-1268 -1236 -1236 -164>
LayerCount: 2
Fore
SplineSet
1354 -1400 m 1
 56 -1400 l 1
 56 -1346 l 1
 188 -1346 220 -1301 220 -1236 c 2
 220 -164 l 2
 220 -100 189 -54 56 -54 c 1
 56 0 l 1
 537 0 l 1
 537 -54 l 1
 405 -54 373 -99 373 -164 c 2
 373 -1346 l 1
 1037 -1346 l 1
 1037 -164 l 2
 1037 -100 1006 -54 873 -54 c 1
 873 0 l 1
 1354 0 l 1
 1354 -54 l 1
 1222 -54 1190 -99 1190 -164 c 2
 1190 -1236 l 2
 1190 -1300 1221 -1346 1354 -1346 c 1
 1354 -1400 l 1
EndSplineSet
EndChar

StartChar: uni2195
Encoding: 8597 8597 44
Width: 500
Flags: MW
HStem: -126 40<28 28> 586 40<28 28>
VStem: 230 40<-195 695 -195 695>
LayerCount: 2
Fore
SplineSet
270 695 m 1
 270 -195 l 1
 323 -150 391 -107 472 -86 c 1
 472 -126 l 1
 393 -147 311 -197 250 -271 c 1
 195 -205 116 -149 28 -126 c 1
 28 -86 l 1
 107 -107 176 -149 230 -195 c 1
 230 695 l 1
 177 650 109 607 28 586 c 1
 28 626 l 1
 107 647 189 697 250 771 c 1
 305 705 384 649 472 626 c 1
 472 586 l 1
 393 607 324 649 270 695 c 1
EndSplineSet
EndChar

StartChar: uni21D5
Encoding: 8661 8661 45
Width: 667
Flags: MW
HStem: -15 40<14 14> 475 40<14 14>
VStem: 216 40<-83 583 583 583> 410 40<-83 583 -83 618 -83 618>
LayerCount: 2
Fore
SplineSet
450 583 m 1
 450 -83 l 1
 515 -34 584 5 652 25 c 1
 652 -15 l 1
 522 -56 408 -147 333 -271 c 1
 258 -147 144 -56 14 -15 c 1
 14 25 l 1
 81 5 150 -33 216 -83 c 1
 216 583 l 1
 151 534 82 495 14 475 c 1
 14 515 l 1
 144 556 258 647 333 771 c 1
 408 647 522 556 652 515 c 1
 652 475 l 1
 585 495 516 533 450 583 c 1
256 618 m 1
 256 -118 l 1
 295 -153 328 -196 333 -202 c 1
 340 -193 373 -152 410 -118 c 1
 410 618 l 1
 371 653 338 696 333 702 c 1
 326 693 293 652 256 618 c 1
EndSplineSet
EndChar

StartChar: bracehtipdownleft
Encoding: 1114137 -1 46
Width: 450
Flags: MW
HStem: -225 44 0 97<448 454>
VStem: -24 474
LayerCount: 2
Fore
SplineSet
460 68 m 2
 460 29 l 2
 460 9 460 0 448 0 c 0
 368 -1 282 -14 196 -58 c 0
 93 -112 49 -179 24 -217 c 0
 19 -225 17 -225 0 -225 c 0
 -17 -225 -23 -225 -24 -215 c 1
 -24 -183 l 1
 80 -6 253 97 454 97 c 1
 460 91 460 89 460 68 c 2
EndSplineSet
EndChar

StartChar: bracehtipdownright
Encoding: 1114138 -1 47
Width: 450
Flags: MW
HStem: -225 44 0 97<-3 4>
VStem: 0 474
LayerCount: 2
Fore
SplineSet
474 -183 m 1
 474 -217 l 1
 472 -225 467 -225 450 -225 c 0
 435 -225 431 -225 427 -218 c 0
 398 -175 354 -107 246 -54 c 0
 141 -3 41 -1 4 0 c 0
 -10 0 -10 6 -10 29 c 2
 -10 68 l 2
 -10 89 -10 91 -4 97 c 1
 208 97 376 -15 474 -183 c 1
EndSplineSet
EndChar

StartChar: bracehtipupleft
Encoding: 1114139 -1 48
Width: 450
Flags: MW
HStem: 0 97 279 44
VStem: -24 474
LayerCount: 2
Fore
SplineSet
460 68 m 2
 460 29 l 2
 460 2 460 0 439 0 c 0
 367 0 125 26 -24 280 c 1
 -24 314 l 1
 -22 322 -17 322 0 322 c 0
 15 322 19 322 23 315 c 0
 52 272 90 214 184 162 c 1
 262 120 349 100 436 98 c 0
 460 97 460 96 460 68 c 2
EndSplineSet
EndChar

StartChar: bracehtipupright
Encoding: 1114140 -1 49
Width: 450
Flags: MW
HStem: 0 97 279 44
VStem: 0 474
LayerCount: 2
Fore
SplineSet
474 312 m 1
 474 280 l 1
 327 30 90 0 11 0 c 0
 -10 0 -10 2 -10 29 c 2
 -10 68 l 2
 -10 91 -9 92 -4 96 c 1
 -1 97 19 98 31 98 c 0
 41 98 146 101 259 158 c 0
 358 209 403 279 426 314 c 0
 431 322 433 322 450 322 c 0
 467 322 473 322 474 312 c 1
EndSplineSet
EndChar

StartChar: u1D589.alt
Encoding: 1114141 -1 51
Width: 587
Flags: MW
HStem: -28 86 562 69
VStem: 95 116 390 119
LayerCount: 2
Fore
SplineSet
262 465 m 1
 277 456 l 1
 263 444 235 421 234 421 c 0
 224 412 220 400 217 388 c 0
 208 350 205 311 205 272 c 0
 205 240 207 209 210 178 c 0
 212 161 221 144 235 131 c 0
 265 101 303 79 342 58 c 1
 370 100 378 149 384 196 c 0
 389 238 391 279 391 321 c 0
 391 357 389 392 387 428 c 1
 319 483 245 533 156 560 c 0
 144 564 130 565 117 565 c 0
 104 565 89 560 74 554 c 1
 64 573 l 1
 106 594 158 620 212 631 c 1
 261 625 307 608 350 587 c 0
 407 559 459 524 509 486 c 1
 511 458 512 430 512 401 c 0
 512 300 498 200 465 102 c 1
 393 57 300 -1 247 -28 c 1
 194 8 144 45 96 85 c 1
 92 129 90 174 90 218 c 0
 90 267 93 315 100 364 c 1
 148 403 205 435 262 465 c 1
EndSplineSet
EndChar

StartChar: u1D58B.alt01
Encoding: 1114142 -1 52
Width: 393
Flags: W
HStem: 359 46<52 134 52 134 37 134 251 371> 671 20G<251 286.5>
VStem: 134 26<514 558> 134 116<300.5 359 300.5 359 300.5 359 300.5 514>
LayerCount: 2
Fore
SplineSet
408 655 m 1xe0
 300 555 l 1
 276 572 238 598 223 598 c 0
 207 598 191 596 181 586 c 1
 169 577 160 565 160 551 c 0xe0
 160 536 166 522 174 509 c 0
 188 486 235 423 251 405 c 1
 387 405 l 1
 387 398 l 1
 371 359 l 1
 250 359 l 1xd0
 250 242 250 123 231 12 c 0
 228 -3 221 -20 213 -34 c 2
 100 -242 l 1
 80 -238 l 1
 94 -204 120 -141 125 -107 c 0
 131 -69 134 -24 134 18 c 2xe0
 134 359 l 1xd0
 37 359 l 1
 37 367 l 1
 52 405 l 1
 134 405 l 1
 134 514 l 2
 134 536 134 558 140 579 c 0
 144 594 151 607 161 621 c 0
 178 644 198 665 217 677 c 0
 236 688 244 691 258 691 c 0
 315 691 339 677 372 657 c 1
 405 676 l 1
 408 655 l 1xe0
EndSplineSet
EndChar

StartChar: u1D58B.alt02
Encoding: 1114143 -1 53
Width: 388
Flags: W
HStem: 359 46<52 135 52 135 37 135 251 371>
VStem: 135 78<-33.5 359> 135 115<300.5 359 300.5 359 300.5 359 300.5 412.5>
LayerCount: 2
Fore
SplineSet
251 405 m 1xa0
 387 405 l 1
 387 398 l 1
 371 359 l 1
 250 359 l 1xa0
 250 242 250 119 230 10 c 0
 227 -5 221 -19 213 -33 c 0
 213 -34 133 -183 100 -242 c 1
 79 -239 l 1
 93 -205 120 -141 125 -107 c 0
 131 -69 135 -24 135 18 c 2xc0
 135 359 l 1
 37 359 l 1
 37 367 l 1
 52 405 l 1
 135 405 l 1
 135 420 126 444 118 469 c 1
 107 498 98 532 98 555 c 1
 138 603 183 649 234 688 c 1
 249 678 264 668 280 660 c 0
 291 655 303 651 315 651 c 0
 332 651 348 657 361 667 c 1
 372 655 l 1
 286 569 l 1
 247 569 209 576 172 586 c 1
 175 551 191 517 211 486 c 0
 227 460 238 438 251 405 c 1xa0
EndSplineSet
EndChar

StartChar: u1D58C.alt
Encoding: 1114144 -1 54
Width: 592
Flags: MW
HStem: -212 78<221 332> -29 100 398 76
VStem: 91 108 385 137
LayerCount: 2
Fore
SplineSet
510 -49 m 1
 359 -196 l 1
 326 -204 292 -212 257 -212 c 0
 185 -212 117 -186 67 -143 c 1
 133 -44 l 1
 143 -44 l 1
 172 -103 245 -134 319 -134 c 0
 345 -134 374 -134 393 -118 c 0
 407 -106 410 -87 410 -71 c 0
 410 -29 396 38 385 92 c 1
 192 -29 l 1
 161 3 130 35 95 64 c 1
 94 98 93 132 93 166 c 0
 93 234 96 302 107 370 c 1
 165 409 229 441 293 474 c 1
 337 453 386 440 434 429 c 1
 517 474 l 1
 531 462 l 1
 503 400 499 334 499 268 c 0
 499 195 501 121 513 48 c 0
 515 30 520 3 520 -5 c 0
 520 -20 516 -35 510 -49 c 1
383 124 m 1
 385 347 l 1
 327 354 272 373 222 398 c 1
 203 354 199 299 199 258 c 0
 199 225 201 192 205 159 c 0
 207 144 214 129 225 117 c 0
 235 105 269 79 289 65 c 1
 383 124 l 1
EndSplineSet
EndChar

StartChar: u1D590.alt
Encoding: 1114145 -1 55
Width: 393
Flags: MW
HStem: 359 46<44 103 44 103 29 103 218 325>
VStem: 103 115<320.5 359 320.5 359 405 421 320.5 448.5>
LayerCount: 2
Fore
SplineSet
218 405 m 1
 341 405 l 1
 341 398 l 1
 325 359 l 1
 218 359 l 1
 218 282 218 175 221 130 c 1
 247 110 280 88 310 72 c 1
 373 92 l 1
 376 74 l 1
 318 42 259 9 208 -27 c 1
 171 6 132 36 88 62 c 1
 103 113 103 259 103 359 c 1
 29 359 l 1
 29 367 l 1
 44 405 l 1
 103 405 l 1
 103 492 103 611 95 663 c 1
 110 673 l 1
 140 597 l 1
 190 630 242 659 298 684 c 1
 314 676 l 1
 284 661 263 635 245 609 c 0
 225 580 223 546 223 512 c 1
 341 584 l 1
 359 560 374 535 387 509 c 1
 325 445 l 1
 318 443 l 1
 307 457 295 471 281 483 c 0
 273 490 263 497 251 497 c 0
 245 497 239 496 234 492 c 0
 218 477 218 437 218 405 c 1
EndSplineSet
EndChar

StartChar: u1D599.alt
Encoding: 1114146 -1 56
Width: 397
Flags: MW
HStem: 359 46<62 127 62 127 47 127 242 337>
VStem: 127 115<321 359 321 359 321 359 405 405.5 321 532>
LayerCount: 2
Fore
SplineSet
242 405 m 1
 353 405 l 1
 353 398 l 1
 337 359 l 1
 242 359 l 1
 242 283 242 156 245 132 c 1
 271 105 303 81 341 67 c 1
 404 98 l 1
 411 77 l 1
 354 40 241 -33 240 -33 c 0
 204 -1 162 26 119 51 c 1
 124 109 127 168 127 226 c 2
 127 359 l 1
 47 359 l 1
 47 367 l 1
 62 405 l 1
 127 405 l 1
 127 532 l 1
 242 586 l 1
 254 577 l 1
 250 521 242 406 242 405 c 1
EndSplineSet
EndChar

StartChar: u1D584.alt
Encoding: 1114147 -1 57
Width: 980
Flags: MW
HStem: -221 55<374 526> 51 94<188 191.5> 619 62<197.5 328>
VStem: 31 103 379 127<328 436.5> 746 129<256.5 304.5>
LayerCount: 2
Fore
SplineSet
300 681 m 0
 356 681 398 662 434 632 c 0
 463 607 481 574 493 541 c 1
 561 593 641 637 720 680 c 1
 758 643 806 616 855 590 c 1
 864 499 875 390 875 317 c 0
 875 196 857 74 793 -35 c 1
 734 -89 668 -137 593 -172 c 0
 533 -201 467 -221 398 -221 c 0
 350 -221 301 -211 267 -181 c 0
 257 -173 242 -161 239 -155 c 1
 344 -45 l 1
 357 -47 l 1
 358 -81 374 -113 402 -137 c 0
 428 -158 464 -166 499 -166 c 0
 553 -166 601 -144 638 -112 c 0
 683 -74 703 -20 718 31 c 0
 740 107 746 185 746 263 c 0
 746 346 744 428 727 509 c 1
 688 535 646 559 601 575 c 1
 563 554 532 527 502 501 c 1
 505 480 506 448 506 425 c 0
 506 355 491 285 447 225 c 1
 430 216 354 167 309 139 c 1
 365 116 451 82 487 82 c 0
 505 82 522 88 537 96 c 0
 559 107 578 121 595 136 c 1
 601 114 l 1
 554 62 499 14 439 -29 c 0
 436 -30 431 -31 429 -31 c 0
 399 -31 350 -10 313 7 c 0
 268 27 213 51 170 51 c 0
 143 51 117 44 98 28 c 0
 82 15 69 1 55 -14 c 1
 34 6 l 1
 61 38 138 106 188 145 c 1
 241 145 295 157 334 189 c 0
 352 205 361 227 367 248 c 0
 376 279 379 312 379 344 c 0
 379 393 374 443 358 490 c 0
 347 525 331 559 301 584 c 0
 277 604 250 619 213 619 c 0
 182 619 152 607 139 597 c 0
 124 584 117 567 117 548 c 0
 117 536 127 522 135 512 c 0
 148 496 161 480 177 466 c 0
 203 442 229 407 229 386 c 0
 229 375 228 365 222 356 c 0
 214 342 206 328 194 317 c 0
 158 285 119 260 75 235 c 1
 59 254 l 1
 78 266 88 275 102 292 c 0
 112 304 120 318 120 333 c 0
 120 349 93 379 74 400 c 0
 60 415 43 429 32 446 c 0
 25 455 25 469 25 481 c 0
 25 504 36 525 49 545 c 0
 67 572 91 596 116 618 c 0
 161 656 225 681 300 681 c 0
EndSplineSet
EndChar

StartChar: u1D585.alt
Encoding: 1114148 -1 58
Width: 710
Flags: MW
HStem: -148 46 69 75 283 98 602 76<257.5 382>
VStem: 115 127 491 133<123.5 124>
LayerCount: 2
Fore
SplineSet
252 360 m 1
 240 362 l 1
 256 381 l 1
 282 381 307 383 332 388 c 0
 349 392 366 397 379 408 c 0
 407 432 414 468 414 501 c 0
 414 527 403 552 381 571 c 0
 355 593 318 602 281 602 c 0
 234 602 187 590 153 561 c 1
 111 527 l 1
 93 550 l 1
 139 592 188 631 240 667 c 1
 277 674 315 678 353 678 c 0
 411 678 472 671 514 635 c 1
 539 615 549 586 549 557 c 0
 549 512 532 467 494 435 c 0
 458 404 416 377 365 371 c 1
 365 365 l 1
 435 365 509 356 559 313 c 1
 606 274 624 218 624 163 c 0
 624 84 599 3 532 -53 c 1
 466 -110 379 -148 284 -148 c 0
 241 -148 196 -141 166 -115 c 1
 133 -88 119 -49 117 -11 c 0
 116 12 110 47 99 57 c 0
 88 66 72 69 57 69 c 0
 37 69 18 61 1 53 c 1
 -5 76 l 1
 25 95 57 113 91 127 c 0
 113 136 137 144 162 144 c 0
 185 144 208 139 225 125 c 0
 242 110 242 57 242 21 c 0
 242 1 245 -20 251 -40 c 0
 256 -54 262 -69 275 -79 c 0
 294 -95 324 -104 351 -104 c 0
 384 -104 410 -91 432 -72 c 0
 455 -53 467 -21 476 5 c 0
 487 38 491 74 491 109 c 0
 491 139 488 169 477 198 c 0
 469 221 458 242 438 259 c 0
 420 275 382 290 306 290 c 0
 277 290 248 287 219 281 c 1
 208 291 l 1
 252 360 l 1
EndSplineSet
EndChar

StartChar: uni2018
Encoding: 8216 8216 59
Width: 253
Flags: MW
HStem: 410 299<131.5 166>
VStem: 53 135<449 553.5>
LayerCount: 2
Fore
SplineSet
166 709 m 1
 181 695 l 1
 164 669 149 643 135 616 c 0
 128 604 124 591 124 577 c 0
 124 561 130 546 140 532 c 2
 178 483 l 2
 184 475 188 465 188 455 c 0
 188 443 180 431 169 424 c 1
 160 417 149 410 138 410 c 0
 125 410 115 418 108 426 c 0
 78 460 53 498 53 541 c 0
 53 566 67 588 82 609 c 0
 107 644 135 677 166 709 c 1
EndSplineSet
EndChar

StartChar: uni2019
Encoding: 8217 8217 60
Width: 253
Flags: MW
HStem: 427 297
VStem: 48 135
LayerCount: 2
Fore
SplineSet
79 394 m 1
 64 408 l 1
 81 434 96 460 110 487 c 0
 117 499 121 512 121 526 c 0
 121 542 115 557 105 571 c 2
 67 620 l 2
 61 628 57 638 57 648 c 0
 57 660 65 672 76 679 c 1
 85 686 96 693 107 693 c 0
 120 693 130 685 137 677 c 0
 167 643 192 605 192 562 c 0
 192 537 178 515 163 494 c 0
 138 459 110 426 79 394 c 1
EndSplineSet
EndChar

StartChar: uni0021
Encoding: 33 33 61
Width: 349
Flags: MW
HStem: -12 117 184 21<156 156> 670 20<172.5 185>
VStem: 107 133
LayerCount: 2
Fore
SplineSet
112 46 m 0
 112 80 140 108 174 108 c 0
 208 108 236 80 236 46 c 0
 236 12 208 -16 174 -16 c 0
 140 -16 112 12 112 46 c 0
217 557 m 2
 175 186 l 1
 156 184 l 1
 124 567 l 2
 122 586 120 608 120 625 c 0
 120 637 121 649 125 661 c 0
 128 668 131 676 139 681 c 0
 151 688 165 690 180 690 c 0
 190 690 200 688 208 682 c 0
 220 672 224 658 224 644 c 0
 224 615 221 586 217 557 c 2
EndSplineSet
EndChar

StartChar: uni0026
Encoding: 38 38 62
Width: 871
Flags: MW
HStem: -14 52<253.5 381.5> 355 48 662 35<346 427.5>
VStem: 42 117<158.5 254.5> 185 93<487.5 588.5> 419 113<583.5 598.5> 611 75
LayerCount: 2
Fore
SplineSet
431 355 m 1
 432 404 l 1
 470 402 508 401 546 401 c 0
 643 401 739 404 836 408 c 1
 833 351 l 1
 799 353 713 355 679 355 c 1
 682 341 685 324 685 309 c 0
 685 236 652 163 594 112 c 1
 626 92 668 71 708 71 c 0
 724 71 741 75 753 85 c 0
 784 112 800 148 815 184 c 1
 840 178 l 1
 824 120 801 63 751 20 c 0
 724 -3 687 -16 649 -16 c 0
 592 -16 538 5 496 37 c 1
 431 8 361 -14 287 -14 c 0
 220 -14 155 8 107 48 c 0
 64 84 42 133 42 184 c 0
 42 233 61 281 102 316 c 0
 126 337 174 372 213 394 c 1
 196 433 185 467 185 508 c 0
 185 556 196 606 237 641 c 0
 283 679 346 697 410 697 c 0
 445 697 479 689 504 668 c 0
 524 651 532 627 532 603 c 0
 532 564 513 527 481 500 c 0
 442 467 386 439 334 414 c 1
 366 368 410 305 431 278 c 0
 471 228 517 176 567 133 c 1
 600 165 611 210 611 252 c 0
 611 283 598 313 572 335 c 0
 551 353 520 357 491 357 c 0
 471 357 451 357 431 355 c 1
468 64 m 1
 418 112 371 161 330 215 c 0
 296 260 259 315 229 363 c 1
 217 357 204 348 194 340 c 0
 165 315 159 272 159 237 c 0
 159 180 188 125 236 85 c 0
 271 55 318 38 367 38 c 0
 396 38 438 50 468 64 c 1
319 445 m 1
 337 454 356 464 371 477 c 0
 405 506 419 547 419 588 c 0
 419 609 411 629 394 644 c 0
 383 653 371 662 355 662 c 0
 337 662 318 657 305 645 c 0
 284 627 278 601 278 576 c 0
 278 530 293 485 319 445 c 1
EndSplineSet
EndChar

StartChar: uni0027
Encoding: 39 39 63
Width: 250
Flags: MW
HStem: 436 21<104 104 104 123> 675 20<117 127.5>
VStem: 80 79<659.5 666.5 656.5 670>
LayerCount: 2
Fore
SplineSet
104 436 m 1
 82 629 l 2
 81 641 80 653 80 666 c 0
 80 674 84 681 91 686 c 0
 100 692 111 695 123 695 c 0
 132 695 142 694 149 688 c 0
 156 681 159 671 159 662 c 0
 159 651 156 635 154 622 c 2
 123 436 l 1
 104 436 l 1
EndSplineSet
EndChar

StartChar: uni0028
Encoding: 40 40 64
Width: 458
Flags: MW
HStem: -186 21<347 347> 718 20<347 347>
VStem: 134 60<239.5 310 231 318.5>
LayerCount: 2
Fore
SplineSet
347 -172 m 1
 347 -186 l 1
 292 -178 249 -145 216 -108 c 0
 179 -65 166 -13 155 38 c 0
 138 118 134 199 134 280 c 0
 134 357 139 435 157 510 c 0
 170 564 189 618 226 664 c 0
 255 699 298 725 347 738 c 1
 347 719 l 1
 308 702 279 673 260 639 c 0
 233 592 220 541 211 489 c 0
 198 418 194 346 194 274 c 0
 194 188 198 102 215 18 c 0
 221 -11 229 -40 241 -68 c 0
 250 -88 260 -107 276 -123 c 0
 296 -143 319 -165 347 -172 c 1
EndSplineSet
EndChar

StartChar: uni0029
Encoding: 41 41 65
Width: 458
Flags: MW
HStem: -187 21<105 105> 715 20<105 105>
VStem: 264 62<232 314.5 230 315.5>
LayerCount: 2
Fore
SplineSet
105 715 m 1
 105 735 l 1
 145 728 180 708 208 682 c 0
 255 638 279 581 296 524 c 1
 319 441 326 357 326 272 c 0
 326 188 321 103 302 20 c 0
 290 -33 274 -88 232 -130 c 1
 201 -163 153 -179 105 -187 c 1
 105 -171 l 1
 139 -159 173 -145 197 -120 c 0
 211 -105 220 -87 227 -69 c 0
 237 -42 243 -15 248 12 c 0
 263 99 264 188 264 276 c 0
 264 355 259 434 241 511 c 0
 229 564 213 617 177 662 c 1
 158 684 134 703 105 715 c 1
EndSplineSet
EndChar

StartChar: uni002A
Encoding: 42 42 66
Width: 327
Flags: MW
HStem: 425 25 692 24
VStem: 145 41
LayerCount: 2
Fore
SplineSet
188 449 m 1
 140 449 l 1
 147 494 149 506 150 557 c 1
 118 534 90 514 60 481 c 1
 36 521 l 1
 71 536 104 553 135 574 c 1
 97 601 63 618 40 629 c 1
 68 662 l 1
 94 638 126 614 149 598 c 1
 149 637 149 662 140 702 c 1
 188 702 l 1
 179 663 177 642 174 602 c 1
 205 624 227 640 250 665 c 1
 280 628 l 1
 252 616 215 601 180 578 c 1
 217 549 250 536 282 524 c 1
 250 488 l 1
 231 508 206 526 174 548 c 1
 176 506 178 492 188 449 c 1
EndSplineSet
EndChar

StartChar: uni002B
Encoding: 43 43 67
Width: 892
Flags: MW
HStem: 238 50<73 422 73 422 56 422 472 821>
VStem: 422 50<-64 238 -64 238 -64 238 288 584 584 584>
LayerCount: 2
Fore
SplineSet
472 288 m 1
 837 288 l 1
 821 238 l 1
 472 238 l 1
 472 -64 l 1
 422 -83 l 1
 422 238 l 1
 56 238 l 1
 73 288 l 1
 422 288 l 1
 422 584 l 1
 472 598 l 1
 472 288 l 1
EndSplineSet
EndChar

StartChar: uni002C
Encoding: 44 44 68
Width: 277
Flags: MW
HStem: -192 299
VStem: 117 135
LayerCount: 2
Fore
SplineSet
145 -217 m 1
 118 -197 l 1
 121 -193 l 2
 141 -167 169 -125 178 -101 c 0
 183 -89 186 -73 186 -61 c 0
 186 -47 182 -33 174 -22 c 2
 104 61 l 2
 97 70 96 87 96 90 c 0
 96 106 111 122 122 130 c 0
 134 139 153 143 160 143 c 0
 171 143 190 134 198 124 c 0
 211 107 229 66 245 26 c 0
 251 9 253 -10 253 -27 c 0
 253 -53 242 -77 230 -98 c 0
 213 -130 191 -163 148 -214 c 1
 145 -217 l 1
EndSplineSet
EndChar

StartChar: uni2212
Encoding: 8722 8722 69
Width: 892
Flags: MW
HStem: 231 50<73 818 54 834>
LayerCount: 2
Fore
SplineSet
818 231 m 1
 54 231 l 1
 73 281 l 1
 834 281 l 1
 818 231 l 1
EndSplineSet
EndChar

StartChar: uni002E
Encoding: 46 46 70
Width: 327
Flags: MW
HStem: -15 117
VStem: 103 134
LayerCount: 2
Fore
SplineSet
169 129 m 0
 209 129 241 97 241 57 c 0
 241 17 209 -15 169 -15 c 0
 129 -15 97 17 97 57 c 0
 97 97 129 129 169 129 c 0
EndSplineSet
EndChar

StartChar: uni002F
Encoding: 47 47 71
Width: 592
Flags: MW
HStem: -182 21 702 20<502 502>
VStem: 40 510
LayerCount: 2
Fore
SplineSet
541 719 m 1
 548 704 l 1
 84 -197 l 1
 45 -188 l 1
 41 -170 l 1
 502 722 l 1
 516 725 l 1
 541 719 l 1
EndSplineSet
EndChar

StartChar: u1D7CE.onum
Encoding: 1114149 -1 72
Width: 592
Flags: MW
HStem: -11 84 420 82
VStem: 41 101<159 280> 428 105<235.5 240>
LayerCount: 2
Fore
SplineSet
313 502 m 1
 364 489 413 470 450 438 c 1
 502 395 533 336 533 274 c 0
 533 197 490 127 426 73 c 0
 397 48 365 27 329 11 c 0
 301 -2 270 -11 237 -11 c 0
 189 -11 144 7 110 35 c 0
 63 75 41 131 41 187 c 0
 41 272 80 353 151 412 c 1
 197 452 254 480 313 502 c 1
233 424 m 1
 203 409 190 395 176 373 c 0
 153 339 142 300 142 260 c 0
 142 202 169 146 218 105 c 0
 242 84 274 71 308 71 c 0
 337 71 371 74 392 92 c 0
 407 105 415 121 421 138 c 0
 428 160 428 188 428 211 c 0
 428 269 394 322 346 363 c 0
 316 389 274 414 233 424 c 1
EndSplineSet
EndChar

StartChar: u1D7CF.onum
Encoding: 1114150 -1 73
Width: 592
Flags: MW
HStem: 0 44 449 40
VStem: 253 114
LayerCount: 2
Fore
SplineSet
97 451 m 1
 95 482 l 1
 383 489 l 1
 373 407 367 325 367 242 c 2
 367 62 l 2
 367 52 376 43 388 42 c 0
 406 41 423 41 441 41 c 2
 548 42 l 1
 548 0 l 1
 54 0 l 1
 54 48 l 1
 107 48 161 46 215 45 c 0
 230 45 242 55 242 68 c 0
 248 157 255 252 255 336 c 0
 255 358 254 380 246 400 c 0
 237 422 213 434 188 438 c 2
 97 451 l 1
EndSplineSet
EndChar

StartChar: u1D7D0.onum
Encoding: 1114151 -1 74
Width: 592
Flags: MW
HStem: 4 97 421 70<204.5 315>
VStem: 307 123<317.5 401>
LayerCount: 2
Fore
SplineSet
537 1 m 1
 47 0 l 1
 44 25 l 1
 173 135 l 2
 210 167 245 202 272 242 c 0
 291 270 307 301 307 334 c 0
 307 358 301 383 280 400 c 0
 265 413 245 421 224 421 c 0
 185 421 136 399 95 380 c 1
 77 408 l 1
 117 431 158 453 202 470 c 0
 232 481 264 491 297 491 c 0
 333 491 370 486 395 464 c 1
 420 444 430 415 430 387 c 0
 430 362 418 338 404 316 c 0
 384 285 359 256 331 230 c 0
 287 188 201 107 200 107 c 0
 199 106 198 103 198 101 c 1
 201 96 209 96 215 96 c 0
 328 96 439 101 550 106 c 1
 564 102 l 1
 537 1 l 1
EndSplineSet
EndChar

StartChar: u1D7D1.onum
Encoding: 1114152 -1 75
Width: 592
Flags: MW
HStem: -193 44<193 222 172 270> 166 38<137 159> 423 65<219.5 328.5>
VStem: 381 142
LayerCount: 2
Fore
SplineSet
314 212 m 1
 318 201 l 1
 375 199 432 184 473 149 c 0
 507 121 523 81 523 41 c 0
 523 -18 498 -76 448 -119 c 0
 390 -168 311 -193 229 -193 c 0
 157 -193 94 -171 36 -137 c 1
 52 -112 l 1
 96 -134 146 -149 198 -149 c 0
 246 -149 294 -136 328 -107 c 0
 367 -75 384 -29 384 17 c 0
 384 55 377 96 344 124 c 0
 323 141 295 149 266 155 c 0
 224 164 181 166 137 166 c 1
 137 204 l 1
 200 204 266 214 312 252 c 1
 337 274 347 304 347 334 c 0
 347 361 332 387 309 406 c 0
 291 421 265 423 241 423 c 0
 198 423 161 403 125 383 c 1
 107 401 l 1
 162 449 227 488 307 488 c 0
 350 488 394 478 425 452 c 0
 450 431 466 402 466 372 c 0
 466 334 448 297 417 270 c 0
 387 245 353 225 314 212 c 1
EndSplineSet
EndChar

StartChar: u1D7D2.onum
Encoding: 1114153 -1 76
Width: 592
Flags: W
HStem: -1 58<110 340 110 341 446 475> -1 62<446 565>
VStem: 335 115<-188 -158> 341 105<-26.5 -1>
LayerCount: 2
Fore
SplineSet
450 -158 m 1xa0
 346 -198 l 1
 335 -188 l 1xa0
 341 -1 l 1
 13 -1 l 1
 13 28 l 1
 363 480 l 1
 446 495 l 1
 456 482 l 1
 450 402 446 234 446 57 c 1x90
 504 57 532 58 565 61 c 1
 546 -1 l 1x50
 446 -1 l 1x90
 446 -52 447 -107 450 -158 c 1xa0
110 57 m 1
 340 57 l 1
 340 359 l 1
 335 362 l 1
 276 307 182 177 110 68 c 1
 110 57 l 1
EndSplineSet
EndChar

StartChar: u1D7D3.onum
Encoding: 1114154 -1 77
Width: 592
Flags: MW
HStem: -191 39<188 196 146.5 266.5> 193 49<208.5 313.5> 388 93<153.5 158 158 486>
VStem: 95 51 371 146
LayerCount: 2
Fore
SplineSet
516 481 m 1
 486 388 l 1
 158 388 l 2
 149 388 145 379 145 370 c 2
 145 224 l 1
 155 219 l 1
 195 235 238 242 282 242 c 0
 345 242 411 232 457 193 c 0
 499 157 518 108 518 57 c 0
 518 -5 499 -69 446 -114 c 0
 388 -164 308 -191 225 -191 c 0
 151 -191 79 -174 18 -138 c 1
 35 -112 l 1
 76 -135 122 -152 171 -152 c 0
 221 -152 271 -138 306 -108 c 0
 353 -68 371 -11 371 44 c 0
 371 88 360 134 323 165 c 0
 298 186 263 193 229 193 c 0
 188 193 151 175 122 152 c 1
 95 162 l 1
 95 481 l 1
 516 481 l 1
EndSplineSet
EndChar

StartChar: u1D7D4.onum
Encoding: 1114155 -1 78
Width: 592
Flags: MW
HStem: -12 51<236.5 340.5> 319 67 646 58<438 439.5>
VStem: 48 124 450 96<187 187.5>
LayerCount: 2
Fore
SplineSet
537 625 m 1
 512 623 l 1
 486 638 455 646 424 646 c 0
 366 646 314 622 274 588 c 0
 239 558 216 519 200 479 c 0
 181 432 173 380 170 331 c 1
 180 328 l 1
 233 359 293 386 358 386 c 0
 404 386 450 375 483 347 c 0
 523 312 546 265 546 216 c 0
 546 158 513 105 465 64 c 0
 410 18 338 -12 261 -12 c 0
 212 -12 168 8 134 36 c 0
 67 93 48 174 48 253 c 0
 48 379 104 501 209 591 c 1
 286 655 383 704 493 704 c 0
 497 704 529 699 548 697 c 1
 537 625 l 1
173 286 m 1
 174 241 180 196 195 153 c 0
 206 122 222 91 249 68 c 0
 269 50 296 39 326 39 c 0
 355 39 387 47 408 64 c 0
 438 90 450 130 450 165 c 0
 450 210 430 254 393 286 c 0
 365 310 327 322 288 322 c 0
 247 322 213 311 173 286 c 1
EndSplineSet
EndChar

StartChar: u1D7D5.onum
Encoding: 1114156 -1 79
Width: 592
Flags: MW
HStem: -198 21<59 169 59 59> 375 104<433.5 438>
VStem: 54 538
LayerCount: 2
Fore
SplineSet
169 -198 m 1
 59 -198 l 1
 54 -175 l 1
 441 358 l 2
 443 361 444 363 444 366 c 0
 444 370 442 375 434 375 c 0
 433 375 191 369 70 365 c 1
 56 376 l 1
 86 479 l 1
 591 479 l 1
 591 456 l 1
 424 251 285 30 169 -198 c 1
EndSplineSet
EndChar

StartChar: u1D7D6.onum
Encoding: 1114157 -1 80
Width: 592
Flags: MW
HStem: -5 47 665 50
VStem: 45 114<172.5 184> 431 111<140.5 231>
LayerCount: 2
Fore
SplineSet
252 336 m 1
 227 325 204 310 188 290 c 0
 165 261 159 229 159 196 c 0
 159 149 181 103 220 70 c 0
 242 52 272 38 302 38 c 0
 334 38 369 43 392 63 c 0
 420 87 431 124 431 157 c 0
 431 197 405 233 372 261 c 0
 340 288 291 316 252 336 c 1
368 401 m 1
 403 381 450 353 471 335 c 0
 512 301 542 256 542 206 c 0
 542 152 514 102 469 64 c 0
 413 16 334 -5 254 -5 c 0
 198 -5 142 8 102 41 c 1
 65 73 45 116 45 161 c 0
 45 207 65 253 104 286 c 0
 138 315 180 338 225 357 c 1
 185 385 153 411 125 447 c 0
 104 473 88 502 88 533 c 0
 88 574 116 609 149 638 c 1
 192 674 247 696 304 715 c 1
 340 713 375 708 410 699 c 0
 434 693 458 685 476 669 c 0
 502 647 518 617 518 586 c 0
 518 550 502 517 479 487 c 0
 451 452 410 424 368 401 c 1
333 424 m 1
 381 452 406 503 406 551 c 0
 406 580 396 609 371 630 c 0
 345 653 310 670 275 676 c 1
 254 667 232 650 220 635 c 0
 205 617 198 592 198 570 c 0
 198 548 216 524 233 507 c 0
 262 476 294 450 333 424 c 1
EndSplineSet
EndChar

StartChar: u1D7D7.onum
Encoding: 1114158 -1 81
Width: 592
Flags: MW
HStem: -195 32 43 72 425 63
VStem: 29 122<257 266.5> 409 140<204.5 230>
LayerCount: 2
Fore
SplineSet
390 104 m 1
 360 83 315 62 283 53 c 0
 264 48 234 43 215 43 c 0
 168 43 129 67 96 95 c 0
 52 133 29 185 29 238 c 0
 29 295 47 353 95 394 c 0
 126 421 210 459 271 488 c 1
 340 488 410 474 459 432 c 0
 524 377 549 298 549 221 c 0
 549 108 518 -8 422 -90 c 0
 333 -165 209 -195 85 -195 c 1
 85 -164 l 1
 161 -159 238 -145 293 -98 c 0
 353 -48 391 26 397 98 c 1
 390 104 l 1
383 130 m 0
 393 139 399 151 402 163 c 1
 408 179 409 196 409 213 c 0
 409 247 405 282 393 314 c 0
 383 340 369 370 346 390 c 0
 322 410 290 435 258 446 c 1
 227 433 214 426 196 410 c 0
 182 398 167 370 161 354 c 1
 154 331 151 308 151 284 c 0
 151 230 182 179 228 141 c 0
 250 122 283 115 314 115 c 0
 338 115 365 115 383 130 c 0
EndSplineSet
EndChar

StartChar: uni003A
Encoding: 58 58 82
Width: 255
Flags: MW
HStem: -16 145<107.5 147> 334 144<107 147>
VStem: 55 144<386 426>
LayerCount: 2
Fore
SplineSet
127 478 m 0
 167 478 199 446 199 406 c 0
 199 366 167 334 127 334 c 0
 87 334 55 366 55 406 c 0
 55 446 87 478 127 478 c 0
127 129 m 0
 167 129 200 97 200 57 c 0
 200 17 167 -16 127 -16 c 0
 88 -16 55 17 55 57 c 0
 55 97 88 129 127 129 c 0
EndSplineSet
EndChar

StartChar: uni003B
Encoding: 59 59 83
Width: 255
Flags: MW
HStem: -190 289 343 116
VStem: 56 156
LayerCount: 2
Fore
SplineSet
126 479 m 0
 166 479 198 447 198 407 c 0
 198 367 166 334 126 334 c 0
 86 334 54 367 54 407 c 0
 54 447 86 479 126 479 c 0
103 -217 m 1
 76 -197 l 1
 79 -193 l 2
 99 -167 127 -125 136 -101 c 0
 141 -89 144 -73 144 -61 c 0
 144 -47 140 -33 132 -22 c 2
 62 61 l 2
 55 70 54 87 54 90 c 0
 54 106 69 122 80 130 c 0
 92 139 111 143 118 143 c 0
 129 143 148 134 156 124 c 0
 169 107 187 66 203 26 c 0
 209 9 211 -10 211 -27 c 0
 211 -53 200 -77 188 -98 c 0
 171 -130 149 -163 106 -214 c 1
 103 -217 l 1
EndSplineSet
EndChar

StartChar: uni003D
Encoding: 61 61 84
Width: 581
Flags: MW
HStem: 164 50<33 549 22 559> 299 50<33 549 22 559>
LayerCount: 2
Fore
SplineSet
549 299 m 1
 22 299 l 1
 33 349 l 1
 559 349 l 1
 549 299 l 1
549 164 m 1
 22 164 l 1
 33 214 l 1
 559 214 l 1
 549 164 l 1
EndSplineSet
EndChar

StartChar: uni003F
Encoding: 63 63 85
Width: 427
Flags: MW
HStem: -15 129 170 21 654 45
VStem: 95 147 312 111<550 564>
LayerCount: 2
Fore
SplineSet
169 121 m 0
 209 121 242 89 242 49 c 0
 242 9 209 -24 169 -24 c 0
 130 -24 97 9 97 49 c 0
 97 89 130 121 169 121 c 0
153 534 m 1
 75 489 l 1
 69 492 64 495 59 500 c 0
 43 513 39 533 39 552 c 0
 39 581 50 610 75 631 c 0
 125 674 192 699 263 699 c 0
 306 699 350 689 381 663 c 0
 408 640 423 609 423 577 c 0
 423 523 395 474 347 438 c 2
 217 338 l 2
 197 322 180 299 180 275 c 0
 180 255 190 239 208 224 c 1
 208 215 l 1
 138 168 l 1
 127 173 117 179 107 187 c 0
 91 201 83 220 83 240 c 0
 83 267 99 293 123 311 c 2
 243 398 l 2
 297 437 312 490 312 549 c 0
 312 579 299 609 273 631 c 0
 256 645 233 659 209 659 c 0
 184 659 158 652 140 637 c 0
 127 626 121 606 121 591 c 0
 121 575 129 559 141 546 c 2
 153 534 l 1
EndSplineSet
EndChar

StartChar: u1D56C
Encoding: 120172 120172 86
Width: 847
Flags: MW
HStem: -31 21<351 351> 77 82 624 64<214 348>
VStem: 29 103<496 555.5> 412 124<414 538> 583 131
LayerCount: 2
Fore
SplineSet
583 124 m 1
 351 -31 l 1
 324 -2 295 26 261 49 c 0
 240 63 218 73 191 73 c 0
 157 73 98 50 58 31 c 1
 36 48 l 1
 236 176 l 2
 263 193 288 212 312 232 c 0
 381 291 412 373 412 455 c 0
 412 504 385 550 344 584 c 0
 315 609 274 624 232 624 c 0
 196 624 174 617 154 600 c 0
 137 586 132 565 132 546 c 0
 132 534 138 523 145 513 c 0
 156 498 169 485 183 472 c 0
 199 458 215 444 227 427 c 0
 235 417 242 407 242 395 c 0
 242 365 220 339 196 318 c 0
 164 291 126 268 86 249 c 1
 67 264 l 1
 86 275 103 288 118 304 c 0
 127 315 136 327 136 341 c 0
 136 357 106 389 85 411 c 0
 69 427 55 444 43 463 c 1
 36 476 29 489 29 503 c 0
 29 531 45 559 75 586 c 0
 126 633 246 688 319 688 c 0
 377 688 435 673 477 638 c 1
 515 605 536 561 536 515 c 0
 536 446 511 379 476 317 c 1
 283 159 l 1
 308 159 333 150 355 138 c 0
 386 122 413 101 437 79 c 1
 474 88 534 125 579 153 c 1
 579 582 l 1
 753 687 l 1
 767 674 l 1
 716 623 l 1
 708 574 708 408 708 300 c 0
 708 260 709 219 712 179 c 1
 769 78 l 1
 822 99 l 1
 827 77 l 1
 774 42 723 4 668 -29 c 1
 656 -26 l 1
 583 124 l 1
EndSplineSet
EndChar

StartChar: u1D56D
Encoding: 120173 120173 87
Width: 1043
Flags: MW
HStem: -31 85<605.5 759.5> 621 64
VStem: 56 101<500.5 564.5> 390 134 827 124<131 238.5>
LayerCount: 2
Fore
SplineSet
906 100 m 1
 734 -11 l 1
 709 -24 672 -31 637 -31 c 0
 574 -31 513 -15 455 4 c 0
 397 23 337 41 274 41 c 0
 210 41 152 21 97 -9 c 1
 84 15 l 1
 223 92 l 2
 265 116 306 141 342 171 c 1
 362 189 381 212 387 235 c 0
 396 271 400 316 400 355 c 0
 400 392 400 431 393 467 c 0
 384 511 364 557 326 589 c 0
 302 609 274 627 239 627 c 0
 216 627 194 618 178 604 c 0
 164 592 157 573 157 556 c 0
 157 543 165 532 173 522 c 0
 186 504 202 488 219 472 c 0
 233 459 247 445 258 429 c 0
 265 419 272 408 272 396 c 0
 272 386 269 375 262 366 c 0
 253 353 239 340 227 330 c 0
 188 296 143 270 96 246 c 1
 76 259 l 1
 99 274 120 289 141 307 c 0
 153 317 160 331 160 346 c 0
 160 362 136 386 118 404 c 0
 100 421 84 440 72 461 c 0
 63 476 56 492 56 509 c 0
 56 538 96 579 126 604 c 0
 184 654 256 685 332 685 c 0
 412 685 474 636 505 577 c 1
 547 607 590 636 639 657 c 0
 673 672 709 685 747 685 c 0
 769 685 792 681 808 667 c 0
 823 655 836 607 844 575 c 0
 849 557 857 539 869 524 c 0
 877 515 887 505 902 505 c 0
 923 505 943 509 963 515 c 1
 963 491 l 1
 759 388 l 1
 759 383 l 1
 785 380 805 377 834 369 c 0
 858 362 881 353 899 338 c 0
 937 306 951 261 951 216 c 0
 951 171 935 137 906 100 c 1
500 241 m 1
 355 137 l 1
 438 135 519 114 596 88 c 0
 646 71 700 54 750 54 c 0
 769 54 788 59 801 70 c 0
 824 89 827 118 827 144 c 0
 827 192 814 243 774 277 c 0
 733 312 676 327 620 327 c 0
 587 327 555 323 524 316 c 1
 520 291 510 265 500 241 c 1
526 346 m 1
 609 365 700 392 778 433 c 1
 769 438 757 445 751 452 c 0
 744 460 738 469 736 478 c 0
 735 480 728 518 724 538 c 0
 719 562 713 589 695 605 c 0
 685 613 672 619 659 619 c 0
 634 619 612 610 593 598 c 0
 566 580 542 553 521 520 c 1
 527 490 528 462 528 419 c 0
 528 394 527 368 526 346 c 1
EndSplineSet
EndChar

StartChar: u1D56E
Encoding: 120174 120174 88
Width: 723
Flags: MW
HStem: -32 78 514 55 657 20
VStem: 71 128<327 337> 351 136<328 407.5>
LayerCount: 2
Fore
SplineSet
313 593 m 1
 338 568 l 1
 420 620 511 661 612 677 c 1
 620 641 631 605 662 579 c 0
 670 572 681 572 692 572 c 0
 700 572 718 575 729 578 c 1
 729 553 l 1
 702 542 624 513 589 513 c 0
 581 513 573 514 566 518 c 0
 556 524 545 531 538 540 c 0
 520 562 503 587 489 611 c 1
 480 609 472 606 466 601 c 0
 453 589 447 571 447 555 c 0
 447 538 458 506 468 481 c 0
 479 453 487 420 487 395 c 0
 487 363 481 329 454 306 c 0
 434 289 410 278 386 266 c 1
 349 250 310 236 271 223 c 1
 251 237 l 1
 276 244 296 259 314 274 c 0
 335 292 351 315 351 341 c 0
 351 373 344 404 335 435 c 0
 326 468 315 506 315 533 c 0
 315 542 316 549 319 555 c 1
 295 553 272 544 255 529 c 0
 234 512 222 489 213 465 c 0
 202 435 199 403 199 371 c 0
 199 283 226 194 300 131 c 0
 363 78 446 45 534 45 c 0
 555 45 579 46 596 54 c 2
 712 108 l 1
 716 81 l 1
 550 -22 l 1
 522 -28 494 -32 465 -32 c 0
 363 -32 259 -11 186 50 c 1
 107 118 71 212 71 306 c 0
 71 368 89 429 118 485 c 1
 139 501 242 562 313 593 c 1
EndSplineSet
EndChar

StartChar: u1D56F
Encoding: 120175 120175 89
Width: 981
Flags: MW
HStem: -29 21<545.5 569> 63 97 597 88<330.5 525.5>
VStem: 30 25<365 414.5> 246 127 780 116<260.5 411>
LayerCount: 2
Fore
SplineSet
413 549 m 1
 435 538 l 1
 408 516 373 486 373 463 c 0
 373 442 395 416 418 388 c 0
 432 372 455 346 467 328 c 0
 475 317 480 303 480 289 c 0
 480 264 467 241 446 223 c 0
 412 194 368 170 319 152 c 1
 380 142 498 110 580 88 c 0
 605 81 632 75 659 75 c 0
 684 75 704 88 721 103 c 1
 744 121 756 148 764 174 c 1
 776 208 780 243 780 278 c 0
 780 364 755 452 682 513 c 0
 647 543 602 562 555 575 c 0
 497 591 436 597 375 597 c 0
 286 597 194 580 129 526 c 1
 78 482 58 426 55 365 c 1
 30 372 l 1
 30 457 62 541 134 602 c 0
 170 633 217 651 266 663 c 0
 330 679 397 685 463 685 c 0
 588 685 716 660 805 584 c 0
 871 528 896 450 896 372 c 0
 896 296 868 212 818 141 c 1
 737 73 664 24 569 -29 c 1
 522 -29 468 -11 420 5 c 0
 342 31 245 63 181 63 c 0
 151 63 122 53 101 35 c 0
 82 19 64 3 48 -14 c 1
 31 5 l 1
 73 63 129 113 186 161 c 1
 219 161 251 162 283 168 c 0
 303 171 323 175 337 187 c 0
 351 199 357 215 357 232 c 0
 357 245 350 257 343 268 c 0
 331 286 317 302 303 317 c 0
 289 332 276 346 265 363 c 0
 258 373 252 384 252 396 c 0
 252 410 255 424 264 436 c 0
 276 453 289 467 306 481 c 0
 339 506 375 529 413 549 c 1
EndSplineSet
EndChar

StartChar: u1D570
Encoding: 120176 120176 90
Width: 782
Flags: MW
HStem: -29 83<399 557.5> 517 59 667 20
VStem: 73 122<327.5 335.5> 353 105
LayerCount: 2
Fore
SplineSet
614 461 m 1
 634 425 659 396 695 372 c 1
 695 360 l 1
 606 305 l 1
 594 312 581 318 562 331 c 2
 526 356 l 2
 522 359 516 362 511 362 c 0
 502 362 495 358 488 353 c 1
 481 338 471 326 458 315 c 0
 408 273 344 246 277 226 c 1
 255 240 l 1
 281 250 303 263 323 280 c 0
 340 294 354 312 354 333 c 0
 354 363 350 396 340 427 c 0
 331 455 325 478 318 506 c 0
 316 514 315 521 315 529 c 0
 315 542 317 555 321 567 c 1
 301 563 284 553 269 541 c 0
 217 496 195 434 195 371 c 0
 195 284 233 200 306 138 c 0
 364 89 440 54 522 54 c 0
 593 54 660 77 717 112 c 1
 717 85 l 1
 562 -18 l 1
 524 -25 485 -29 446 -29 c 0
 352 -29 255 -5 187 52 c 0
 108 119 73 211 73 305 c 0
 73 366 85 427 114 483 c 1
 174 526 240 564 307 599 c 1
 350 581 l 1
 429 628 518 661 610 687 c 1
 616 665 624 643 634 622 c 0
 642 607 649 597 662 586 c 0
 669 580 677 577 687 577 c 0
 700 577 720 581 733 584 c 1
 730 557 l 1
 688 544 600 517 599 517 c 0
 595 516 592 516 588 516 c 0
 584 516 579 516 576 518 c 0
 566 525 557 532 549 542 c 2
 490 618 l 1
 471 606 454 590 454 570 c 0
 454 542 462 504 473 474 c 0
 484 444 492 408 492 381 c 1
 614 461 l 1
EndSplineSet
EndChar

StartChar: u1D571
Encoding: 120177 120177 91
Width: 721
Flags: MW
HStem: -147 40<310.5 317> 169 61 596 88<199 303.5>
VStem: 123 112<-29 -0.5> 260 104<347.5 432> 468 112<17 105>
LayerCount: 2
Fore
SplineSet
438 299 m 1
 588 418 l 1
 619 393 638 361 658 324 c 1
 590 264 l 1
 582 276 570 292 562 299 c 0
 554 307 537 313 523 313 c 0
 502 313 475 296 456 280 c 1
 489 246 524 207 549 168 c 0
 565 144 580 119 580 91 c 0
 580 40 559 -10 516 -46 c 0
 450 -103 365 -147 269 -147 c 0
 231 -147 190 -140 162 -117 c 1
 131 -90 123 -51 123 -14 c 0
 123 13 127 35 132 61 c 0
 135 74 137 100 137 116 c 0
 137 131 134 145 121 156 c 0
 112 164 98 169 85 169 c 0
 68 169 40 156 21 146 c 1
 17 169 l 1
 49 187 82 204 117 216 c 0
 143 225 170 230 197 230 c 0
 216 230 228 225 241 215 c 1
 252 205 260 189 260 176 c 0
 260 154 258 131 252 107 c 0
 241 64 235 20 235 -16 c 0
 235 -42 241 -69 263 -88 c 1
 279 -100 300 -107 321 -107 c 0
 362 -107 401 -91 430 -66 c 0
 461 -40 468 -1 468 35 c 0
 468 74 413 136 373 182 c 0
 343 217 313 252 288 291 c 0
 274 312 260 335 260 360 c 0
 260 377 267 393 277 408 c 0
 289 427 306 445 325 461 c 0
 354 485 389 505 425 522 c 1
 356 554 262 596 210 596 c 0
 188 596 164 592 148 578 c 0
 112 548 95 507 85 465 c 1
 59 481 l 1
 73 539 98 596 148 638 c 0
 185 670 237 684 289 684 c 0
 318 684 346 677 372 669 c 0
 413 658 452 642 490 626 c 0
 533 608 595 581 621 581 c 0
 646 581 691 617 722 642 c 1
 734 626 l 1
 688 581 617 512 583 486 c 1
 543 488 498 499 461 510 c 1
 432 501 409 491 387 473 c 0
 372 460 364 441 364 423 c 0
 364 404 373 386 383 368 c 0
 398 343 417 321 438 299 c 1
EndSplineSet
EndChar

StartChar: u1D572
Encoding: 120178 120178 92
Width: 927
Flags: MW
HStem: -29 80 382 76 526 86 668 20
VStem: 74 117<269 415.5> 305 161 718 126<192.5 312>
LayerCount: 2
Fore
SplineSet
308 596 m 1
 343 584 l 1
 387 614 436 640 487 662 c 1
 509 650 l 1
 466 632 432 590 432 550 c 0
 432 521 449 453 463 406 c 1
 529 440 l 1
 643 526 l 1
 608 532 579 542 553 563 c 1
 540 575 529 596 524 612 c 1
 636 692 l 1
 644 671 651 649 669 634 c 0
 688 618 715 612 741 612 c 0
 753 612 783 620 806 631 c 1
 809 607 l 1
 737 558 672 511 605 458 c 1
 672 458 740 445 788 404 c 0
 824 374 844 333 844 291 c 0
 844 196 779 112 685 64 c 1
 535 -18 l 1
 500 -23 467 -27 439 -27 c 0
 348 -27 258 -2 195 54 c 0
 113 127 74 220 74 318 c 0
 74 354 79 391 88 426 c 0
 95 451 105 472 122 496 c 1
 184 535 246 568 308 596 c 1
293 214 m 1
 282 232 l 1
 298 238 310 244 325 256 c 1
 341 272 349 291 349 311 c 0
 349 324 338 381 328 413 c 0
 313 463 307 493 307 513 c 0
 307 532 308 552 320 568 c 1
 290 566 269 553 247 535 c 0
 205 499 191 440 191 391 c 0
 191 295 229 201 310 133 c 1
 369 82 447 49 532 49 c 0
 579 49 628 61 662 88 c 0
 702 119 718 169 718 216 c 0
 718 264 701 312 661 346 c 0
 628 374 580 389 534 389 c 0
 511 389 489 388 466 380 c 1
 468 369 469 357 469 345 c 0
 469 321 463 297 444 280 c 0
 427 266 406 255 385 246 c 0
 354 233 326 224 293 214 c 1
EndSplineSet
EndChar

StartChar: u1D573
Encoding: 120179 120179 93
Width: 850
Flags: MW
HStem: -127 58<476 548.5> 30 96 386 87 534 85<418.5 526.5> 664 20
VStem: 155 99<417 537.5> 288 101 627 126<139.5 272.5>
LayerCount: 2
Fore
SplineSet
354 127 m 1
 188 -18 l 1
 172 -3 154 11 135 22 c 0
 122 29 108 36 92 36 c 0
 59 36 25 6 16 -3 c 1
 0 15 l 1
 47 62 116 132 160 132 c 0
 202 132 236 103 259 76 c 1
 276 96 288 116 288 140 c 0
 288 174 247 241 216 289 c 0
 184 337 155 389 155 445 c 0
 155 470 169 493 184 514 c 0
 208 547 237 576 268 604 c 0
 301 634 344 659 384 684 c 1
 405 666 428 649 453 636 c 0
 470 627 489 619 509 619 c 0
 544 619 597 653 620 670 c 1
 634 652 l 1
 599 620 545 572 495 541 c 1
 480 537 464 534 448 534 c 0
 389 534 337 561 291 590 c 1
 271 572 254 550 254 525 c 0
 254 502 260 480 269 459 c 0
 283 424 302 388 322 357 c 1
 379 400 447 445 509 479 c 1
 573 479 657 456 695 434 c 0
 705 429 726 405 729 394 c 0
 749 336 753 303 753 242 c 0
 753 155 738 69 702 -12 c 0
 701 -12 595 -79 542 -112 c 0
 528 -120 512 -127 495 -127 c 0
 457 -127 423 -110 398 -87 c 1
 457 -17 l 1
 473 -16 l 1
 479 -30 489 -44 502 -54 c 0
 512 -62 524 -69 538 -69 c 0
 559 -69 575 -61 590 -49 c 0
 627 -18 627 101 627 178 c 0
 627 212 624 316 582 350 c 0
 556 372 521 388 484 388 c 0
 461 388 438 386 417 379 c 0
 399 372 374 360 336 331 c 1
 360 291 382 237 382 205 c 0
 382 178 375 147 354 127 c 1
EndSplineSet
EndChar

StartChar: u1D574
Encoding: 120180 120180 94
Width: 654
Flags: MW
HStem: -25 54 572 111
VStem: 418 128<169 262>
LayerCount: 2
Fore
SplineSet
614 670 m 1
 623 655 l 1
 562 607 490 557 418 522 c 1
 308 558 l 1
 275 567 242 576 207 576 c 0
 175 576 140 564 117 545 c 0
 90 522 71 492 53 463 c 1
 46 463 l 1
 31 477 l 1
 50 514 70 550 93 585 c 0
 108 607 124 629 145 646 c 0
 175 670 215 683 255 683 c 0
 293 683 344 664 387 649 c 0
 423 636 479 616 498 616 c 0
 517 616 532 621 549 629 c 0
 572 640 593 655 614 670 c 1
45 -16 m 1
 38 2 l 1
 85 50 143 98 197 140 c 1
 220 98 234 73 271 43 c 0
 284 32 302 28 320 28 c 0
 344 28 362 36 379 49 c 1
 394 62 404 87 410 105 c 0
 418 130 418 156 418 182 c 0
 418 192 410 257 406 294 c 0
 403 320 401 346 401 371 c 0
 401 392 402 413 405 433 c 1
 456 488 515 537 582 578 c 1
 607 568 l 1
 583 551 568 537 551 515 c 0
 539 499 528 475 528 455 c 0
 528 431 528 401 531 383 c 0
 539 335 546 286 546 238 c 0
 546 178 522 116 471 73 c 0
 406 17 329 -25 235 -25 c 0
 187 -25 143 -4 107 22 c 1
 45 -16 l 1
EndSplineSet
EndChar

StartChar: u1D575
Encoding: 120181 120181 95
Width: 652
Flags: MW
HStem: -142 36 76 73 579 102<188 283.5>
VStem: 125 117 424 115<-9.5 111>
LayerCount: 2
Fore
SplineSet
615 609 m 1
 615 586 l 1
 547 553 467 522 392 501 c 1
 364 513 323 538 317 542 c 0
 281 561 243 579 200 579 c 0
 176 579 148 572 132 558 c 0
 110 540 96 518 82 496 c 1
 64 510 l 1
 90 556 119 601 162 637 c 0
 192 663 232 681 275 681 c 0
 292 681 307 674 321 667 c 0
 345 656 367 643 389 629 c 0
 410 615 432 601 455 590 c 0
 469 584 484 579 500 579 c 0
 532 579 577 595 615 609 c 1
1 59 m 1
 -8 77 l 1
 22 97 54 116 89 130 c 0
 115 141 143 149 172 149 c 0
 192 149 213 144 228 131 c 0
 238 123 240 110 241 98 c 0
 242 92 242 31 242 -2 c 0
 242 -35 253 -67 280 -90 c 0
 292 -100 308 -107 324 -107 c 0
 350 -107 374 -100 392 -84 c 0
 418 -62 424 -25 424 6 c 0
 424 53 406 117 389 171 c 0
 374 217 364 264 364 311 c 0
 364 328 365 345 369 362 c 1
 419 424 478 479 547 526 c 1
 572 517 l 1
 526 477 490 429 489 372 c 0
 489 328 496 285 509 243 c 0
 524 191 539 138 539 84 c 0
 539 28 518 -27 471 -67 c 0
 419 -111 351 -142 277 -142 c 0
 240 -142 200 -139 173 -116 c 0
 143 -91 130 -57 125 -22 c 0
 120 7 113 51 101 61 c 0
 90 70 75 76 59 76 c 0
 39 76 19 68 1 59 c 1
EndSplineSet
EndChar

StartChar: u1D576
Encoding: 120182 120182 96
Width: 789
Flags: MW
HStem: -22 70 432 70<436.5 552> 620 62
VStem: 152 110<380 503.5> 545 115
LayerCount: 2
Fore
SplineSet
738 348 m 1
 541 283 l 1
 620 268 636 237 649 157 c 0
 656 116 676 90 694 78 c 0
 706 70 723 67 739 67 c 0
 764 67 786 78 806 91 c 1
 813 69 l 1
 782 43 749 18 712 -2 c 0
 689 -14 664 -26 637 -26 c 0
 620 -26 601 -25 589 -15 c 0
 556 14 544 54 538 93 c 0
 536 104 526 165 501 201 c 0
 493 212 472 230 428 230 c 0
 394 230 358 219 330 206 c 1
 332 193 333 181 333 169 c 0
 333 155 331 141 327 124 c 1
 284 78 233 31 176 -3 c 0
 162 -11 149 -17 137 -22 c 1
 99 -22 65 -8 44 8 c 0
 41 10 28 23 20 32 c 1
 106 117 l 1
 120 117 l 1
 128 97 137 78 155 63 c 0
 164 55 176 46 190 46 c 0
 200 46 212 48 219 54 c 0
 234 68 237 87 237 107 c 0
 237 141 213 198 196 240 c 0
 173 295 152 351 152 409 c 0
 152 439 165 468 182 494 c 0
 205 529 235 559 268 587 c 0
 337 646 430 682 528 682 c 0
 645 682 684 647 711 618 c 1
 713 608 714 599 714 588 c 0
 714 566 709 538 692 490 c 1
 672 484 l 1
 664 523 647 542 623 563 c 0
 577 602 511 625 447 625 c 0
 393 625 339 610 300 577 c 0
 273 553 262 520 262 487 c 0
 262 444 272 403 285 362 c 1
 326 401 370 437 422 466 c 0
 458 485 498 502 541 502 c 0
 563 502 585 498 601 485 c 1
 617 470 629 441 638 417 c 0
 644 399 650 382 660 373 c 0
 666 367 676 363 686 363 c 0
 698 363 710 363 732 369 c 1
 738 348 l 1
323 230 m 1
 354 244 425 276 501 289 c 1
 556 312 l 1
 543 321 527 348 521 367 c 1
 517 384 509 402 494 414 c 0
 483 423 470 432 455 432 c 0
 418 432 383 417 358 395 c 0
 334 375 314 343 300 314 c 1
 308 288 316 256 323 230 c 1
EndSplineSet
EndChar

StartChar: u1D577
Encoding: 120183 120183 97
Width: 786
Flags: MW
HStem: -28 110<550 591.5> 628 56<400 554>
VStem: 178 115<431.5 537.5> 538 125
LayerCount: 2
Fore
SplineSet
367 257 m 0
 343 228 299 185 251 153 c 1
 252 153 357 121 404 106 c 0
 460 89 520 82 580 82 c 0
 622 82 664 93 694 119 c 0
 723 143 736 177 745 211 c 1
 764 200 l 1
 754 160 742 119 725 81 c 0
 714 57 703 33 682 15 c 0
 652 -10 613 -28 570 -28 c 0
 477 -28 388 -5 303 25 c 0
 254 42 184 66 152 66 c 0
 133 66 114 60 100 49 c 1
 88 38 63 5 46 -18 c 1
 30 -5 l 1
 58 54 95 110 147 156 c 1
 158 162 172 165 188 165 c 0
 195 165 202 165 210 163 c 1
 225 167 246 175 257 184 c 0
 272 196 277 214 277 231 c 0
 277 253 240 309 216 346 c 0
 195 378 178 413 178 450 c 0
 178 475 189 500 204 522 c 0
 223 552 249 579 278 603 c 0
 345 660 440 684 534 684 c 0
 574 684 616 679 645 655 c 0
 658 643 662 628 665 612 c 0
 669 589 668 565 665 542 c 0
 663 529 662 521 662 508 c 0
 662 491 671 477 686 466 c 0
 692 461 731 461 749 461 c 1
 749 443 l 1
 577 394 l 1
 567 394 556 395 548 401 c 1
 535 413 527 428 527 444 c 0
 527 458 531 470 533 484 c 0
 535 501 538 532 538 536 c 0
 538 559 530 582 511 598 c 0
 486 619 451 628 416 628 c 0
 384 628 351 620 328 601 c 0
 304 580 293 552 293 523 c 0
 293 483 311 445 330 408 c 0
 344 382 356 355 364 326 c 0
 369 311 372 295 372 279 c 0
 372 274 371 262 367 257 c 0
EndSplineSet
EndChar

StartChar: u1D578
Encoding: 120184 120184 98
Width: 1239
Flags: MW
HStem: -26 20 28 92 620 62
VStem: 26 98 134 106<331 404.5> 400 116 711 114 964 115
LayerCount: 2
Fore
SplineSet
1223 76 m 1
 1044 -33 l 1
 964 78 l 1
 964 183 964 315 970 367 c 1
 1003 415 1033 444 1071 470 c 1
 1059 473 1053 475 1045 487 c 0
 1036 501 1023 527 1014 549 c 0
 1007 567 998 585 985 597 c 0
 975 605 962 612 948 612 c 0
 924 612 899 607 879 596 c 0
 854 582 839 570 819 551 c 1
 824 523 827 479 827 450 c 0
 827 343 813 234 758 137 c 1
 588 -28 l 1
 575 -16 560 -4 543 5 c 0
 532 11 520 17 506 17 c 0
 488 17 470 12 457 1 c 2
 441 -13 l 1
 424 2 l 1
 449 30 490 73 502 84 c 0
 521 101 546 117 575 117 c 0
 600 117 632 93 652 76 c 1
 679 110 688 148 697 188 c 0
 710 247 711 312 711 371 c 0
 711 411 708 451 696 490 c 0
 687 517 675 544 652 564 c 0
 638 576 620 587 600 587 c 0
 585 587 572 583 559 577 c 1
 543 568 527 556 509 542 c 1
 517 511 523 480 523 448 c 0
 523 341 489 227 436 130 c 1
 217 -25 l 1
 204 -10 189 4 172 14 c 0
 158 22 143 28 127 28 c 0
 107 28 88 23 73 11 c 0
 63 3 49 -9 43 -15 c 1
 28 0 l 1
 57 32 94 72 119 92 c 1
 142 112 173 123 205 123 c 0
 221 123 235 116 247 108 c 0
 265 97 282 80 295 64 c 1
 309 74 321 83 330 92 c 0
 358 117 369 152 380 187 c 0
 395 238 400 291 400 344 c 0
 400 390 396 438 382 483 c 0
 371 515 355 549 327 573 c 0
 296 600 257 619 211 619 c 0
 190 619 160 618 144 604 c 0
 131 593 121 581 121 565 c 0
 121 548 157 506 182 480 c 0
 225 437 240 413 240 396 c 0
 240 367 219 341 195 320 c 0
 160 291 121 269 79 248 c 1
 61 265 l 1
 82 275 99 285 114 300 c 0
 124 311 134 324 134 338 c 0
 134 358 106 392 84 414 c 0
 58 440 26 477 26 503 c 0
 26 521 38 538 49 554 c 0
 67 578 90 599 114 619 c 0
 167 664 251 686 302 686 c 0
 350 686 406 671 441 642 c 0
 465 622 487 595 499 568 c 1
 529 591 561 612 597 627 c 0
 623 638 652 647 682 647 c 0
 717 647 750 635 775 615 c 1
 788 603 798 590 808 577 c 1
 844 607 884 635 929 655 c 0
 965 671 1003 683 1044 683 c 0
 1059 683 1075 681 1087 671 c 0
 1097 662 1112 634 1121 616 c 0
 1129 600 1138 584 1152 572 c 0
 1161 563 1173 558 1186 558 c 0
 1202 558 1217 561 1232 566 c 1
 1232 548 l 1
 1184 523 1159 507 1116 476 c 0
 1111 472 1091 448 1088 437 c 0
 1079 401 1079 376 1079 340 c 0
 1079 285 1081 230 1093 176 c 0
 1097 157 1103 139 1111 121 c 0
 1117 108 1121 103 1132 94 c 0
 1139 88 1152 85 1162 85 c 0
 1171 85 1203 87 1223 94 c 1
 1223 76 l 1
EndSplineSet
EndChar

StartChar: u1D579
Encoding: 120185 120185 99
Width: 982
Flags: MW
HStem: -30 87 614 65
VStem: 26 93 429 113<207 361.5> 713 112
LayerCount: 2
Fore
SplineSet
860 476 m 0
 855 472 835 448 832 437 c 0
 823 401 823 376 823 340 c 0
 823 285 825 230 837 176 c 0
 841 157 847 139 855 121 c 0
 861 108 865 103 876 94 c 0
 883 88 896 85 906 85 c 0
 915 85 947 87 967 94 c 1
 967 76 l 1
 788 -33 l 1
 708 78 l 1
 708 183 708 315 714 367 c 1
 747 415 777 446 815 472 c 1
 801 472 789 479 780 487 c 0
 767 499 757 514 751 529 c 0
 741 554 726 586 710 600 c 1
 699 608 686 614 672 614 c 0
 647 614 619 598 600 584 c 0
 564 556 543 534 518 501 c 1
 534 453 542 388 542 335 c 0
 542 263 529 191 498 125 c 1
 293 -18 l 1
 284 -22 270 -28 264 -28 c 0
 213 -28 171 -1 136 29 c 1
 224 123 l 1
 243 123 l 1
 248 109 263 90 281 74 c 1
 295 63 313 57 333 57 c 0
 358 57 379 71 397 85 c 1
 412 98 416 116 420 134 c 0
 427 163 429 192 429 222 c 0
 429 292 421 362 398 430 c 0
 381 481 355 530 311 568 c 0
 280 594 241 615 196 615 c 0
 175 615 152 612 136 599 c 0
 124 588 117 575 117 560 c 0
 117 545 126 530 134 517 c 0
 148 497 165 479 183 461 c 0
 197 448 210 434 220 418 c 0
 227 408 230 397 230 385 c 0
 230 359 213 339 193 320 c 0
 161 289 123 265 82 242 c 1
 60 258 l 1
 78 269 95 282 108 297 c 0
 117 308 125 320 125 334 c 0
 125 354 106 373 89 389 c 0
 71 407 55 425 43 445 c 0
 34 460 26 475 26 492 c 0
 26 512 35 531 46 549 c 0
 62 573 81 595 105 613 c 0
 157 652 227 681 300 681 c 0
 349 681 398 666 433 636 c 0
 466 608 490 573 503 535 c 1
 525 557 547 578 571 598 c 0
 621 641 683 678 756 678 c 0
 781 678 809 675 827 659 c 0
 838 650 851 623 863 595 c 0
 868 582 877 571 888 561 c 1
 894 554 901 548 911 548 c 0
 929 548 947 551 963 557 c 1
 968 542 l 1
 939 529 902 505 860 476 c 0
EndSplineSet
EndChar

StartChar: u1D57A
Encoding: 120186 120186 100
Width: 976
Flags: MW
HStem: -29 79 577 101 706 20<393 418 418 418>
VStem: 87 118 217 111 752 129<335 347>
LayerCount: 2
Fore
SplineSet
296 608 m 0
 296 632 300 643 331 668 c 1
 349 681 383 713 393 726 c 1
 418 726 l 1
 412 717 407 707 407 696 c 0
 407 687 417 681 427 679 c 0
 439 676 496 674 530 672 c 0
 586 669 642 662 695 648 c 1
 735 636 774 621 804 595 c 0
 833 571 849 540 861 508 c 0
 876 466 881 422 881 378 c 0
 881 292 852 208 800 134 c 1
 743 83 683 46 615 13 c 0
 567 -10 515 -29 460 -29 c 0
 396 -29 334 -11 273 8 c 0
 232 21 183 36 148 36 c 0
 101 36 62 11 32 -18 c 1
 11 4 l 1
 100 114 l 1
 135 122 170 131 195 152 c 0
 210 164 217 181 217 199 c 0
 217 218 209 236 200 254 c 0
 186 280 169 304 148 330 c 0
 122 362 98 404 97 434 c 1
 97 478 174 551 247 591 c 1
 261 577 l 1
 235 559 205 535 205 500 c 0
 205 484 230 433 252 402 c 1
 276 370 292 343 311 309 c 0
 316 300 321 286 321 276 c 0
 321 254 314 235 300 216 c 0
 277 186 244 154 212 133 c 1
 234 133 253 131 282 124 c 0
 340 110 399 93 455 74 c 0
 504 57 537 47 602 47 c 0
 628 47 653 62 672 76 c 0
 704 101 720 142 732 177 c 1
 747 226 752 277 752 327 c 0
 752 367 747 408 734 446 c 0
 723 476 708 505 682 527 c 0
 658 547 626 556 594 563 c 0
 548 573 520 576 472 576 c 0
 447 576 425 575 404 573 c 0
 389 572 374 572 360 572 c 0
 314 572 296 598 296 608 c 0
EndSplineSet
EndChar

StartChar: u1D57B
Encoding: 120187 120187 101
Width: 977
Flags: W
HStem: -20 21G<624 661.5> 612 69 619 66<185 318>
VStem: 369 125<173 369 369 390.5> 679 110<303 406>
LayerCount: 2
Fore
SplineSet
508 -141 m 1xd8
 370 -223 l 1
 343 -209 l 1
 355 -174 359 -139 363 -104 c 0
 368 -52 370 2 370 54 c 1
 343 65 310 76 284 76 c 0
 247 76 217 58 192 36 c 0
 174 21 156 6 141 -12 c 1
 126 7 l 1
 158 54 196 111 233 142 c 0
 258 163 290 179 326 179 c 0
 338 179 352 178 369 173 c 1
 369 369 l 2
 369 412 363 456 348 497 c 0
 336 530 319 561 291 585 c 0
 267 605 238 619 204 619 c 0
 166 619 146 607 133 597 c 0
 118 584 111 567 111 548 c 0
 111 536 121 522 129 512 c 0
 142 496 155 480 171 466 c 0
 197 442 223 407 223 386 c 0
 223 375 222 365 216 356 c 0
 208 342 200 328 188 317 c 0
 152 285 113 260 69 235 c 1
 53 254 l 1
 72 266 82 275 96 292 c 0
 106 304 114 318 114 333 c 0
 114 349 87 379 68 400 c 0
 54 415 37 429 26 446 c 0
 19 455 19 469 19 481 c 0
 19 504 30 525 43 545 c 0
 61 572 85 596 110 618 c 0
 155 656 214 685 291 685 c 0xb8
 345 685 388 668 425 637 c 0
 449 617 473 584 485 557 c 1
 527 593 573 628 625 651 c 0
 664 668 706 681 749 681 c 0
 770 681 792 679 807 666 c 0
 822 654 828 624 831 601 c 0
 834 581 842 562 856 545 c 0
 866 534 879 523 896 523 c 0
 909 523 926 527 937 530 c 1
 944 511 l 1
 899 491 855 470 818 442 c 0
 803 430 789 415 789 397 c 0
 789 365 807 336 827 309 c 0
 850 278 881 235 881 205 c 0
 881 181 876 157 862 136 c 0
 838 101 814 73 779 42 c 0
 759 24 737 6 712 -5 c 0
 693 -14 672 -20 651 -20 c 0
 597 -20 542 -2 494 19 c 1
 494 -35 499 -87 508 -141 c 1xd8
494 518 m 1
 494 142 l 1
 669 79 l 2
 695 70 719 62 746 62 c 0
 758 62 770 66 778 73 c 0
 790 83 794 95 794 109 c 0
 794 124 786 143 778 156 c 0
 766 177 752 196 736 215 c 0
 709 247 679 291 679 315 c 0
 679 334 688 352 702 367 c 0
 727 395 756 420 786 443 c 1
 767 446 747 452 738 460 c 0
 731 466 715 482 715 522 c 0
 715 537 713 552 709 566 c 0
 706 576 702 586 694 593 c 0
 680 605 662 612 643 612 c 0xd8
 606 612 574 595 548 573 c 0
 538 564 513 540 494 518 c 1
EndSplineSet
EndChar

StartChar: u1D57C
Encoding: 120188 120188 102
Width: 976
Flags: MW
HStem: -82 21 36 94 577 99 706 20<393 418 418 418>
VStem: 217 111 752 129<335 347>
LayerCount: 2
Fore
SplineSet
716 66 m 1
 736 48 755 33 779 19 c 1
 795 11 812 2 831 2 c 0
 860 2 889 9 917 18 c 1
 917 -3 l 1
 864 -31 810 -58 754 -82 c 1
 694 -60 637 -34 585 1 c 1
 549 -16 501 -29 460 -29 c 0
 396 -29 334 -11 273 8 c 0
 232 21 183 36 148 36 c 0
 101 36 62 11 32 -18 c 1
 11 4 l 1
 100 114 l 1
 135 122 170 131 195 152 c 0
 210 164 217 181 217 199 c 0
 217 218 209 236 200 254 c 0
 186 280 169 304 148 330 c 0
 122 362 98 404 97 434 c 1
 97 478 174 551 247 591 c 1
 261 577 l 1
 235 559 205 535 205 500 c 0
 205 484 230 433 252 402 c 1
 276 370 292 343 311 309 c 0
 316 300 321 286 321 276 c 0
 321 254 314 235 300 216 c 0
 277 186 244 154 212 133 c 1
 234 133 253 131 282 124 c 0
 340 110 399 93 455 74 c 0
 504 57 537 47 602 47 c 0
 628 47 653 62 672 76 c 0
 704 101 720 142 732 177 c 1
 747 226 752 277 752 327 c 0
 752 367 747 408 734 446 c 0
 723 476 708 505 682 527 c 0
 658 547 626 556 594 563 c 0
 548 573 520 576 472 576 c 0
 447 576 425 575 404 573 c 0
 389 572 374 572 360 572 c 0
 314 572 296 598 296 608 c 0
 296 632 300 643 331 668 c 1
 349 681 383 713 393 726 c 1
 418 726 l 1
 412 717 407 707 407 696 c 0
 407 687 417 681 427 679 c 0
 439 676 496 674 530 672 c 0
 586 669 642 662 695 648 c 1
 735 636 774 621 804 595 c 0
 833 571 849 540 861 508 c 0
 876 466 881 422 881 378 c 0
 881 292 852 208 800 134 c 1
 778 110 744 86 716 66 c 1
EndSplineSet
EndChar

StartChar: u1D57D
Encoding: 120189 120189 103
Width: 977
Flags: MW
HStem: -29 21<807 807> 28 96<129.5 212.5> 619 71
VStem: 130 114 397 125<357 357> 718 116
LayerCount: 2
Fore
SplineSet
205 619 m 0
 176 619 146 607 133 597 c 0
 118 584 111 567 111 548 c 0
 111 536 121 522 129 512 c 0
 142 496 155 480 171 466 c 0
 197 442 223 407 223 386 c 0
 223 375 222 365 216 356 c 0
 208 342 200 328 188 317 c 0
 152 285 113 260 69 235 c 1
 53 254 l 1
 72 266 82 275 96 292 c 0
 106 304 114 318 114 333 c 0
 114 349 87 379 68 400 c 0
 54 415 37 429 26 446 c 0
 19 455 19 469 19 481 c 0
 19 504 30 525 43 545 c 0
 61 572 85 596 110 618 c 0
 155 656 219 689 297 689 c 0
 360 689 406 670 447 635 c 0
 473 613 497 583 508 554 c 1
 543 589 585 626 630 652 c 0
 663 670 700 685 739 685 c 0
 765 685 789 678 807 662 c 1
 828 645 832 614 835 588 c 0
 838 565 841 535 856 522 c 0
 868 512 885 510 901 510 c 0
 912 510 927 511 938 515 c 1
 944 502 l 1
 851 466 798 440 734 401 c 1
 768 397 807 379 828 356 c 1
 828 298 829 229 835 193 c 0
 839 171 847 148 860 130 c 0
 872 114 884 100 899 87 c 0
 906 81 921 81 933 81 c 0
 947 81 962 88 976 95 c 1
 977 72 l 1
 807 -29 l 1
 784 17 750 63 718 108 c 1
 718 154 718 226 715 247 c 0
 713 265 706 292 691 306 c 1
 671 322 652 335 625 340 c 0
 610 343 594 344 579 344 c 0
 559 344 539 337 520 329 c 1
 509 261 490 211 453 150 c 1
 223 -28 l 1
 172 13 l 2
 162 21 149 28 136 28 c 0
 123 28 112 25 101 19 c 0
 85 10 72 -3 60 -18 c 1
 44 -2 l 1
 89 51 157 124 202 124 c 0
 223 124 236 117 246 110 c 0
 265 97 282 82 298 67 c 1
 311 76 324 86 336 96 c 0
 365 120 374 155 381 189 c 1
 394 244 397 300 397 357 c 0
 397 400 391 443 376 485 c 1
 363 518 342 550 312 576 c 0
 284 600 250 619 205 619 c 0
778 458 m 1
 764 458 748 464 737 474 c 0
 723 487 717 515 714 538 c 0
 711 561 705 593 693 603 c 0
 684 611 673 618 660 618 c 0
 631 618 606 604 586 587 c 0
 558 562 542 544 522 514 c 1
 525 497 525 467 525 450 c 0
 525 419 524 391 522 358 c 1
 565 376 626 401 678 405 c 1
 778 458 l 1
EndSplineSet
EndChar

StartChar: u1D57E
Encoding: 120190 120190 104
Width: 978
Flags: MW
HStem: -31 72<400 605.5> 322 84<618 762.5> 490 94<652 791.5> 610 75
VStem: 82 119<341.5 362> 270 110<362 439> 822 84<181.5 281>
LayerCount: 2
Fore
SplineSet
594 513 m 2
 463 580 l 2
 435 594 405 610 374 610 c 0
 339 610 306 596 282 576 c 0
 224 527 201 458 201 389 c 0
 201 294 232 197 313 129 c 0
 380 72 471 41 566 41 c 0
 645 41 725 59 781 107 c 0
 809 131 822 165 822 198 c 0
 822 230 806 261 779 283 c 0
 743 314 690 322 640 322 c 0
 596 322 554 314 512 305 c 0
 470 297 401 283 387 283 c 0
 354 283 321 290 298 310 c 0
 278 327 270 350 270 374 c 0
 270 411 293 444 324 470 c 0
 352 494 391 507 427 515 c 1
 440 501 l 1
 429 497 419 489 410 482 c 0
 393 468 380 449 380 429 c 0
 380 413 385 398 398 387 c 0
 416 372 444 372 468 372 c 0
 516 372 562 377 608 385 c 0
 653 392 696 406 741 406 c 0
 784 406 828 396 859 370 c 0
 892 341 906 301 906 261 c 0
 906 192 862 132 805 84 c 0
 711 4 580 -31 449 -31 c 0
 351 -31 257 1 188 60 c 0
 112 124 82 211 82 312 c 0
 82 412 127 496 208 565 c 1
 286 630 372 656 495 685 c 1
 539 669 580 648 623 630 c 0
 673 609 733 584 779 584 c 0
 804 584 825 591 843 606 c 0
 860 620 867 634 876 653 c 1
 901 639 l 1
 889 608 867 580 840 557 c 0
 807 529 765 510 720 499 c 0
 702 495 684 490 665 490 c 0
 639 490 616 502 594 513 c 2
EndSplineSet
EndChar

StartChar: u1D57F
Encoding: 120191 120191 105
Width: 789
Flags: MW
HStem: -30 21<522.5 549> 42 91 585 96
VStem: 30 69 284 118 436 113<171 261.5>
LayerCount: 2
Fore
SplineSet
798 659 m 1
 677 541 l 1
 648 532 617 528 585 528 c 0
 543 528 487 536 446 543 c 1
 414 515 398 494 398 458 c 0
 398 442 406 422 417 409 c 0
 432 390 449 370 467 353 c 0
 501 321 549 276 549 247 c 0
 549 212 480 156 433 120 c 1
 481 101 550 74 588 74 c 0
 607 74 626 80 643 88 c 1
 671 99 695 115 719 131 c 1
 730 107 l 1
 675 57 613 12 549 -30 c 1
 496 -30 446 -12 399 8 c 0
 360 24 314 42 276 42 c 0
 258 42 239 42 225 37 c 0
 189 24 166 7 137 -15 c 1
 125 3 l 1
 182 54 244 100 316 135 c 1
 346 135 378 134 407 127 c 1
 425 142 436 160 436 182 c 0
 436 206 394 248 364 276 c 0
 345 294 327 313 311 333 c 0
 300 347 291 362 286 378 c 1
 318 441 362 500 420 549 c 1
 345 563 229 586 196 586 c 0
 169 586 134 583 115 567 c 0
 102 556 97 540 97 526 c 0
 97 487 132 458 169 437 c 1
 171 427 l 1
 88 359 l 1
 56 384 30 417 30 455 c 0
 30 506 61 553 103 590 c 1
 166 643 247 680 337 680 c 0
 374 680 461 666 522 655 c 1
 571 648 621 641 672 641 c 0
 718 641 766 664 798 691 c 1
 798 659 l 1
EndSplineSet
EndChar

StartChar: u1D580
Encoding: 120192 120192 106
Width: 850
Flags: MW
HStem: -34 97<395.5 502.5> 669 20<333 333>
VStem: 156 123 594 120<349.5 388>
LayerCount: 2
Fore
SplineSet
363 249 m 1
 325 207 268 146 238 128 c 1
 264 124 332 102 374 87 c 0
 410 74 453 63 487 63 c 0
 518 63 542 81 564 99 c 1
 578 112 586 129 587 146 c 0
 591 213 594 280 594 347 c 0
 594 429 589 511 581 593 c 1
 648 617 709 650 768 685 c 1
 785 670 l 1
 760 646 l 1
 735 620 726 586 722 553 c 0
 715 495 714 438 714 380 c 0
 714 319 715 259 719 198 c 0
 720 180 721 176 734 146 c 0
 743 125 756 102 770 87 c 1
 777 78 789 74 803 74 c 0
 817 74 846 84 867 92 c 1
 871 72 l 1
 671 -39 l 1
 600 84 l 1
 473 -21 l 1
 454 -32 432 -34 418 -34 c 0
 373 -34 329 -20 289 -4 c 0
 237 17 173 38 124 38 c 0
 106 38 80 30 34 -12 c 1
 16 8 l 1
 122 117 l 1
 154 122 193 132 209 142 c 0
 227 153 260 180 270 207 c 1
 273 218 274 233 274 244 c 0
 274 264 268 284 259 304 c 0
 248 331 232 357 215 382 c 0
 189 421 156 472 156 504 c 0
 156 511 156 520 158 526 c 1
 173 551 221 606 262 640 c 0
 283 658 307 674 333 689 c 1
 356 673 l 1
 340 663 325 651 310 639 c 0
 293 625 280 607 280 586 c 0
 280 549 296 513 315 479 c 0
 338 439 356 396 365 352 c 0
 369 335 371 318 371 301 c 0
 371 283 369 266 363 249 c 1
EndSplineSet
EndChar

StartChar: u1D581
Encoding: 120193 120193 107
Width: 981
Flags: MW
HStem: -29 85 86 86 598 87<619 734.5>
VStem: 133 114 378 127 725 149<187 362.5>
LayerCount: 2
Fore
SplineSet
303 687 m 0
 355 687 396 674 429 646 c 0
 461 619 486 577 495 539 c 1
 537 579 582 620 632 650 c 0
 661 667 692 685 726 685 c 0
 743 685 760 680 776 675 c 0
 798 667 819 656 839 644 c 0
 859 632 888 615 903 615 c 0
 924 615 944 618 964 629 c 1
 966 604 l 1
 948 594 932 582 917 569 c 0
 880 538 845 500 845 454 c 0
 845 427 845 396 850 373 c 2
 867 278 l 2
 871 256 874 233 874 210 c 0
 874 164 858 122 818 90 c 0
 771 51 712 8 692 -3 c 0
 665 -18 636 -29 602 -29 c 0
 576 -29 551 -21 526 -13 c 0
 486 0 448 16 410 33 c 0
 377 48 344 62 309 73 c 0
 287 80 265 86 242 86 c 0
 219 86 197 79 177 70 c 0
 149 58 123 42 100 24 c 1
 87 42 l 1
 137 84 196 124 253 163 c 1
 283 170 308 185 330 203 c 0
 350 220 359 244 365 268 c 0
 375 304 378 342 378 379 c 0
 378 421 373 463 359 503 c 0
 348 534 332 564 305 587 c 0
 280 608 251 624 212 624 c 0
 182 624 152 607 139 597 c 0
 124 584 117 567 117 548 c 0
 117 536 127 522 135 512 c 0
 148 496 161 480 177 466 c 0
 203 442 229 407 229 386 c 0
 229 375 228 365 222 356 c 0
 214 342 206 328 194 317 c 0
 158 285 119 260 75 235 c 1
 59 254 l 1
 78 266 88 275 102 292 c 0
 112 304 120 318 120 333 c 0
 120 349 93 379 74 400 c 0
 60 415 43 429 32 446 c 0
 25 455 25 469 25 481 c 0
 25 504 36 525 49 545 c 0
 67 572 91 596 116 618 c 0
 161 656 225 687 303 687 c 0
462 262 m 1
 345 174 l 1
 386 173 488 128 558 99 c 0
 605 79 663 55 706 55 c 0
 719 55 735 59 744 67 c 0
 754 75 757 89 757 101 c 0
 757 118 755 139 752 157 c 2
 729 286 l 2
 725 307 725 327 725 348 c 0
 725 377 725 419 737 434 c 0
 764 465 799 497 832 527 c 1
 792 527 756 543 723 562 c 0
 695 579 661 598 630 598 c 0
 608 598 590 584 575 571 c 0
 547 549 525 522 505 495 c 1
 506 481 507 466 507 452 c 0
 507 387 495 322 462 262 c 1
EndSplineSet
EndChar

StartChar: u1D582
Encoding: 120194 120194 108
Width: 1235
Flags: MW
HStem: -31 73 617 66
VStem: 133 103 394 128 699 107 1022 120
LayerCount: 2
Fore
SplineSet
219 617 m 0
 190 617 158 607 145 597 c 0
 130 584 123 567 123 548 c 0
 123 536 133 522 141 512 c 0
 154 496 167 480 183 466 c 0
 209 442 235 407 235 386 c 0
 235 375 234 365 228 356 c 0
 220 342 212 328 200 317 c 0
 164 285 125 260 81 235 c 1
 65 254 l 1
 84 266 94 275 108 292 c 0
 118 304 126 318 126 333 c 0
 126 349 99 379 80 400 c 0
 66 415 49 429 38 446 c 0
 31 455 31 469 31 481 c 0
 31 504 42 525 55 545 c 0
 73 572 97 596 122 618 c 0
 167 656 231 682 307 682 c 0
 370 682 418 663 458 629 c 0
 482 609 499 583 510 556 c 1
 574 601 621 632 688 670 c 1
 723 651 748 622 789 560 c 1
 826 592 867 625 911 651 c 1
 939 666 967 682 1001 682 c 0
 1038 682 1071 666 1102 649 c 0
 1132 633 1164 616 1200 616 c 0
 1211 616 1230 623 1240 628 c 1
 1239 603 l 1
 1203 577 1156 542 1127 505 c 0
 1109 483 1103 458 1103 431 c 0
 1103 408 1113 369 1121 338 c 0
 1132 296 1142 257 1142 214 c 0
 1142 192 1140 171 1135 149 c 0
 1131 134 1126 120 1115 108 c 1
 934 -15 l 1
 910 -23 886 -28 861 -28 c 0
 826 -28 786 -14 751 -3 c 0
 693 16 635 32 574 39 c 1
 532 20 487 -3 448 -25 c 1
 438 -29 426 -30 413 -30 c 0
 361 -30 313 -10 268 13 c 0
 236 29 201 45 169 45 c 0
 148 45 129 39 112 30 c 1
 88 19 67 3 47 -14 c 1
 34 8 l 1
 85 56 143 98 201 140 c 1
 255 140 291 154 323 181 c 0
 350 204 365 234 376 265 c 0
 390 307 394 351 394 394 c 0
 394 461 379 530 322 578 c 0
 295 602 262 617 219 617 c 0
435 206 m 1
 300 131 l 1
 316 126 367 105 399 89 c 0
 435 71 475 55 518 55 c 0
 525 55 532 57 539 60 c 0
 570 74 606 90 626 110 c 0
 653 137 674 167 684 201 c 0
 699 251 699 297 699 349 c 0
 699 391 696 434 685 475 c 0
 677 503 667 530 643 551 c 0
 628 563 611 573 593 582 c 1
 563 564 540 546 519 529 c 1
 522 515 523 481 523 467 c 0
 523 374 501 282 435 206 c 1
764 212 m 1
 736 175 714 150 688 130 c 1
 736 130 826 98 888 76 c 0
 916 66 945 56 976 56 c 0
 989 56 1001 62 1010 68 c 0
 1022 76 1027 89 1027 120 c 0
 1027 154 1014 216 1002 260 c 0
 990 301 982 341 982 380 c 0
 982 399 984 422 1036 466 c 1
 1104 527 l 2
 1102 526 1090 526 1080 526 c 0
 1057 526 1016 546 999 559 c 0
 978 575 929 587 910 587 c 0
 890 587 868 584 851 575 c 1
 830 562 816 550 800 532 c 1
 809 496 814 451 814 414 c 0
 814 344 794 277 764 212 c 1
EndSplineSet
EndChar

StartChar: u1D583
Encoding: 120195 120195 109
Width: 849
Flags: MW
HStem: -32 81<136.5 229> 315 51<353.5 376 489 497> 581 100
VStem: 376 109
LayerCount: 2
Fore
SplineSet
835 578 m 1
 704 514 l 1
 656 531 621 564 595 601 c 1
 519 543 489 508 489 366 c 1
 554 366 635 366 683 370 c 1
 619 312 l 1
 576 315 510 315 484 315 c 1
 484 236 504 155 571 98 c 0
 601 72 644 60 687 60 c 0
 719 60 762 76 797 90 c 1
 797 66 l 1
 751 39 708 7 665 -25 c 1
 642 -32 604 -35 601 -35 c 0
 560 -35 521 -21 492 3 c 0
 474 18 461 37 449 55 c 1
 433 82 420 111 409 139 c 1
 351 85 289 33 216 -7 c 0
 196 -18 168 -32 152 -32 c 0
 121 -32 70 -2 32 21 c 1
 113 102 l 1
 130 87 149 73 171 63 c 1
 186 55 203 49 222 49 c 0
 236 49 250 53 262 59 c 0
 280 68 296 80 311 92 c 0
 337 115 350 148 359 178 c 0
 372 223 376 269 376 315 c 1
 306 315 219 315 167 312 c 1
 232 368 l 1
 273 366 329 366 378 366 c 1
 378 404 376 443 366 481 c 0
 359 505 349 527 328 545 c 0
 307 563 281 578 251 578 c 0
 214 578 183 567 158 545 c 2
 117 508 l 1
 99 528 l 1
 152 582 211 632 272 680 c 1
 323 675 374 663 411 632 c 0
 445 603 471 566 476 525 c 1
 501 555 530 582 560 608 c 0
 599 641 647 665 699 682 c 1
 713 652 728 622 755 600 c 0
 765 591 780 590 794 590 c 0
 808 590 824 594 835 597 c 1
 835 578 l 1
EndSplineSet
EndChar

StartChar: u1D584
Encoding: 120196 120196 110
Width: 983
Flags: MW
HStem: -214 48<448.5 454.5> -27 106 622 61<201.5 338>
VStem: 137 115 383 130 749 130<277.5 317.5>
LayerCount: 2
Fore
SplineSet
217 622 m 0
 186 622 159 607 146 597 c 0
 131 584 124 567 124 548 c 0
 124 536 134 522 142 512 c 0
 155 496 168 480 184 466 c 0
 210 442 236 407 236 386 c 0
 236 375 235 365 229 356 c 0
 221 342 213 328 201 317 c 0
 165 285 126 260 82 235 c 1
 66 254 l 1
 85 266 95 275 109 292 c 0
 119 304 127 318 127 333 c 0
 127 349 100 379 81 400 c 0
 67 415 50 429 39 446 c 0
 32 455 32 469 32 481 c 0
 32 504 43 525 56 545 c 0
 74 572 98 596 123 618 c 0
 168 656 234 683 312 683 c 0
 364 683 404 666 437 638 c 0
 464 615 482 576 494 542 c 1
 535 574 578 604 623 633 c 0
 655 653 688 673 724 689 c 1
 759 649 805 618 855 594 c 1
 867 509 879 422 879 339 c 0
 879 216 852 93 797 -21 c 1
 746 -77 686 -126 614 -163 c 0
 555 -193 489 -214 420 -214 c 0
 359 -214 299 -197 256 -161 c 1
 306 -64 l 1
 321 -66 l 1
 330 -91 342 -116 364 -135 c 0
 391 -158 430 -166 467 -166 c 0
 527 -166 586 -150 629 -114 c 0
 678 -72 701 -16 718 40 c 0
 743 122 749 206 749 291 c 0
 749 344 747 398 735 450 c 0
 728 481 719 513 695 536 c 0
 674 556 646 567 615 567 c 0
 595 567 565 561 548 550 c 0
 527 537 518 530 504 512 c 1
 508 494 510 464 510 446 c 0
 510 369 498 295 451 229 c 1
 405 195 351 159 307 133 c 1
 317 132 375 112 405 99 c 0
 432 87 463 79 492 79 c 0
 509 79 524 87 538 94 c 0
 562 106 583 121 604 137 c 1
 610 116 l 1
 564 61 513 9 446 -27 c 1
 388 -18 333 5 281 30 c 0
 254 43 217 50 190 50 c 0
 167 50 144 43 124 33 c 0
 97 20 74 2 52 -17 c 1
 33 2 l 1
 83 52 133 102 193 144 c 1
 207 147 219 148 232 148 c 0
 245 148 259 147 275 146 c 1
 293 155 315 167 333 182 c 1
 356 203 363 231 370 259 c 0
 380 305 383 352 383 398 c 0
 383 467 360 536 302 585 c 0
 279 605 253 622 217 622 c 0
EndSplineSet
EndChar

StartChar: u1D585
Encoding: 120197 120197 111
Width: 726
Flags: MW
HStem: -137 27<297 321> -24 70 289 87<312 411> 571 94 698 20<207 207>
VStem: 132 126<-93 -58.5> 490 143<134 240>
LayerCount: 2
Fore
SplineSet
253 664 m 2
 430 670 l 1
 466 670 504 665 530 643 c 0
 544 631 554 615 554 597 c 0
 554 535 511 482 460 438 c 0
 434 416 392 392 360 376 c 1
 462 376 550 372 610 310 c 0
 624 296 633 248 633 232 c 0
 633 177 625 121 605 68 c 0
 588 25 563 -16 525 -49 c 0
 458 -105 368 -137 274 -137 c 0
 238 -137 193 -137 165 -135 c 0
 151 -133 131 -130 131 -115 c 2
 132 -64 l 2
 132 -53 128 -42 119 -35 c 1
 112 -28 102 -24 91 -24 c 0
 68 -24 46 -33 27 -44 c 1
 17 -29 l 1
 47 -7 81 12 117 27 c 0
 145 38 175 46 206 46 c 0
 222 46 239 43 250 34 c 0
 263 22 264 -3 264 -15 c 0
 264 -26 263 -37 261 -47 c 0
 258 -60 258 -75 258 -88 c 0
 258 -98 269 -104 279 -107 c 0
 285 -109 293 -110 301 -110 c 0
 346 -110 388 -94 419 -67 c 1
 447 -44 461 -7 471 25 c 1
 486 67 490 112 490 156 c 0
 490 185 487 232 463 252 c 0
 428 281 378 289 330 289 c 0
 294 289 258 281 223 272 c 1
 206 285 l 1
 262 366 l 1
 311 375 354 398 389 427 c 0
 421 454 432 491 432 528 c 0
 432 537 430 546 422 553 c 0
 405 567 381 571 358 571 c 0
 328 571 298 569 269 566 c 0
 238 562 177 555 174 555 c 0
 151 555 129 562 112 576 c 0
 106 581 100 596 97 609 c 1
 124 646 164 693 189 717 c 1
 207 718 l 1
 204 712 203 705 203 698 c 0
 203 690 206 681 214 674 c 0
 224 666 239 664 253 664 c 2
EndSplineSet
EndChar

StartChar: uni005B
Encoding: 91 91 112
Width: 256
Flags: MW
HStem: -130 32 710 31
VStem: 36 50<-93 699 -93 741 -93 741>
LayerCount: 2
Fore
SplineSet
226 712 m 1
 86 699 l 1
 86 -93 l 1
 226 -100 l 1
 226 -119 l 1
 162 -119 99 -124 36 -130 c 1
 36 741 l 1
 82 736 162 736 226 736 c 1
 226 712 l 1
EndSplineSet
EndChar

StartChar: uni005D
Encoding: 93 93 113
Width: 256
Flags: MW
HStem: -132 31 708 31
VStem: 158 50<-92 700 700 700>
LayerCount: 2
Fore
SplineSet
158 700 m 1
 14 709 l 1
 14 733 l 1
 79 733 152 733 208 739 c 1
 208 -132 l 1
 144 -125 79 -124 14 -124 c 1
 14 -103 l 1
 158 -92 l 1
 158 700 l 1
EndSplineSet
EndChar

StartChar: uni005E
Encoding: 94 94 114
Width: 589
Flags: MW
HStem: 452 21<27 27> 715 20<296 296>
VStem: 0 584<464 486>
LayerCount: 2
Fore
SplineSet
296 735 m 1
 584 486 l 1
 539 459 l 1
 293 673 l 1
 27 452 l 1
 0 464 l 1
 296 735 l 1
EndSplineSet
EndChar

StartChar: u1D586
Encoding: 120198 120198 115
Width: 602
Flags: MW
HStem: -32 98<183 286> 388 52 452 19
VStem: 76 116 369 111
LayerCount: 2
Fore
SplineSet
369 80 m 1
 183 -32 l 1
 144 0 111 36 81 73 c 1
 80 93 80 112 80 132 c 0
 80 211 87 289 100 367 c 1
 169 397 234 434 297 472 c 1
 337 456 380 447 423 440 c 1
 489 468 l 1
 497 461 l 1
 480 395 480 328 480 261 c 0
 480 222 481 182 483 143 c 1
 535 80 l 1
 546 80 567 92 582 100 c 1
 587 82 l 1
 442 -29 l 1
 422 1 398 29 370 54 c 1
 369 80 l 1
368 110 m 1
 366 366 l 1
 317 366 268 377 221 389 c 1
 205 365 194 328 194 236 c 0
 194 204 196 171 198 138 c 1
 223 113 250 86 279 66 c 1
 293 66 342 93 368 110 c 1
EndSplineSet
EndChar

StartChar: u1D587
Encoding: 120199 120199 116
Width: 589
Flags: MW
HStem: -32 86 380 94 671 20<298 298>
VStem: 98 114 388 119
LayerCount: 2
Fore
SplineSet
220 384 m 1
 362 474 l 1
 397 457 454 433 501 414 c 1
 503 381 504 347 504 314 c 0
 504 241 499 168 485 96 c 1
 398 48 310 2 214 -32 c 1
 168 0 124 33 86 71 c 1
 99 183 99 298 99 411 c 0
 99 496 96 582 86 666 c 1
 106 674 l 1
 131 596 l 1
 185 630 244 667 298 691 c 1
 314 678 l 1
 287 659 269 642 247 620 c 0
 234 607 225 590 220 573 c 0
 212 547 211 521 211 495 c 2
 211 388 l 1
 220 384 l 1
380 347 m 1
 340 367 315 376 285 384 c 1
 263 380 230 361 213 348 c 1
 213 276 213 155 214 132 c 1
 235 114 261 92 288 77 c 0
 307 66 327 57 349 54 c 1
 369 94 378 137 382 180 c 0
 385 205 386 229 386 252 c 0
 386 284 384 315 380 347 c 1
EndSplineSet
EndChar

StartChar: u1D588
Encoding: 120200 120200 117
Width: 463
Flags: MW
HStem: -26 98 393 80
VStem: 82 129
LayerCount: 2
Fore
SplineSet
424 429 m 1
 346 333 l 1
 336 333 l 1
 289 375 246 390 222 396 c 1
 209 377 205 300 205 270 c 0
 205 232 208 192 211 154 c 1
 243 125 275 97 312 72 c 1
 418 114 l 1
 418 93 l 1
 355 52 250 -11 221 -26 c 1
 174 8 131 47 91 88 c 1
 88 130 87 175 87 218 c 0
 87 271 90 322 100 366 c 1
 295 473 l 1
 341 465 385 451 424 429 c 1
EndSplineSet
EndChar

StartChar: u1D589
Encoding: 120201 120201 118
Width: 588
Flags: MW
HStem: -29 95 558 74
VStem: 89 118 392 118
LayerCount: 2
Fore
SplineSet
257 459 m 1
 279 449 l 1
 259 434 233 408 214 389 c 1
 204 341 203 301 203 254 c 0
 203 219 205 183 208 148 c 1
 247 114 293 86 343 66 c 1
 367 106 393 175 393 309 c 0
 393 343 391 377 388 411 c 1
 338 451 285 489 225 520 c 0
 188 540 147 558 103 558 c 0
 73 558 40 549 13 538 c 1
 -1 557 l 1
 55 587 116 610 177 632 c 1
 231 630 276 608 323 583 c 0
 381 552 449 512 504 475 c 1
 509 439 511 403 511 368 c 0
 511 280 497 192 467 108 c 1
 418 68 327 15 254 -29 c 1
 195 4 139 42 89 85 c 1
 86 103 85 130 85 163 c 0
 85 209 87 269 92 335 c 1
 139 378 203 424 257 459 c 1
EndSplineSet
EndChar

StartChar: u1D58A
Encoding: 120202 120202 119
Width: 471
Flags: MW
HStem: -28 96 391 80
VStem: 77 111
LayerCount: 2
Fore
SplineSet
417 108 m 1
 426 92 l 1
 362 51 297 10 229 -28 c 1
 176 6 129 45 85 86 c 1
 82 122 80 158 80 194 c 0
 80 253 85 312 94 370 c 1
 158 404 257 457 286 471 c 1
 331 433 377 395 429 362 c 1
 368 311 269 240 188 181 c 0
 188 180 194 143 206 136 c 1
 232 116 259 98 307 68 c 1
 338 73 382 91 417 108 c 1
186 214 m 1
 231 245 282 281 324 316 c 1
 285 340 222 387 207 399 c 1
 192 330 186 285 186 214 c 1
EndSplineSet
EndChar

StartChar: u1D58B
Encoding: 120203 120203 120
Width: 387
Flags: MW
HStem: 359 46<52 125 52 134 37 125 253 371> 611 70<199 284.5>
VStem: 134 116<300.5 359 300.5 359 300.5 359>
LayerCount: 2
Fore
SplineSet
253 405 m 1
 387 405 l 1
 387 398 l 1
 371 359 l 1
 250 359 l 1
 250 242 250 123 231 12 c 0
 228 -3 221 -20 213 -34 c 2
 100 -242 l 1
 80 -238 l 1
 94 -204 120 -141 125 -107 c 0
 131 -69 134 -24 134 18 c 2
 134 359 l 1
 37 359 l 1
 37 367 l 1
 52 405 l 1
 125 405 l 1
 112 445 108 480 100 520 c 1
 113 568 134 612 175 647 c 0
 202 670 240 681 277 681 c 0
 292 681 308 676 320 669 c 0
 340 659 357 646 373 631 c 1
 300 549 l 1
 284 549 l 1
 273 566 264 579 247 592 c 0
 236 601 221 611 206 611 c 0
 192 611 178 609 167 600 c 0
 156 590 150 575 150 561 c 0
 150 528 176 500 203 476 c 0
 217 463 230 450 240 435 c 0
 247 424 249 419 253 405 c 1
EndSplineSet
EndChar

StartChar: u1D58C
Encoding: 120204 120204 121
Width: 594
Flags: MW
HStem: -211 86 -21 89 370 56 453 20
VStem: 91 118 386 110
LayerCount: 2
Fore
SplineSet
382 83 m 1
 184 -50 l 1
 239 -80 322 -125 361 -125 c 0
 377 -125 394 -124 405 -114 c 0
 414 -107 414 -88 414 -74 c 0
 414 -37 396 32 382 83 c 1
16 -138 m 1
 185 -23 l 1
 92 70 l 1
 89 108 86 147 86 185 c 0
 86 246 92 306 108 366 c 1
 172 404 237 441 305 473 c 1
 346 454 395 432 433 426 c 1
 519 465 l 1
 532 461 l 1
 517 431 510 399 505 367 c 0
 498 322 496 277 496 232 c 0
 496 146 528 63 541 -22 c 1
 480 -88 413 -150 339 -206 c 1
 329 -207 318 -208 308 -208 c 0
 276 -208 244 -202 214 -194 c 0
 163 -179 115 -155 72 -129 c 1
 34 -153 l 1
 16 -138 l 1
383 111 m 1
 383 177 l 2
 383 233 385 288 388 343 c 1
 331 351 268 378 226 400 c 1
 215 348 209 288 209 234 c 0
 209 200 211 166 215 132 c 1
 240 107 270 78 305 62 c 1
 383 111 l 1
EndSplineSet
EndChar

StartChar: u1D58D
Encoding: 120205 120205 122
Width: 615
Flags: MW
HStem: -207 21 -24 21 376 95 667 20<292 292>
VStem: 88 127 395 112
LayerCount: 2
Fore
SplineSet
220 507 m 2
 218 377 l 1
 269 405 317 439 362 471 c 1
 407 448 455 428 504 410 c 1
 506 363 507 317 507 271 c 0
 507 231 506 190 504 150 c 0
 501 89 497 28 484 -31 c 1
 435 -88 368 -148 292 -203 c 1
 268 -189 l 1
 290 -174 318 -150 341 -128 c 0
 359 -111 369 -84 376 -60 c 0
 385 -27 394 27 394 115 c 0
 394 189 388 263 382 337 c 1
 350 354 308 372 272 379 c 1
 218 347 l 1
 215 308 213 269 213 230 c 0
 213 196 214 162 218 128 c 1
 234 104 252 82 272 60 c 1
 230 36 192 6 156 -24 c 1
 137 6 114 35 88 62 c 1
 97 185 104 308 104 432 c 0
 104 509 101 587 94 664 c 1
 113 673 l 1
 137 597 l 1
 188 628 244 662 292 687 c 1
 310 672 l 1
 298 665 287 658 276 649 c 0
 231 612 220 559 220 507 c 2
EndSplineSet
EndChar

StartChar: u1D58E
Encoding: 120206 120206 123
Width: 331
Flags: MW
HStem: -26 108<165 263.5> 387 91 540 146<162 164>
VStem: 106 114
LayerCount: 2
Fore
SplineSet
278 86 m 2
 322 105 l 1
 327 87 l 1
 270 53 217 13 165 -26 c 1
 92 56 l 1
 99 114 102 173 102 232 c 0
 102 277 100 321 97 366 c 1
 59 387 l 1
 20 370 l 1
 2 382 l 1
 49 413 95 443 138 478 c 1
 151 468 192 440 220 422 c 1
 217 366 215 310 215 253 c 0
 215 215 216 176 218 138 c 0
 218 128 223 118 230 109 c 0
 238 98 250 82 261 82 c 0
 266 82 276 85 278 86 c 2
73 613 m 1
 164 686 l 1
 187 661 214 636 242 615 c 1
 162 540 l 1
 130 562 100 587 73 613 c 1
EndSplineSet
EndChar

StartChar: u1D58F
Encoding: 120207 120207 124
Width: 331
Flags: MW
HStem: -204 21 380 99 541 142<154 155>
VStem: 121 114
LayerCount: 2
Fore
SplineSet
18 382 m 1
 148 483 l 1
 176 462 203 444 233 425 c 1
 236 369 238 313 238 256 c 0
 238 161 232 65 213 -29 c 1
 151 -90 71 -156 -3 -207 c 1
 -19 -189 l 1
 15 -168 51 -143 76 -118 c 0
 103 -91 113 -54 116 -18 c 0
 121 51 121 139 121 217 c 0
 121 254 121 307 118 327 c 1
 117 342 114 357 102 368 c 0
 94 375 83 380 71 380 c 0
 70 380 46 369 33 363 c 1
 18 382 l 1
235 614 m 1
 154 541 l 1
 126 563 98 585 74 611 c 1
 155 683 l 1
 165 673 208 637 235 614 c 1
EndSplineSet
EndChar

StartChar: u1D590
Encoding: 120208 120208 125
Width: 464
Flags: MW
HStem: -25 93<234 328> 308 38<47 114 33 115 230 262 262 270 313 392> 515 70 663 11
VStem: 114 114 336 92
LayerCount: 2
Fore
SplineSet
109 115 m 2
 114 308 l 1
 33 308 l 1
 47 346 l 1
 115 346 l 1
 115 453 115 590 104 665 c 1
 125 673 l 1
 134 648 152 598 152 597 c 1
 197 631 249 659 302 683 c 1
 317 667 l 1
 291 653 276 641 260 620 c 0
 249 605 240 589 237 572 c 1
 231 549 230 523 230 499 c 1
 271 528 325 563 368 585 c 1
 384 566 400 546 412 525 c 0
 420 511 425 500 425 484 c 0
 425 463 410 446 395 430 c 2
 313 346 l 1
 409 346 l 1
 392 308 l 1
 226 308 l 1
 226 253 227 190 233 136 c 1
 323 68 l 1
 333 68 392 93 423 109 c 1
 432 90 l 1
 234 -25 l 1
 105 71 l 1
 107 86 108 100 109 115 c 2
230 346 m 1
 262 346 l 2
 278 346 298 365 311 379 c 0
 327 396 336 415 336 435 c 0
 336 465 316 495 295 518 c 1
 279 508 263 497 252 484 c 0
 240 469 236 449 234 432 c 0
 231 404 230 375 230 346 c 1
EndSplineSet
EndChar

StartChar: u1D591
Encoding: 120209 120209 126
Width: 336
Flags: MW
VStem: 111 111<292 356.5 292 368.5>
LayerCount: 2
Fore
SplineSet
315 86 m 1
 164 -24 l 1
 142 2 100 54 100 55 c 0
 108 128 111 217 111 312 c 0
 111 425 107 551 103 661 c 1
 122 665 l 1
 142 593 l 1
 189 625 242 656 295 682 c 1
 306 673 l 1
 292 663 276 647 267 638 c 0
 250 621 241 604 235 582 c 0
 227 551 224 519 224 487 c 0
 223 436 222 383 222 330 c 0
 222 254 224 179 231 112 c 1
 257 83 l 1
 266 83 289 92 306 101 c 1
 315 86 l 1
EndSplineSet
EndChar

StartChar: u1D592
Encoding: 120210 120210 127
Width: 921
Flags: MW
HStem: -31 21<173 173> 384 93
VStem: 107 122 392 112 673 117
LayerCount: 2
Fore
SplineSet
511 376 m 2
 658 471 l 1
 705 450 753 432 802 418 c 1
 792 362 788 306 788 250 c 0
 788 208 790 166 793 124 c 1
 821 86 l 2
 825 82 832 77 838 77 c 0
 840 77 849 80 853 82 c 2
 887 100 l 1
 900 78 l 1
 842 45 788 8 735 -30 c 1
 713 1 688 31 660 59 c 1
 671 93 674 151 674 213 c 0
 674 258 673 304 671 344 c 1
 641 357 596 374 564 382 c 1
 509 348 l 1
 506 309 505 272 505 233 c 0
 505 199 506 165 507 131 c 1
 564 58 l 1
 444 -28 l 1
 424 -1 385 52 385 53 c 0
 393 96 395 152 395 210 c 0
 395 256 394 303 393 346 c 1
 368 357 318 370 288 377 c 1
 227 343 l 1
 227 278 l 2
 227 227 229 176 232 126 c 1
 287 52 l 1
 173 -31 l 1
 152 0 130 32 107 59 c 1
 113 104 115 154 115 205 c 0
 115 256 113 308 111 357 c 1
 75 384 l 1
 29 365 l 1
 16 378 l 1
 151 476 l 1
 174 455 200 436 229 420 c 1
 227 403 225 370 225 369 c 1
 279 399 329 433 375 472 c 1
 420 451 465 429 514 416 c 1
 513 403 511 377 511 376 c 2
EndSplineSet
EndChar

StartChar: u1D593
Encoding: 120211 120211 128
Width: 653
Flags: MW
HStem: -28 21<163 163> 388 86<64 133>
VStem: 92 124 382 122
LayerCount: 2
Fore
SplineSet
214 129 m 1
 275 62 l 1
 163 -28 l 1
 139 -2 114 25 85 48 c 1
 93 73 95 117 95 168 c 0
 95 232 91 307 88 366 c 1
 64 388 l 1
 21 367 l 1
 3 381 l 1
 133 474 l 1
 159 456 188 436 215 424 c 1
 214 408 214 377 214 376 c 1
 267 405 317 438 365 474 c 1
 406 452 461 430 512 411 c 1
 504 341 501 271 501 200 c 0
 501 178 501 155 502 132 c 1
 549 80 l 1
 559 83 584 95 600 104 c 1
 608 88 l 1
 556 56 504 14 455 -26 c 1
 433 6 403 38 375 68 c 1
 384 116 387 167 387 219 c 0
 387 261 385 303 383 345 c 1
 352 360 309 372 275 381 c 1
 213 350 l 1
 213 348 213 204 214 129 c 1
EndSplineSet
EndChar

StartChar: u1D594
Encoding: 120212 120212 129
Width: 609
Flags: MW
HStem: -34 89 391 91
VStem: 103 122 403 109
LayerCount: 2
Fore
SplineSet
254 -34 m 1
 202 -4 153 28 108 65 c 1
 107 85 107 104 107 124 c 0
 107 204 115 283 129 362 c 1
 200 400 269 440 336 482 c 1
 390 449 451 426 514 410 c 1
 515 386 515 361 515 337 c 0
 515 298 514 260 511 221 c 0
 508 177 503 132 490 89 c 1
 417 41 337 0 254 -34 c 1
377 55 m 1
 396 126 405 199 405 272 c 0
 405 299 403 327 401 354 c 1
 350 361 302 378 256 397 c 1
 241 372 225 318 225 238 c 0
 225 203 228 167 232 131 c 1
 274 98 322 69 377 55 c 1
EndSplineSet
EndChar

StartChar: u1D595
Encoding: 120213 120213 130
Width: 603
Flags: MW
HStem: -208 21<129 129> 22 108<233 233> 383 99 538 20<173 173>
VStem: 117 116<-8.5 130 130 356> 396 123
LayerCount: 2
Fore
SplineSet
242 -161 m 1
 129 -208 l 1
 112 -202 l 2
 112 -201 116 -46 118 32 c 1
 77 32 40 14 10 -9 c 1
 -2 8 l 1
 34 41 81 85 117 97 c 1
 117 359 l 1
 94 380 72 410 65 437 c 1
 95 481 133 520 173 558 c 1
 193 552 l 1
 183 539 174 525 174 510 c 0
 174 496 181 484 189 473 c 0
 201 456 216 441 233 428 c 1
 233 386 l 1
 376 482 l 1
 511 425 l 1
 516 399 519 338 519 310 c 0
 519 225 512 167 489 84 c 1
 434 55 384 19 337 -19 c 1
 308 3 272 17 233 22 c 1
 233 -39 237 -100 242 -161 c 1
283 391 m 1
 233 356 l 1
 233 130 l 1
 287 122 342 105 390 77 c 1
 401 119 404 157 404 202 c 0
 404 252 400 302 394 349 c 1
 361 363 318 381 283 391 c 1
EndSplineSet
EndChar

StartChar: u1D596
Encoding: 120214 120214 131
Width: 595
Flags: MW
HStem: -212 21<381 381> -30 102 386 93
VStem: 88 119 374 111
LayerCount: 2
Fore
SplineSet
494 -171 m 1
 381 -212 l 1
 362 -202 l 1
 374 -109 376 -15 376 78 c 1
 188 -30 l 1
 90 73 l 1
 88 95 87 117 87 140 c 0
 87 217 98 295 114 372 c 1
 308 478 l 1
 348 462 390 449 433 442 c 1
 503 485 l 1
 515 479 l 1
 485 376 485 188 485 41 c 0
 485 -30 489 -100 494 -171 c 1
378 358 m 1
 323 362 264 381 234 397 c 1
 218 368 206 305 206 210 c 0
 206 190 207 169 207 148 c 1
 228 120 255 87 283 65 c 1
 313 76 345 94 373 110 c 1
 373 193 373 283 378 358 c 1
EndSplineSet
EndChar

StartChar: u1D597
Encoding: 120215 120215 132
Width: 459
Flags: MW
HStem: -26 96<230 313> 378 95
VStem: 109 125
LayerCount: 2
Fore
SplineSet
301 334 m 2
 255 373 l 1
 250 370 241 363 237 359 c 1
 235 341 233 286 233 236 c 0
 233 206 234 176 235 147 c 0
 236 136 243 126 251 118 c 0
 252 118 293 86 313 70 c 1
 402 101 l 1
 403 80 l 1
 230 -26 l 1
 192 11 149 44 105 76 c 1
 117 119 118 187 118 222 c 0
 118 266 117 296 114 340 c 1
 99 355 85 369 67 380 c 1
 23 368 l 1
 12 382 l 1
 151 473 l 1
 236 411 l 1
 236 380 l 1
 343 471 l 1
 359 448 375 422 395 405 c 0
 401 400 409 398 417 398 c 0
 426 398 442 403 453 407 c 1
 453 394 l 1
 425 368 387 343 351 320 c 0
 348 318 345 316 339 316 c 0
 324 316 316 322 301 334 c 2
EndSplineSet
EndChar

StartChar: u1D598
Encoding: 120216 120216 133
Width: 522
Flags: MW
HStem: -35 21 41 90<57 173.5> 225 77 342 86<330 399> 459 20
VStem: 77 124 321 114
LayerCount: 2
Fore
SplineSet
482 442 m 1
 339 342 l 1
 321 342 298 351 279 359 c 1
 250 373 223 390 197 408 c 1
 192 385 188 362 188 339 c 0
 188 306 197 269 216 239 c 1
 267 256 320 279 371 302 c 1
 393 292 414 280 433 266 c 1
 438 233 442 199 442 165 c 0
 442 124 437 83 423 44 c 1
 356 21 289 -4 227 -35 c 1
 202 -14 175 6 144 21 c 0
 122 32 99 41 73 41 c 0
 41 41 12 26 -13 10 c 1
 -24 26 l 1
 102 125 l 1
 119 129 136 131 154 131 c 0
 193 131 270 76 319 38 c 1
 323 61 324 88 324 112 c 0
 324 139 322 167 319 195 c 1
 304 210 286 225 262 225 c 0
 246 225 232 220 218 214 c 0
 198 205 155 183 123 167 c 1
 108 180 94 200 82 218 c 0
 78 224 77 231 77 238 c 2
 77 377 l 1
 264 480 l 1
 330 442 l 2
 347 432 367 428 387 428 c 0
 411 428 447 445 471 461 c 1
 482 442 l 1
EndSplineSet
EndChar

StartChar: u1D599
Encoding: 120217 120217 134
Width: 393
Flags: MW
HStem: 359 46<62 129 62 129 47 129 246 337>
VStem: 129 116<321.5 359 321.5 359 321.5 553>
LayerCount: 2
Fore
SplineSet
245 359 m 1
 245 284 245 210 250 136 c 0
 251 129 253 122 258 117 c 0
 275 97 305 78 328 73 c 1
 336 74 381 93 403 104 c 1
 407 84 l 1
 229 -27 l 1
 197 5 162 34 123 60 c 1
 129 134 129 260 129 359 c 1
 47 359 l 1
 47 367 l 1
 62 405 l 1
 129 405 l 1
 129 553 l 1
 295 654 l 1
 307 640 l 1
 287 624 267 606 260 598 c 0
 251 589 246 480 246 405 c 1
 353 405 l 1
 353 398 l 1
 337 359 l 1
 245 359 l 1
EndSplineSet
EndChar

StartChar: u1D59A
Encoding: 120218 120218 135
Width: 588
Flags: MW
HStem: -32 94 384 89<58 143>
VStem: 119 106<243.5 246.5> 373 115
LayerCount: 2
Fore
SplineSet
370 424 m 1
 491 468 l 1
 505 459 l 1
 490 359 488 259 488 158 c 0
 488 149 502 104 525 84 c 0
 526 83 532 79 536 79 c 0
 538 79 546 80 548 81 c 2
 598 101 l 1
 604 88 l 1
 445 -32 l 1
 381 73 l 1
 319 48 256 0 218 -35 c 1
 176 -3 113 25 67 42 c 1
 83 65 94 89 102 115 c 0
 112 151 119 188 119 224 c 0
 119 269 110 312 100 356 c 1
 89 368 77 379 58 384 c 1
 23 365 l 1
 9 379 l 1
 143 473 l 1
 146 470 195 433 221 414 c 1
 223 362 225 310 225 259 c 0
 225 228 222 197 216 166 c 0
 211 145 204 123 190 104 c 1
 223 97 269 78 307 62 c 1
 374 98 l 1
 374 201 374 312 370 424 c 1
EndSplineSet
EndChar

StartChar: u1D59B
Encoding: 120219 120219 136
Width: 604
Flags: MW
HStem: -28 83 389 87<276 365> 526 20<157 157>
VStem: 98 121 387 118
LayerCount: 2
Fore
SplineSet
469 80 m 1
 216 -28 l 1
 181 8 140 39 95 66 c 1
 104 103 104 163 104 212 c 0
 104 258 101 308 98 355 c 1
 79 376 56 402 56 422 c 0
 56 456 115 509 157 546 c 1
 177 542 l 1
 166 530 159 515 159 500 c 0
 159 479 195 442 221 416 c 1
 219 387 l 1
 365 476 l 1
 504 415 l 1
 506 382 507 349 507 316 c 0
 507 280 506 244 502 208 c 0
 497 164 491 120 469 80 c 1
288 389 m 0
 264 389 237 373 219 361 c 1
 219 152 l 2
 219 146 219 138 221 133 c 0
 224 126 230 120 237 114 c 0
 260 95 295 76 329 59 c 0
 332 58 339 56 343 56 c 0
 346 56 357 58 360 67 c 0
 382 131 389 196 389 263 c 0
 389 291 388 320 386 349 c 1
 355 365 299 389 288 389 c 0
EndSplineSet
EndChar

StartChar: u1D59C
Encoding: 120220 120220 137
Width: 917
Flags: MW
HStem: -33 96 376 94 529 20<159 159>
VStem: 108 120 387 123 694 121
LayerCount: 2
Fore
SplineSet
511 370 m 1
 679 470 l 1
 722 447 768 427 815 409 c 1
 814 334 813 259 802 184 c 0
 796 140 787 95 763 56 c 1
 692 29 623 1 557 -33 c 1
 525 -13 492 6 458 22 c 0
 433 34 407 44 379 51 c 1
 389 86 391 162 391 237 c 0
 391 270 390 303 390 332 c 1
 362 352 300 382 293 382 c 0
 280 382 250 371 226 355 c 1
 224 327 223 298 223 270 c 0
 223 218 226 166 230 113 c 1
 281 50 l 1
 172 -30 l 1
 147 2 116 41 90 59 c 1
 101 88 109 145 109 216 c 0
 109 262 106 309 103 356 c 1
 66 395 l 2
 58 404 55 417 55 428 c 0
 55 432 56 436 59 439 c 0
 89 477 124 519 159 549 c 1
 175 547 l 1
 165 533 160 516 160 500 c 0
 160 479 200 443 228 419 c 1
 228 382 l 1
 266 404 320 441 365 471 c 1
 411 445 460 423 511 404 c 1
 511 370 l 1
591 378 m 0
 580 378 537 360 514 345 c 1
 510 304 508 262 508 221 c 0
 508 198 509 176 510 153 c 0
 511 141 516 128 528 121 c 0
 562 99 598 80 638 64 c 0
 640 63 646 61 649 61 c 0
 651 61 659 65 664 78 c 0
 678 112 685 147 689 182 c 0
 696 233 697 284 697 336 c 1
 664 353 601 378 591 378 c 0
EndSplineSet
EndChar

StartChar: u1D59D
Encoding: 120221 120221 138
Width: 458
Flags: MW
HStem: -188 64 -29 97<244 340> 381 90<69.5 161>
VStem: 13 70 134 116<185 279>
LayerCount: 2
Fore
SplineSet
423 82 m 1
 244 -29 l 1
 153 44 l 1
 134 41 120 29 107 17 c 0
 90 2 83 -18 83 -38 c 0
 83 -51 89 -64 100 -74 c 0
 135 -105 186 -114 236 -122 c 1
 238 -133 l 1
 145 -188 l 1
 116 -181 87 -171 61 -157 c 0
 43 -147 25 -134 15 -117 c 0
 10 -109 8 -100 8 -91 c 0
 8 -81 10 -71 13 -61 c 1
 47 -15 83 31 128 70 c 1
 134 113 134 162 134 208 c 0
 134 252 133 296 129 339 c 0
 129 346 123 355 120 357 c 2
 74 381 l 1
 65 381 44 371 35 365 c 1
 19 377 l 1
 65 410 126 454 161 471 c 1
 253 413 l 1
 253 377 l 1
 365 468 l 1
 388 437 417 406 449 388 c 1
 370 313 l 1
 360 315 350 317 342 322 c 0
 320 336 286 365 281 370 c 1
 278 368 260 352 256 346 c 1
 252 322 250 297 250 261 c 0
 250 218 250 164 253 132 c 0
 253 131 255 126 256 124 c 0
 260 117 279 104 334 68 c 1
 346 68 390 86 421 100 c 1
 423 82 l 1
EndSplineSet
EndChar

StartChar: u1D59E
Encoding: 120222 120222 139
Width: 589
Flags: MW
HStem: -222 21<249 249> -28 21 381 97<288 371> 537 20
VStem: 109 120<305.5 356> 388 120
LayerCount: 2
Fore
SplineSet
512 412 m 1
 514 370 515 329 515 289 c 0
 515 201 510 119 503 39 c 1
 503 -1 474 -34 446 -66 c 0
 416 -100 384 -134 346 -164 c 0
 318 -186 279 -207 249 -222 c 1
 219 -197 l 1
 252 -181 301 -156 310 -149 c 0
 333 -130 349 -110 358 -83 c 0
 365 -64 372 -40 376 -20 c 0
 388 47 391 114 391 182 c 0
 391 234 388 286 384 338 c 1
 355 356 323 372 288 381 c 1
 229 356 l 1
 229 141 l 2
 229 130 229 117 237 108 c 2
 281 53 l 1
 186 -39 l 1
 160 -8 118 39 91 60 c 1
 109 117 109 256 109 355 c 0
 109 359 107 365 105 367 c 0
 85 386 60 411 60 432 c 0
 60 446 69 459 78 471 c 0
 95 493 134 531 163 559 c 1
 181 553 l 1
 171 538 164 524 164 507 c 0
 164 494 176 477 186 465 c 0
 201 448 213 438 231 426 c 1
 231 385 l 1
 371 478 l 1
 416 453 463 431 512 412 c 1
EndSplineSet
EndChar

StartChar: u1D59F
Encoding: 120223 120223 140
Width: 461
Flags: MW
HStem: -215 80 371 101
VStem: -8 110 260 103
LayerCount: 2
Fore
SplineSet
346 -103 m 1
 190 -215 l 1
 135 -215 77 -209 37 -175 c 0
 17 -158 2 -137 -8 -115 c 1
 60 -17 143 73 242 149 c 1
 209 172 153 181 109 184 c 1
 108 194 l 1
 200 259 l 2
 217 271 235 286 235 306 c 0
 235 323 218 346 202 356 c 0
 184 367 173 371 151 371 c 0
 138 371 126 366 114 361 c 0
 96 353 80 342 65 331 c 1
 49 346 l 1
 102 393 161 434 222 472 c 1
 250 462 276 450 297 432 c 0
 319 413 338 392 338 365 c 0
 338 353 320 336 306 323 c 2
 242 264 l 1
 284 251 323 234 361 214 c 1
 372 168 377 121 377 74 c 0
 377 14 365 -43 346 -103 c 1
252 120 m 1
 191 70 102 -3 102 -46 c 0
 102 -66 114 -82 131 -95 c 0
 182 -133 230 -134 239 -134 c 1
 245 -121 259 -90 259 -4 c 0
 259 29 257 70 252 120 c 1
EndSplineSet
EndChar

StartChar: uni0022
Encoding: 34 34 141
Width: 253
Flags: MW
HStem: 432 21<40 40 40 65 183 208 183 183> 675 19
VStem: 10 80<645 662> 151 80<665.5 670.5>
LayerCount: 2
Fore
SplineSet
40 432 m 1
 17 584 l 2
 13 608 10 633 10 657 c 0
 10 667 11 679 21 686 c 0
 29 692 40 695 51 695 c 0
 60 695 69 695 77 690 c 0
 83 686 90 682 90 675 c 2
 90 623 l 1
 65 432 l 1
 40 432 l 1
183 432 m 1
 157 625 l 2
 155 639 151 663 151 668 c 0
 151 673 154 679 159 683 c 0
 169 691 183 692 197 692 c 0
 207 692 217 691 224 684 c 0
 228 681 231 677 231 673 c 0
 231 657 231 641 230 626 c 2
 208 432 l 1
 183 432 l 1
EndSplineSet
EndChar

StartChar: uni0031.alt
Encoding: 1114159 -1 142
Width: 542
Flags: MW
HStem: -9 21<255 255> 594 30 694 20
VStem: 234 135
LayerCount: 2
Fore
SplineSet
368 32 m 1
 255 -9 l 1
 233 5 l 1
 255 190 258 376 247 561 c 0
 247 569 244 577 238 582 c 0
 231 587 223 595 217 595 c 2
 74 595 l 1
 75 626 l 1
 360 712 l 2
 365 714 372 714 376 710 c 0
 380 707 384 702 383 697 c 0
 371 560 364 422 364 284 c 0
 364 200 364 96 368 32 c 1
EndSplineSet
EndChar

StartChar: u1D521.alt01
Encoding: 1114160 -1 143
Width: 497
Flags: MW
HStem: -33 85 664 20<154 154>
VStem: 73 82 347 88
LayerCount: 2
Fore
SplineSet
427 439 m 1
 429 414 430 368 430 328 c 0
 430 297 429 267 427 249 c 0
 423 201 419 153 401 109 c 1
 214 -34 l 1
 164 0 115 35 76 81 c 1
 74 111 73 138 73 166 c 0
 73 210 75 259 79 335 c 1
 113 367 147 400 183 427 c 1
 151 439 117 453 97 472 c 0
 82 487 75 507 75 528 c 0
 75 589 110 643 154 684 c 1
 166 674 l 1
 148 653 136 625 136 596 c 0
 136 573 147 551 164 534 c 0
 191 506 228 489 265 476 c 0
 317 457 371 446 427 439 c 1
341 371 m 1
 208 419 l 1
 181 384 171 363 165 346 c 0
 156 323 152 290 152 254 c 0
 152 215 156 171 159 135 c 1
 172 119 188 106 204 94 c 0
 227 78 251 64 276 51 c 0
 279 50 282 48 285 48 c 0
 290 48 295 51 299 58 c 0
 327 102 341 154 346 205 c 0
 348 226 349 246 349 267 c 0
 349 301 346 338 341 371 c 1
EndSplineSet
EndChar

StartChar: u1D521.alt02
Encoding: 1114161 -1 144
Width: 498
Flags: MW
HStem: -30 73 562 54
VStem: 79 80 345 89
LayerCount: 2
Fore
SplineSet
234 451 m 1
 175 396 l 1
 158 356 156 297 156 260 c 0
 156 220 159 180 164 140 c 0
 167 118 227 73 280 43 c 1
 345 118 347 266 347 314 c 0
 347 345 346 375 344 406 c 1
 275 477 196 531 102 561 c 1
 82 561 63 557 43 550 c 1
 35 569 l 1
 75 589 116 604 158 616 c 1
 238 598 357 537 430 459 c 1
 432 430 433 401 433 372 c 0
 433 210 403 127 394 102 c 1
 334 53 270 11 205 -30 c 1
 160 4 117 41 78 82 c 1
 76 111 76 139 76 168 c 0
 76 232 80 296 88 360 c 1
 127 397 171 429 215 460 c 1
 234 451 l 1
EndSplineSet
EndChar

StartChar: u1D523.alt01
Encoding: 1114162 -1 145
Width: 333
Flags: W
HStem: 351 35<208 311 208 208> 661 20G<223.5 248.5>
VStem: 116 27<532.5 545> 122 86<279 351 279 351 279 351>
LayerCount: 2
Fore
SplineSet
339 665 m 1xe0
 339 649 l 1
 268 566 l 1
 252 585 231 601 206 601 c 0
 191 601 172 597 161 586 c 0
 149 575 143 561 143 544 c 0xe0
 143 521 152 499 161 478 c 0
 175 445 189 416 207 386 c 1
 324 386 l 1
 311 351 l 1
 208 351 l 1
 208 207 206 -40 190 -70 c 2
 91 -257 l 1
 73 -250 l 1
 83 -220 98 -172 112 -100 c 0
 121 -54 122 -8 122 38 c 2
 122 351 l 1xd0
 30 351 l 1
 45 385 l 1
 124 385 l 1
 120 430 116 485 116 521 c 0
 116 569 138 614 172 648 c 0
 190 666 211 681 236 681 c 0
 261 681 284 667 304 652 c 0
 306 650 309 648 312 648 c 0
 315 648 317 649 319 651 c 2
 339 665 l 1xe0
EndSplineSet
EndChar

StartChar: u1D523.alt02
Encoding: 1114163 -1 146
Width: 326
Flags: MW
HStem: 351 35<208 312 208 324> 585 63<231.5 270>
VStem: 123 85<293 351 351 386 351 396>
LayerCount: 2
Fore
SplineSet
208 351 m 1
 203 41 l 2
 203 4 200 -34 189 -69 c 1
 141 -164 105 -231 100 -242 c 1
 78 -240 l 1
 92 -196 115 -85 115 -84 c 0
 118 -56 121 -26 121 3 c 0
 121 119 123 235 123 351 c 1
 30 351 l 1
 46 385 l 1
 123 385 l 1
 123 407 107 470 98 512 c 0
 96 523 96 546 96 560 c 1
 125 606 156 642 193 681 c 1
 214 666 237 648 263 648 c 0
 277 648 298 658 308 667 c 1
 315 660 l 1
 248 585 l 1
 215 585 182 591 150 598 c 1
 150 565 164 534 175 503 c 0
 189 467 204 423 208 386 c 1
 324 386 l 1
 312 351 l 1
 208 351 l 1
EndSplineSet
EndChar

StartChar: u1D524.alt
Encoding: 1114164 -1 147
Width: 503
Flags: MW
HStem: -214 64<233 240> -31 90 392 79
VStem: 72 83 348 97
LayerCount: 2
Fore
SplineSet
431 -53 m 1
 306 -192 l 1
 282 -208 254 -214 226 -214 c 0
 160 -214 98 -189 51 -143 c 1
 90 -48 l 1
 101 -47 l 1
 106 -71 122 -91 139 -109 c 1
 170 -139 212 -150 254 -150 c 0
 287 -150 322 -140 345 -117 c 0
 360 -102 363 -77 363 -56 c 0
 363 -25 350 47 340 98 c 1
 159 -31 l 1
 76 65 l 1
 75 102 73 139 73 176 c 0
 73 291 86 350 90 368 c 1
 142 404 212 449 251 470 c 1
 287 447 326 433 366 424 c 1
 436 464 l 1
 444 459 l 1
 435 436 431 416 427 390 c 0
 421 353 420 305 420 268 c 0
 419 223 418 136 418 135 c 0
 426 84 439 -2 439 -18 c 0
 439 -30 436 -42 431 -53 c 1
230 48 m 1
 340 124 l 1
 340 192 343 272 348 352 c 1
 289 358 233 370 178 390 c 1
 166 364 155 325 155 245 c 0
 155 204 157 163 161 122 c 1
 180 99 207 67 230 48 c 1
EndSplineSet
EndChar

StartChar: u1D528.alt
Encoding: 1114165 -1 148
Width: 333
Flags: MW
HStem: 351 35<42 88 25 89 168 262 168 168>
VStem: 88 80<302 351>
LayerCount: 2
Fore
SplineSet
168 351 m 1
 168 118 l 1
 228 69 l 2
 232 66 235 64 239 64 c 0
 242 64 248 67 252 69 c 0
 253 69 291 89 311 99 c 1
 312 76 l 1
 174 -20 l 1
 82 66 l 1
 86 146 88 253 88 351 c 1
 25 351 l 1
 42 386 l 1
 89 386 l 1
 89 485 88 584 82 671 c 1
 98 676 l 1
 121 598 l 1
 163 629 202 661 246 687 c 1
 262 677 l 1
 240 658 222 640 202 614 c 0
 178 582 170 540 168 500 c 1
 202 528 273 583 274 583 c 0
 290 558 304 532 315 504 c 1
 279 449 l 1
 269 463 258 476 246 488 c 0
 238 496 228 506 217 506 c 0
 209 506 202 502 196 496 c 0
 168 468 167 425 167 386 c 1
 279 386 l 1
 262 351 l 1
 168 351 l 1
EndSplineSet
EndChar

StartChar: u1D531.alt
Encoding: 1114166 -1 149
Width: 334
Flags: MW
HStem: 351 35<45 118 45 118 29 118 196 295>
VStem: 118 78<312.5 351 312.5 351 386 409.5>
LayerCount: 2
Fore
SplineSet
348 84 m 1
 211 -21 l 1
 179 7 117 61 116 61 c 1
 118 100 118 253 118 351 c 1
 29 351 l 1
 45 386 l 1
 118 386 l 1
 118 433 118 486 116 534 c 1
 199 578 l 1
 210 574 l 1
 200 514 196 447 196 386 c 1
 313 386 l 1
 295 351 l 1
 196 351 l 1
 196 274 196 143 197 123 c 1
 219 104 251 81 268 69 c 0
 270 67 273 67 275 67 c 0
 279 67 283 69 287 71 c 0
 288 71 324 91 342 101 c 1
 348 84 l 1
EndSplineSet
EndChar

StartChar: u1D532.alt
Encoding: 1114167 -1 150
Width: 500
Flags: MW
HStem: -21 79 393 83
VStem: 101 72 337 76
LayerCount: 2
Fore
SplineSet
421 468 m 1
 428 462 l 1
 418 383 413 304 413 225 c 0
 413 193 415 161 419 131 c 0
 421 117 429 103 438 91 c 0
 442 86 448 83 455 83 c 0
 458 83 463 84 466 85 c 0
 481 90 494 96 508 103 c 1
 514 88 l 1
 472 54 434 18 395 -19 c 1
 387 -16 l 1
 372 20 360 46 337 78 c 1
 270 47 180 -26 180 -26 c 1
 160 -10 92 36 55 48 c 1
 68 70 76 99 82 127 c 0
 91 172 97 218 97 264 c 0
 97 292 97 319 90 346 c 1
 84 364 76 383 61 396 c 1
 23 376 l 1
 8 386 l 1
 119 474 l 1
 135 455 151 436 171 421 c 1
 171 399 172 378 172 356 c 0
 172 325 171 294 170 264 c 0
 168 210 161 156 146 104 c 1
 245 55 l 1
 335 101 l 1
 339 151 340 215 340 264 c 0
 340 316 338 369 336 424 c 1
 421 468 l 1
EndSplineSet
EndChar

StartChar: uni0030.onum
Encoding: 1114168 -1 151
Width: 501
Flags: MW
HStem: -13 72 414 79
VStem: 41 78<220.5 234.5> 381 75<222.5 239.5>
LayerCount: 2
Fore
SplineSet
261 493 m 1
 306 480 348 455 381 421 c 1
 425 378 456 322 456 260 c 0
 456 185 420 117 368 65 c 0
 325 23 273 -13 213 -13 c 0
 171 -13 130 3 101 33 c 0
 58 76 41 137 41 198 c 0
 41 271 75 339 126 391 c 0
 166 431 211 466 261 493 c 1
195 418 m 1
 172 404 160 387 151 373 c 0
 128 339 119 292 119 249 c 0
 119 192 135 135 176 95 c 0
 199 72 235 53 268 53 c 0
 297 53 312 55 332 69 c 0
 370 96 381 168 381 212 c 0
 381 267 361 321 322 360 c 0
 294 388 236 415 195 418 c 1
EndSplineSet
EndChar

StartChar: uni0031.onum
Encoding: 1114169 -1 152
Width: 501
Flags: MW
HStem: 0 44 431 38
VStem: 212 86
LayerCount: 2
Fore
SplineSet
299 469 m 1
 309 461 l 1
 299 384 297 307 297 229 c 0
 297 175 298 121 300 67 c 0
 300 61 301 55 305 51 c 0
 308 47 312 43 317 43 c 0
 365 43 412 44 460 46 c 1
 459 -1 l 1
 390 3 321 6 252 6 c 0
 184 6 116 4 46 -1 c 1
 46 44 l 1
 94 43 142 43 190 43 c 0
 196 43 202 44 206 49 c 1
 209 51 210 61 210 68 c 0
 212 86 212 196 212 260 c 0
 212 304 212 362 205 391 c 0
 201 407 188 416 173 421 c 0
 157 426 127 430 104 433 c 1
 103 460 l 1
 169 460 234 462 299 469 c 1
EndSplineSet
EndChar

StartChar: uni0032.onum
Encoding: 1114170 -1 153
Width: 501
Flags: MW
HStem: 1 64<189 192 189 460> 415 59<211.5 296>
VStem: 309 76<315 385>
LayerCount: 2
Fore
SplineSet
475 73 m 2
 485 67 l 1
 460 1 l 1
 61 1 l 1
 59 17 l 2
 60 17 126 79 159 111 c 1
 200 149 239 190 270 236 c 0
 290 266 309 297 309 333 c 0
 309 356 298 377 282 393 c 0
 267 407 247 415 226 415 c 0
 197 415 150 388 114 367 c 1
 104 385 l 1
 133 410 165 434 199 451 c 0
 225 464 253 474 282 474 c 0
 310 474 337 462 356 442 c 0
 375 423 385 398 385 372 c 0
 385 355 379 338 372 321 c 0
 362 298 348 276 334 255 c 0
 289 191 235 134 180 78 c 0
 178 76 176 74 176 73 c 0
 176 65 186 65 192 65 c 0
 287 68 474 73 475 73 c 2
EndSplineSet
EndChar

StartChar: uni0033.onum
Encoding: 1114171 -1 154
Width: 501
Flags: MW
HStem: -182 33<155.5 190 148.5 215.5> 170 34<128 128> 422 52<203 281>
VStem: 338 92<14 48.5>
LayerCount: 2
Fore
SplineSet
246 210 m 1
 249 203 l 1
 294 203 350 191 383 158 c 0
 414 127 430 85 430 42 c 0
 430 -14 407 -68 367 -107 c 1
 318 -157 250 -182 181 -182 c 0
 130 -182 82 -166 38 -141 c 1
 54 -114 l 1
 90 -133 128 -149 169 -149 c 0
 211 -149 253 -139 282 -110 c 0
 319 -73 338 -23 338 29 c 0
 338 68 328 107 300 135 c 0
 283 152 259 159 236 164 c 0
 200 171 164 172 128 170 c 1
 128 204 l 1
 157 206 186 210 214 220 c 0
 235 228 256 238 272 254 c 0
 291 274 306 298 306 326 c 0
 306 352 297 378 278 397 c 0
 260 415 235 422 209 422 c 0
 197 422 185 418 173 413 c 0
 157 405 142 395 128 385 c 1
 112 396 l 1
 135 418 159 440 188 455 c 1
 212 466 238 474 265 474 c 0
 297 474 330 467 353 444 c 0
 374 424 385 397 385 368 c 0
 385 331 370 296 344 270 c 0
 319 245 279 224 246 210 c 1
EndSplineSet
EndChar

StartChar: uni0034.onum
Encoding: 1114172 -1 155
Width: 501
Flags: MW
HStem: -192 21<311 311> -1 42<79 83 83 306> 456 19
VStem: 306 80
LayerCount: 2
Fore
SplineSet
380 476 m 1
 385 473 l 1
 383 390 381 306 381 222 c 0
 381 161 382 101 384 40 c 1
 417 41 449 42 482 45 c 1
 474 -1 l 1
 387 -1 l 1
 387 -54 387 -128 389 -162 c 1
 311 -192 l 1
 299 -183 l 1
 305 -122 306 -62 306 -1 c 1
 11 -1 l 1
 10 22 l 1
 299 451 l 1
 380 476 l 1
83 41 m 1
 306 41 l 1
 306 149 306 287 299 365 c 1
 287 365 l 1
 206 264 138 155 79 41 c 1
 83 41 l 1
EndSplineSet
EndChar

StartChar: uni0035.onum
Encoding: 1114173 -1 156
Width: 501
Flags: MW
HStem: -184 30<139.5 178.5 139.5 197> 169 46<185 283> 378 80<134.5 138 138 397>
VStem: 81 40<190 366 190 458> 335 106<14 43.5>
LayerCount: 2
Fore
SplineSet
421 458 m 1
 397 378 l 1
 138 378 l 2
 131 378 121 375 121 366 c 2
 121 190 l 1
 130 185 l 1
 170 204 214 215 259 215 c 0
 307 215 356 203 391 168 c 0
 424 135 441 89 441 42 c 0
 441 -14 420 -69 380 -109 c 0
 322 -168 238 -184 156 -184 c 0
 119 -184 82 -174 47 -159 c 1
 59 -134 l 1
 90 -146 123 -154 156 -154 c 0
 201 -154 247 -143 279 -111 c 0
 314 -76 335 -28 335 23 c 0
 335 64 325 106 296 135 c 0
 272 159 239 169 206 169 c 0
 164 169 127 145 99 114 c 1
 81 125 l 1
 81 458 l 1
 421 458 l 1
EndSplineSet
EndChar

StartChar: uni0036.onum
Encoding: 1114174 -1 157
Width: 501
Flags: MW
HStem: -13 45 314 63 641 59<353.5 423.5>
VStem: 45 88 392 79<181 192>
LayerCount: 2
Fore
SplineSet
460 691 m 1
 451 634 l 1
 444 629 l 1
 425 637 404 641 384 641 c 0
 323 641 269 609 224 568 c 1
 153 501 130 402 129 306 c 1
 136 305 l 1
 189 348 252 377 321 377 c 0
 359 377 397 361 424 334 c 0
 456 301 471 256 471 211 c 0
 471 151 441 98 399 56 c 0
 356 13 298 -13 236 -13 c 0
 191 -13 147 2 115 34 c 0
 62 87 45 164 45 238 c 0
 45 363 90 487 179 576 c 1
 214 613 254 645 299 668 c 0
 335 687 375 700 416 700 c 0
 431 700 446 696 460 691 c 1
132 275 m 1
 135 233 142 179 154 139 c 0
 163 110 176 81 197 60 c 0
 215 43 247 26 272 26 c 0
 304 26 317 27 345 44 c 0
 380 65 392 131 392 172 c 0
 392 212 375 251 346 279 c 1
 323 303 271 318 246 318 c 0
 193 318 168 302 132 275 c 1
EndSplineSet
EndChar

StartChar: uni0037.onum
Encoding: 1114175 -1 158
Width: 501
Flags: MW
HStem: -181 21<40 113 40 40> 382 86<90 90 90 390 58 90>
VStem: 37 461
LayerCount: 2
Fore
SplineSet
297 458 m 2
 498 458 l 1
 498 442 l 1
 419 330 343 217 271 101 c 0
 214 9 160 -84 113 -181 c 1
 40 -181 l 1
 37 -168 l 1
 164 9 280 193 396 377 c 1
 395 377 392 380 390 382 c 1
 58 382 l 1
 90 468 l 1
 159 460 228 458 297 458 c 2
EndSplineSet
EndChar

StartChar: uni0038.onum
Encoding: 1114176 -1 159
Width: 501
Flags: MW
HStem: -10 46 655 51
VStem: 40 83<156.5 178> 374 87
LayerCount: 2
Fore
SplineSet
220 344 m 1
 193 330 172 309 155 286 c 1
 134 255 123 214 123 177 c 0
 123 136 137 95 166 65 c 1
 187 45 226 21 255 21 c 0
 288 21 309 31 326 40 c 1
 352 57 375 103 375 168 c 0
 375 209 353 245 324 274 c 0
 299 299 250 324 220 344 c 1
300 394 m 1
 338 367 397 325 415 307 c 0
 444 278 461 239 461 197 c 0
 461 149 445 100 409 67 c 0
 357 19 303 -10 219 -10 c 0
 171 -10 122 1 87 36 c 0
 55 68 40 112 40 157 c 0
 40 199 52 242 83 272 c 1
 118 308 161 335 205 360 c 1
 172 382 142 409 119 441 c 1
 102 468 89 498 89 530 c 0
 89 570 103 611 134 638 c 0
 169 669 211 689 254 706 c 1
 284 704 314 700 342 691 c 0
 363 684 383 675 399 659 c 0
 423 635 435 602 435 568 c 0
 435 534 420 502 400 475 c 0
 374 441 336 414 300 394 c 1
283 410 m 1
 325 438 349 491 349 544 c 0
 349 572 342 601 322 622 c 0
 296 648 259 669 236 677 c 1
 216 670 184 647 174 623 c 0
 166 605 164 583 164 563 c 0
 164 537 177 513 193 492 c 1
 214 462 253 430 283 410 c 1
EndSplineSet
EndChar

StartChar: uni0039.onum
Encoding: 1114177 -1 160
Width: 501
Flags: MW
HStem: -182 28<72 109.5 72 123.5> 34 60<231.5 233.5> 416 54
VStem: 27 89<238.5 260> 369 99<189.5 221.5 147.5 235.5>
LayerCount: 2
Fore
SplineSet
359 102 m 1
 353 106 l 1
 315 75 263 34 204 34 c 1
 161 37 118 47 88 78 c 1
 46 119 27 176 27 234 c 0
 27 286 40 340 78 377 c 1
 113 413 179 444 234 470 c 1
 267 468 300 464 331 454 c 0
 356 445 379 434 397 416 c 0
 422 391 438 359 449 326 c 0
 462 285 468 243 468 200 c 0
 468 95 428 -7 353 -82 c 0
 280 -155 175 -182 72 -182 c 1
 72 -154 l 1
 147 -154 225 -135 279 -81 c 0
 325 -35 349 40 359 102 c 1
339 125 m 0
 360 146 369 175 369 204 c 0
 369 267 355 339 309 385 c 0
 284 410 239 430 208 434 c 1
 193 427 175 418 161 400 c 0
 130 363 116 311 116 264 c 0
 116 213 133 162 170 125 c 0
 190 105 217 94 246 94 c 0
 280 94 315 101 339 125 c 0
EndSplineSet
EndChar

StartChar: u1D504
Encoding: 120068 120068 161
Width: 717
Flags: MW
HStem: -27 21<299 299 565 565> 80 74 633 53<181 295>
VStem: 22 64<487 549> 112 69<338.5 395> 368 80<425 539.5> 501 83
LayerCount: 2
Fore
SplineSet
400 319 m 1
 222 155 l 1
 262 155 287 134 309 112 c 2
 357 64 l 1
 369 65 451 117 501 149 c 1
 501 474 l 2
 501 516 498 562 496 601 c 1
 623 697 l 1
 639 686 l 1
 624 673 603 654 597 644 c 1
 590 635 587 623 586 612 c 0
 581 558 581 456 581 378 c 0
 581 317 583 257 586 197 c 0
 587 186 588 174 591 165 c 0
 603 135 616 104 634 80 c 0
 636 77 640 76 643 76 c 0
 648 76 653 78 657 79 c 0
 673 86 688 93 703 101 c 1
 709 85 l 1
 565 -27 l 1
 534 22 518 71 502 123 c 1
 299 -27 l 1
 285 -4 269 18 251 37 c 1
 227 60 187 77 153 77 c 0
 116 77 84 60 48 37 c 1
 32 48 l 1
 144 133 l 2
 210 182 285 239 325 291 c 0
 359 335 368 398 368 452 c 0
 368 499 354 546 320 580 c 0
 287 613 244 633 197 633 c 0
 165 633 135 621 112 598 c 0
 96 583 86 560 86 538 c 0
 86 528 91 519 97 511 c 0
 106 497 117 485 128 474 c 0
 143 459 157 443 168 426 c 0
 175 414 181 402 181 388 c 0
 181 362 167 338 150 318 c 0
 126 291 96 271 64 255 c 1
 48 266 l 1
 66 276 82 289 95 305 c 0
 105 317 112 331 112 346 c 0
 112 356 107 365 101 373 c 0
 92 386 81 398 70 410 c 0
 44 436 22 468 22 506 c 0
 22 546 51 576 79 604 c 0
 103 628 192 686 272 686 c 0
 318 686 362 673 396 640 c 1
 429 606 448 563 448 516 c 0
 448 448 430 380 400 319 c 1
EndSplineSet
EndChar

StartChar: u1D505
Encoding: 120069 120069 162
Width: 904
Flags: MW
HStem: -27 64<510 615> 341 42 623 65
VStem: 48 70 134 74<330.5 401.5> 368 86 714 85<154.5 271>
LayerCount: 2
Fore
SplineSet
538 -27 m 0
 482 -27 426 -6 376 14 c 0
 331 32 287 48 251 48 c 0
 200 48 150 26 108 0 c 1
 96 21 l 1
 220 94 l 2
 345 168 364 224 367 252 c 0
 370 284 373 355 374 402 c 1
 374 564 279 628 216 628 c 0
 176 628 160 621 137 598 c 0
 121 583 119 562 119 541 c 0
 119 527 137 503 157 478 c 1
 182 449 208 414 208 389 c 0
 208 317 118 271 85 255 c 1
 70 266 l 1
 97 281 134 314 134 347 c 0
 134 359 115 386 90 417 c 0
 67 445 49 469 49 507 c 0
 49 547 72 577 100 605 c 0
 124 629 190 691 283 691 c 0
 341 691 400 635 427 580 c 1
 449 603 480 626 506 644 c 0
 543 668 584 686 629 686 c 0
 652 686 676 682 693 665 c 0
 703 655 709 628 715 599 c 0
 722 565 729 528 746 511 c 0
 752 506 763 505 771 505 c 1
 786 507 801 511 815 516 c 1
 815 494 l 1
 778 480 745 468 712 446 c 1
 623 383 l 1
 733 383 799 318 799 224 c 0
 799 181 792 161 777 123 c 1
 659 24 598 -27 538 -27 c 0
456 350 m 1
 495 364 560 388 586 399 c 0
 616 411 642 426 684 455 c 1
 673 460 667 471 662 481 c 0
 654 500 649 520 646 540 c 0
 642 566 634 599 623 610 c 0
 610 623 588 634 570 634 c 0
 531 634 510 621 490 599 c 0
 472 579 456 548 448 523 c 1
 454 498 458 442 458 399 c 0
 458 385 457 364 456 350 c 1
421 207 m 1
 304 117 l 1
 363 117 419 96 474 74 c 0
 516 58 573 37 602 37 c 0
 628 37 653 46 671 64 c 0
 701 93 714 134 714 175 c 0
 714 217 698 257 668 286 c 1
 632 323 584 341 533 341 c 0
 506 341 479 336 454 325 c 1
 450 284 440 244 421 207 c 1
EndSplineSet
EndChar

StartChar: uni212D
Encoding: 8493 8493 163
Width: 612
Flags: MW
HStem: -20 66 666 20<506 506>
VStem: 59 80<320 350.5> 304 96<355 414.5>
LayerCount: 2
Fore
SplineSet
267 601 m 1
 299 585 l 1
 362 630 434 659 506 686 c 1
 534 605 l 2
 538 596 539 593 544 587 c 0
 548 583 555 582 563 582 c 0
 579 582 601 587 613 591 c 1
 613 568 l 1
 578 551 535 532 496 527 c 1
 469 543 439 591 416 628 c 1
 403 624 392 617 384 607 c 0
 368 587 367 569 367 560 c 0
 367 542 373 512 380 492 c 0
 385 476 400 430 400 399 c 0
 400 364 393 328 368 303 c 0
 330 266 279 247 226 239 c 1
 214 255 l 1
 242 262 267 277 288 298 c 0
 304 314 304 343 304 367 c 0
 304 390 293 437 283 474 c 0
 278 493 274 514 274 534 c 0
 274 544 275 554 277 564 c 1
 242 563 209 549 187 522 c 0
 151 477 139 419 139 362 c 0
 139 278 159 193 219 133 c 0
 278 73 361 46 444 46 c 0
 478 46 502 52 516 59 c 2
 602 106 l 1
 602 86 l 1
 560 51 506 15 458 -16 c 1
 431 -22 404 -24 376 -24 c 0
 288 -24 200 4 138 65 c 0
 108 95 92 131 79 171 c 0
 63 219 59 269 59 319 c 0
 59 382 74 444 102 500 c 1
 153 539 208 575 267 601 c 1
EndSplineSet
EndChar

StartChar: u1D507
Encoding: 120071 120071 164
Width: 831
Flags: MW
HStem: -27 75<458.5 522.5> 64 69<144.5 158.5 139 169> 612 74
VStem: 27 24 299 92 671 75<306 443.5>
LayerCount: 2
Fore
SplineSet
368 559 m 1
 384 548 l 1
 370 539 358 528 346 516 c 0
 333 503 321 489 311 474 c 0
 305 464 299 453 299 442 c 0
 299 428 324 391 341 367 c 0
 361 339 389 298 389 277 c 0
 389 247 372 221 352 200 c 0
 323 169 276 146 241 131 c 1
 284 122 333 106 375 91 c 0
 419 75 492 48 512 48 c 0
 533 48 554 49 570 60 c 0
 589 73 613 109 629 133 c 0
 645 157 654 185 660 213 c 0
 668 250 671 287 671 325 c 0
 671 396 654 470 602 522 c 0
 535 589 440 612 346 612 c 0
 263 612 174 596 115 536 c 0
 71 492 51 426 48 367 c 1
 27 378 l 1
 27 460 53 535 112 593 c 0
 142 623 181 648 221 661 c 0
 270 677 322 690 373 690 c 0
 434 690 486 689 552 670 c 0
 595 658 642 625 676 591 c 0
 724 543 746 477 746 410 c 0
 746 314 725 236 691 147 c 1
 628 78 528 -27 469 -27 c 0
 448 -27 390 -5 357 8 c 0
 315 25 283 35 240 48 c 0
 212 56 183 64 155 64 c 0
 134 64 115 54 99 42 c 0
 78 27 62 6 48 -16 c 1
 32 0 l 1
 58 51 95 96 139 133 c 1
 178 133 218 140 252 161 c 0
 277 176 299 199 299 229 c 0
 299 257 285 282 267 303 c 0
 260 311 213 370 213 388 c 0
 213 404 214 420 222 434 c 0
 232 453 246 469 261 484 c 0
 292 515 329 539 368 559 c 1
EndSplineSet
EndChar

StartChar: u1D508
Encoding: 120072 120072 165
Width: 662
Flags: MW
HStem: -26 72 527 51 666 20<533 533>
VStem: 86 79<320 350.5> 304 122
LayerCount: 2
Fore
SplineSet
293 601 m 1
 325 585 l 1
 389 630 461 659 533 686 c 1
 561 605 l 2
 565 596 567 592 572 587 c 0
 576 583 584 582 593 582 c 0
 609 582 629 586 641 590 c 1
 641 568 l 1
 605 551 561 532 522 527 c 1
 496 542 466 590 443 627 c 1
 431 623 421 613 412 604 c 1
 404 593 395 580 394 566 c 1
 394 546 397 525 403 506 c 0
 418 461 426 437 426 369 c 1
 528 431 l 1
 549 402 575 376 605 356 c 1
 605 347 l 1
 538 309 l 1
 479 351 l 2
 474 354 469 356 464 356 c 0
 450 356 437 350 426 341 c 1
 420 314 403 291 384 271 c 0
 369 256 350 246 331 239 c 0
 305 228 278 222 251 218 c 1
 235 234 l 1
 264 239 290 254 315 271 c 1
 322 279 326 289 328 299 c 0
 331 313 332 330 332 344 c 0
 332 388 321 431 309 474 c 0
 304 493 300 512 300 532 c 0
 300 542 301 553 304 564 c 1
 269 563 235 549 214 522 c 0
 178 477 165 419 165 362 c 0
 165 278 185 193 245 133 c 0
 305 73 388 46 471 46 c 0
 485 46 498 47 512 48 c 1
 552 62 600 88 629 106 c 1
 629 86 l 1
 584 49 535 16 485 -16 c 1
 458 -21 431 -24 403 -24 c 0
 315 -24 228 4 170 60 c 0
 140 90 120 127 107 167 c 0
 91 215 86 269 86 319 c 0
 86 382 101 444 128 500 c 1
 180 539 234 575 293 601 c 1
EndSplineSet
EndChar

StartChar: u1D509
Encoding: 120073 120073 166
Width: 611
Flags: MW
HStem: -155 38 160 59 500 80<473.5 540> 617 69<184 271>
VStem: 107 75 235 74<356.5 427.5> 405 80<48 49>
LayerCount: 2
Fore
SplineSet
368 293 m 1
 490 410 l 1
 513 386 533 361 544 330 c 1
 501 271 l 1
 489 292 473 314 448 314 c 0
 431 314 399 292 377 274 c 1
 464 162 l 1
 480 139 485 103 485 74 c 0
 485 22 463 -27 426 -64 c 0
 371 -119 297 -155 219 -155 c 0
 186 -155 156 -140 134 -117 c 1
 107 -92 103 -38 103 -8 c 0
 103 11 105 29 107 48 c 0
 109 62 110 77 110 92 c 0
 110 134 104 146 96 154 c 0
 91 160 83 162 75 162 c 0
 51 162 27 150 16 144 c 1
 11 165 l 1
 69 204 116 219 142 219 c 0
 153 219 163 216 171 207 c 0
 185 190 193 160 193 134 c 0
 193 108 193 95 187 69 c 0
 182 48 179 27 179 5 c 0
 179 -49 196 -73 208 -85 c 0
 225 -103 247 -120 272 -120 c 0
 307 -120 338 -106 362 -82 c 0
 392 -52 405 -4 405 37 c 0
 405 61 395 84 382 106 c 0
 360 142 339 178 315 213 c 1
 293 243 272 274 255 307 c 0
 245 326 235 346 235 367 c 0
 235 400 254 428 274 452 c 0
 305 489 343 518 384 543 c 1
 349 564 313 583 275 598 c 0
 250 608 224 617 197 617 c 0
 171 617 147 604 128 585 c 0
 96 553 84 507 75 463 c 1
 59 474 l 1
 65 532 81 591 123 633 c 0
 158 668 206 686 256 686 c 0
 286 686 314 676 341 665 c 0
 384 647 424 625 464 601 c 0
 483 590 505 580 528 580 c 0
 552 580 588 617 612 643 c 1
 621 629 l 1
 598 598 566 557 538 530 c 0
 523 516 506 500 485 500 c 0
 462 500 435 511 412 525 c 1
 384 516 350 496 334 478 c 0
 320 463 309 440 309 415 c 0
 309 397 316 379 324 364 c 0
 337 340 352 315 368 293 c 1
EndSplineSet
EndChar

StartChar: u1D50A
Encoding: 120074 120074 167
Width: 785
Flags: MW
HStem: -27 69 396 56 672 20<522 522>
VStem: 64 80 307 93 623 88
LayerCount: 2
Fore
SplineSet
672 606 m 1
 496 452 l 1
 512 454 526 455 541 455 c 0
 598 455 638 432 655 418 c 0
 688 391 711 348 711 303 c 0
 711 224 674 151 618 96 c 1
 464 -8 l 1
 433 -19 413 -25 381 -25 c 0
 295 -25 202 8 150 60 c 0
 82 128 66 224 66 319 c 0
 66 356 70 389 79 425 c 0
 87 453 98 477 110 502 c 1
 160 538 212 572 272 601 c 1
 304 585 l 1
 416 660 l 1
 426 649 l 1
 399 626 373 596 373 559 c 0
 373 533 389 463 399 422 c 1
 450 449 l 1
 483 471 528 506 557 535 c 1
 510 551 463 588 454 628 c 1
 522 692 l 1
 534 668 549 647 569 630 c 0
 585 617 603 607 623 607 c 0
 637 607 653 614 668 629 c 1
 672 606 l 1
235 213 m 1
 219 229 l 1
 249 236 275 256 293 282 c 0
 305 299 311 327 311 348 c 0
 311 380 307 407 299 436 c 0
 290 469 281 501 281 533 c 0
 281 543 282 553 284 564 c 1
 251 562 223 553 200 528 c 0
 160 486 146 425 146 367 c 0
 146 279 167 190 229 128 c 0
 281 76 342 39 415 39 c 0
 466 39 510 46 555 83 c 0
 607 126 624 196 624 255 c 0
 624 292 601 331 576 354 c 0
 542 385 500 402 452 402 c 0
 436 402 419 400 402 396 c 1
 402 352 397 303 365 271 c 0
 329 236 283 221 235 213 c 1
EndSplineSet
EndChar

StartChar: uni210C
Encoding: 8460 8460 168
Width: 720
Flags: MW
HStem: -133 53<424 480> 32 69 404 64<437 437.5> 538 69<394.5 453> 647 18
VStem: 123 83 559 86<195.5 210>
LayerCount: 2
Fore
SplineSet
368 -107 m 1
 416 -43 l 1
 427 -65 449 -80 474 -80 c 0
 486 -80 498 -77 506 -71 c 0
 515 -65 525 -48 532 -34 c 0
 544 -8 549 28 553 56 c 0
 558 101 559 146 559 191 c 0
 559 229 557 266 547 302 c 0
 540 328 531 354 512 372 c 0
 488 396 454 404 421 404 c 0
 392 404 362 393 338 375 c 0
 309 352 293 339 266 307 c 1
 287 255 294 209 294 185 c 0
 294 167 292 147 284 134 c 1
 252 93 178 0 159 -16 c 1
 144 -2 128 10 112 20 c 1
 100 29 85 36 70 36 c 0
 41 36 18 11 4 -4 c 1
 -8 10 l 1
 21 62 70 116 111 116 c 0
 143 116 180 86 200 62 c 1
 220 87 222 106 224 131 c 1
 224 156 213 194 200 218 c 0
 177 260 159 303 141 348 c 0
 130 375 123 402 123 431 c 0
 123 473 149 508 175 540 c 0
 216 590 267 630 320 667 c 1
 354 633 398 607 448 607 c 0
 458 607 469 612 477 618 c 1
 484 622 512 644 534 661 c 1
 547 646 l 1
 504 604 437 538 405 538 c 0
 384 538 364 543 345 550 c 1
 316 559 279 577 253 590 c 1
 237 574 225 559 214 537 c 0
 206 521 204 497 204 479 c 0
 204 440 234 376 256 330 c 1
 309 385 371 430 437 468 c 1
 501 468 566 454 618 415 c 1
 634 358 645 299 645 239 c 0
 645 152 638 64 602 -16 c 1
 551 -63 475 -133 437 -133 c 0
 411 -133 386 -125 368 -107 c 1
EndSplineSet
EndChar

StartChar: uni2111
Encoding: 8465 8465 169
Width: 554
Flags: MW
HStem: -27 48 601 85<194.5 202>
VStem: 375 89
LayerCount: 2
Fore
SplineSet
522 671 m 1
 533 655 l 1
 486 611 435 573 378 543 c 1
 335 559 278 580 249 590 c 0
 230 596 212 601 192 601 c 0
 162 601 133 591 112 569 c 0
 83 540 59 494 45 456 c 1
 28 467 l 1
 41 502 60 545 76 579 c 0
 87 602 102 628 119 646 c 1
 145 676 175 686 214 686 c 0
 256 686 318 657 368 633 c 0
 385 625 402 617 421 617 c 0
 436 617 456 623 468 630 c 0
 490 641 507 657 522 671 c 1
43 -16 m 1
 38 0 l 1
 70 44 147 124 152 128 c 1
 179 70 184 60 197 47 c 0
 214 30 242 18 266 18 c 0
 296 18 314 30 334 50 c 0
 350 66 361 96 367 118 c 0
 376 147 378 177 378 207 c 0
 378 255 373 296 368 334 c 0
 364 367 360 401 360 429 c 0
 360 441 361 452 362 463 c 1
 402 507 451 553 502 585 c 1
 514 578 l 1
 494 560 475 537 461 514 c 0
 452 498 449 482 449 464 c 0
 449 442 450 410 452 399 c 0
 459 348 464 293 464 245 c 0
 464 183 450 119 405 74 c 0
 348 17 274 -27 192 -27 c 0
 155 -27 123 -3 96 21 c 1
 43 -16 l 1
EndSplineSet
EndChar

StartChar: u1D50D
Encoding: 120077 120077 170
Width: 552
Flags: MW
HStem: -139 43 80 64<44 126.5> 516 64 601 85
VStem: 104 77 384 74<55.5 63.5>
LayerCount: 2
Fore
SplineSet
69 496 m 1
 54 506 l 1
 73 554 98 599 133 637 c 0
 157 663 187 686 224 686 c 0
 242 686 259 679 275 670 c 0
 299 657 320 640 341 623 c 0
 355 611 370 600 386 591 c 0
 397 585 409 580 421 580 c 0
 457 580 490 596 522 612 c 1
 522 591 l 1
 470 564 393 526 362 516 c 1
 332 522 307 540 283 559 c 0
 256 580 227 602 192 602 c 0
 168 602 145 592 128 577 c 0
 103 555 85 525 69 496 c 1
-13 60 m 1
 -18 73 l 1
 4 91 35 114 60 127 c 0
 78 136 97 144 118 144 c 0
 135 144 153 140 165 128 c 0
 181 112 181 79 181 53 c 0
 181 27 183 1 188 -25 c 0
 192 -41 197 -60 208 -71 c 0
 226 -90 252 -103 277 -103 c 0
 303 -103 327 -95 345 -76 c 1
 373 -49 384 -2 384 37 c 0
 384 90 371 147 357 197 c 0
 342 249 329 310 329 359 c 0
 329 369 330 379 331 388 c 1
 370 442 417 490 469 532 c 1
 485 522 l 1
 463 500 443 478 428 450 c 0
 417 431 416 405 416 383 c 0
 416 347 421 305 428 266 c 1
 441 206 458 106 458 85 c 0
 458 26 430 -28 389 -69 c 0
 349 -110 297 -139 240 -139 c 0
 204 -139 165 -133 139 -107 c 0
 117 -84 111 -52 107 -22 c 0
 104 6 99 44 91 58 c 0
 83 72 69 80 54 80 c 0
 34 80 4 71 -13 60 c 1
EndSplineSet
EndChar

StartChar: u1D50E
Encoding: 120078 120078 171
Width: 668
Flags: MW
HStem: -27 64 436 64<390 477> 628 53
VStem: 219 68 479 77
LayerCount: 2
Fore
SplineSet
634 348 m 1
 466 272 l 1
 466 271 l 1
 481 271 499 267 512 255 c 0
 531 237 540 194 548 152 c 0
 553 127 559 92 577 72 c 0
 586 62 598 53 613 53 c 0
 637 53 667 62 687 77 c 1
 690 60 l 1
 668 38 637 10 610 -6 c 0
 593 -17 575 -27 554 -27 c 0
 534 -27 514 -16 504 0 c 0
 488 25 483 54 479 85 c 0
 474 129 463 187 442 207 c 1
 426 224 402 229 378 229 c 0
 347 229 316 220 288 207 c 1
 288 181 287 154 283 128 c 1
 258 90 229 55 195 26 c 0
 167 2 141 -14 107 -25 c 1
 68 -22 37 2 16 32 c 1
 73 98 l 1
 83 98 l 1
 90 83 99 68 111 56 c 0
 121 45 137 36 152 36 c 0
 173 36 188 45 196 53 c 0
 216 73 219 111 219 144 c 0
 219 194 207 244 192 293 c 0
 179 336 160 399 160 427 c 0
 160 440 165 455 166 457 c 0
 187 510 221 556 261 596 c 0
 316 651 391 681 469 681 c 0
 500 681 531 676 560 664 c 0
 584 654 605 639 618 617 c 1
 618 611 619 605 619 599 c 0
 619 566 612 532 602 500 c 1
 586 495 l 1
 586 529 573 562 549 586 c 0
 513 622 465 634 410 634 c 0
 352 634 312 617 278 583 c 0
 259 564 241 519 241 490 c 0
 241 456 248 407 261 367 c 1
 296 404 332 438 375 465 c 1
 403 484 435 500 469 500 c 0
 485 500 500 496 512 484 c 0
 529 468 541 436 551 409 c 0
 557 393 570 359 607 359 c 0
 612 359 622 361 628 364 c 1
 634 348 l 1
289 230 m 1
 328 248 364 262 408 270 c 1
 441 283 476 298 508 314 c 1
 486 327 476 360 469 383 c 0
 464 399 448 418 436 427 c 0
 427 433 410 436 403 436 c 0
 377 436 350 423 330 406 c 1
 302 384 285 357 267 327 c 1
 278 299 284 261 289 230 c 1
EndSplineSet
EndChar

StartChar: u1D50F
Encoding: 120079 120079 172
Width: 666
Flags: MW
HStem: -27 91<454 485 446 493> 404 48 639 47
VStem: 160 80<458.5 536> 478 93 625 20<186 186>
LayerCount: 2
Fore
SplineSet
629 197 m 1
 645 186 l 1
 638 148 630 108 616 70 c 0
 607 47 598 23 581 5 c 0
 553 -23 512 -27 474 -27 c 0
 434 -27 395 -18 356 -7 c 0
 300 9 246 30 192 53 c 0
 172 62 150 69 128 69 c 0
 98 69 68 26 44 -15 c 1
 32 0 l 1
 52 47 70 88 103 127 c 0
 111 136 130 141 143 143 c 1
 174 143 l 1
 190 148 222 166 235 182 c 0
 248 197 253 212 253 227 c 0
 253 250 226 303 208 335 c 0
 195 360 182 386 172 413 c 0
 166 431 160 449 160 468 c 0
 160 491 169 512 179 531 c 0
 194 557 213 580 235 601 c 0
 291 658 368 686 448 686 c 0
 484 686 520 680 546 654 c 0
 566 635 572 607 572 571 c 0
 572 560 571 549 570 538 c 0
 568 519 568 491 568 483 c 0
 568 476 572 469 576 464 c 0
 586 454 617 452 635 452 c 1
 635 434 l 1
 518 404 l 1
 515 404 l 2
 501 404 475 425 475 450 c 0
 475 462 476 482 480 511 c 0
 481 522 482 532 482 542 c 0
 482 571 477 595 458 614 c 0
 436 636 406 644 376 644 c 0
 336 644 298 630 270 602 c 0
 250 582 240 550 240 522 c 0
 240 502 244 485 250 467 c 0
 258 441 271 413 283 388 c 0
 300 353 325 298 325 267 c 0
 325 260 323 254 320 250 c 0
 282 204 230 146 209 132 c 1
 254 113 310 92 358 80 c 0
 392 71 428 64 464 64 c 0
 506 64 550 70 581 101 c 0
 607 127 619 162 629 197 c 1
EndSplineSet
EndChar

StartChar: u1D510
Encoding: 120080 120080 173
Width: 1049
Flags: MW
HStem: -27 21<192 192 884 884> 26 80<92.5 151.5> 623 63
VStem: 27 69 118 74 352 85 618 91<383 388.5> 826 80<271 292.5>
LayerCount: 2
Fore
SplineSet
421 569 m 0
 435 587 450 605 469 617 c 0
 504 641 543 660 586 660 c 0
 609 660 633 655 650 639 c 1
 667 621 678 600 686 577 c 1
 708 603 734 625 762 644 c 0
 797 669 835 692 879 692 c 0
 897 692 915 684 927 671 c 0
 938 658 947 633 954 612 c 0
 959 597 964 580 975 569 c 0
 983 562 994 560 1004 560 c 0
 1020 560 1035 564 1049 569 c 1
 1049 554 l 1
 1008 533 970 506 938 474 c 1
 925 448 918 420 914 392 c 1
 907 354 906 315 906 277 c 0
 906 230 906 170 916 138 c 0
 923 117 925 114 940 98 c 1
 946 90 962 80 970 80 c 0
 976 80 1007 90 1028 101 c 1
 1028 82 l 1
 884 -27 l 1
 827 99 l 1
 826 271 l 2
 826 314 833 357 842 399 c 1
 864 433 891 463 922 490 c 1
 915 491 907 499 900 506 c 0
 895 511 885 541 879 559 c 0
 872 580 862 610 852 617 c 1
 843 625 832 628 820 628 c 0
 795 628 764 620 745 603 c 0
 723 584 711 572 695 546 c 1
 701 515 709 467 709 436 c 0
 709 330 686 225 645 128 c 1
 522 -22 l 1
 504 -5 472 21 453 21 c 0
 444 21 434 21 427 16 c 1
 414 9 406 0 394 -14 c 1
 381 0 l 1
 406 36 448 90 469 101 c 0
 474 104 479 104 485 104 c 0
 492 104 499 103 506 101 c 0
 515 99 548 77 564 66 c 1
 588 90 595 119 602 149 c 0
 618 213 618 294 618 367 c 0
 618 410 617 452 610 494 c 0
 606 521 601 547 586 569 c 0
 571 592 543 601 517 601 c 0
 496 601 473 592 459 578 c 1
 444 565 433 547 424 529 c 1
 431 501 434 454 434 447 c 0
 434 334 421 220 362 122 c 1
 192 -27 l 1
 178 -12 162 1 144 12 c 1
 133 20 121 26 107 26 c 0
 78 26 55 6 38 -16 c 1
 27 0 l 1
 44 28 64 55 88 78 c 0
 104 92 122 106 144 106 c 0
 159 106 173 100 186 92 c 0
 201 83 227 61 241 48 c 1
 258 61 275 76 293 94 c 0
 319 120 329 163 336 198 c 1
 349 254 353 310 353 367 c 2
 353 408 l 1
 352 460 340 519 313 556 c 0
 286 594 242 630 195 630 c 0
 156 630 136 622 117 607 c 0
 104 596 96 573 96 564 c 0
 96 531 119 498 134 481 c 1
 145 467 164 444 174 427 c 0
 180 416 187 399 187 389 c 0
 187 360 173 337 155 317 c 0
 133 292 96 271 64 255 c 1
 49 266 l 1
 67 276 85 292 98 308 c 0
 108 320 113 332 113 347 c 0
 113 357 106 366 100 374 c 0
 91 387 79 404 69 417 c 0
 46 445 28 469 28 507 c 0
 28 547 51 577 79 605 c 0
 103 629 176 691 262 691 c 0
 308 691 351 657 381 620 c 0
 394 604 405 583 414 561 c 1
 417 563 419 566 421 569 c 0
EndSplineSet
EndChar

StartChar: u1D511
Encoding: 120081 120081 174
Width: 832
Flags: MW
HStem: -22 64 490 64 628 58<570.5 631.5>
VStem: 27 69 112 80 373 75<312 326.5> 626 72
LayerCount: 2
Fore
SplineSet
422 533 m 1
 435 548 468 594 474 604 c 0
 504 652 567 686 623 686 c 0
 640 686 656 685 672 681 c 0
 684 678 695 674 703 665 c 0
 716 652 724 631 730 612 c 0
 734 597 743 572 746 569 c 0
 755 561 765 554 778 554 c 0
 793 554 810 558 823 565 c 1
 823 551 l 1
 793 530 762 507 735 484 c 0
 725 476 716 465 714 452 c 0
 702 395 698 336 698 277 c 0
 698 235 701 193 712 152 c 0
 719 124 727 106 748 85 c 0
 752 81 761 76 767 76 c 0
 789 76 813 89 830 98 c 1
 830 76 l 1
 686 -29 l 1
 622 104 l 1
 623 271 l 2
 623 311 623 367 629 388 c 0
 631 396 635 403 639 410 c 1
 660 438 679 458 704 484 c 1
 686 488 678 499 672 507 c 0
 664 518 657 540 650 564 c 0
 645 582 636 599 623 612 c 0
 613 622 600 628 586 628 c 0
 555 628 521 610 499 589 c 1
 468 557 454 538 433 501 c 1
 440 459 448 394 448 351 c 0
 448 273 441 192 405 122 c 0
 400 113 392 98 389 96 c 0
 347 59 306 28 258 -4 c 0
 246 -11 223 -22 210 -22 c 0
 175 -22 142 8 124 36 c 1
 180 101 l 1
 192 101 l 1
 197 88 206 72 219 58 c 0
 230 47 248 40 263 40 c 0
 291 40 312 60 331 79 c 0
 349 97 356 123 362 148 c 0
 371 187 373 226 373 266 c 0
 373 387 345 507 314 550 c 0
 287 588 243 622 196 622 c 0
 156 622 135 618 113 597 c 0
 101 586 96 572 96 551 c 0
 96 531 120 492 135 475 c 1
 146 461 165 438 175 421 c 0
 181 410 188 393 188 383 c 0
 188 354 174 331 156 311 c 0
 134 286 97 265 65 249 c 1
 50 260 l 1
 68 270 86 286 99 302 c 0
 109 314 114 326 114 341 c 0
 114 351 107 360 101 368 c 0
 92 381 80 398 70 411 c 0
 47 439 29 463 29 501 c 0
 29 541 52 571 80 599 c 0
 104 623 170 685 263 685 c 0
 309 685 352 651 382 614 c 0
 398 595 412 564 422 533 c 1
EndSplineSet
EndChar

StartChar: u1D512
Encoding: 120082 120082 175
Width: 828
Flags: MW
HStem: -27 64 596 68 709 20<336 352 352 352>
VStem: 80 85<404 492.5> 187 74<182 275.5> 655 91<299 436>
LayerCount: 2
Fore
SplineSet
432 596 m 1
 346 593 l 2
 327 593 307 596 290 606 c 0
 278 613 267 624 267 639 c 0
 267 679 312 698 336 729 c 1
 352 729 l 1
 347 722 342 712 342 703 c 0
 342 687 362 680 378 676 c 0
 397 671 463 666 506 662 c 0
 541 659 575 653 608 642 c 0
 633 633 658 620 676 601 c 0
 729 548 746 473 746 399 c 0
 746 340 740 281 722 225 c 0
 709 183 689 141 655 112 c 1
 611 72 564 36 511 9 c 0
 473 -11 432 -27 389 -27 c 0
 334 -27 280 -15 229 5 c 0
 212 12 194 20 176 26 c 0
 159 32 141 37 123 37 c 0
 84 37 49 16 27 -16 c 1
 11 0 l 1
 39 37 69 73 102 106 c 1
 146 121 187 157 187 207 c 0
 187 222 182 236 176 250 c 0
 167 269 156 286 144 303 c 0
 127 328 99 366 92 377 c 0
 86 387 80 398 80 410 c 0
 80 445 95 477 116 505 c 0
 142 540 176 568 214 591 c 1
 235 580 l 1
 216 566 198 550 184 530 c 0
 174 517 165 501 165 484 c 0
 165 467 171 451 178 435 c 0
 187 411 200 389 214 367 c 0
 234 333 261 290 261 261 c 0
 261 235 250 212 236 191 c 0
 217 161 187 135 160 112 c 1
 172 112 188 108 199 104 c 0
 231 94 262 81 293 69 c 0
 344 50 404 36 460 36 c 0
 534 36 592 73 622 141 c 0
 648 198 655 268 655 330 c 0
 655 374 651 418 639 461 c 1
 629 493 615 524 591 548 c 0
 574 566 551 576 527 584 c 0
 496 593 464 596 432 596 c 1
EndSplineSet
EndChar

StartChar: u1D513
Encoding: 120083 120083 176
Width: 823
Flags: MW
HStem: -219 21<325 325> -11 75 80 74<237.5 289.5> 633 59<558 649>
VStem: 27 64 113 74 331 77 602 74<331.5 404> 698 53
LayerCount: 2
Fore
SplineSet
410 509 m 1
 410 122 l 1
 411 122 l 1
 460 106 548 77 556 74 c 0
 575 69 604 62 619 62 c 0
 643 62 666 70 682 87 c 0
 696 101 700 118 700 138 c 0
 700 154 692 175 686 190 c 1
 676 211 664 231 650 250 c 0
 629 280 602 317 602 346 c 0
 602 366 613 384 624 400 c 0
 642 424 667 445 690 464 c 1
 677 467 661 479 650 490 c 0
 637 502 635 531 634 554 c 0
 633 576 631 605 618 617 c 1
 606 630 587 633 570 633 c 0
 546 633 525 628 506 615 c 0
 462 585 439 554 410 509 c 1
398 540 m 1
 400 543 403 546 405 548 c 0
 423 571 442 593 464 612 c 0
 514 655 572 692 639 692 c 0
 659 692 679 685 693 671 c 0
 710 653 716 612 719 580 c 0
 720 567 723 550 730 543 c 0
 739 534 750 530 762 530 c 0
 774 530 787 534 799 538 c 1
 804 522 l 1
 773 506 744 488 719 463 c 0
 708 451 697 439 688 426 c 0
 682 418 676 409 676 399 c 0
 676 370 696 340 714 314 c 1
 734 283 751 250 751 213 c 0
 751 144 718 81 666 37 c 0
 635 12 600 -11 559 -11 c 0
 549 -11 538 -8 528 -5 c 2
 410 37 l 1
 410 -25 413 -87 421 -149 c 1
 415 -154 357 -196 325 -219 c 1
 304 -208 l 1
 309 -196 316 -152 320 -123 c 0
 329 -61 331 0 331 63 c 1
 298 73 268 80 251 80 c 0
 224 80 200 66 181 48 c 1
 162 28 145 6 128 -16 c 1
 118 5 l 1
 137 43 157 81 187 112 c 0
 212 137 246 154 283 154 c 0
 296 154 313 151 331 146 c 1
 331 396 l 2
 331 450 319 511 291 550 c 0
 264 588 220 622 173 622 c 0
 134 622 109 615 89 597 c 0
 77 585 71 572 71 551 c 0
 71 526 97 492 112 475 c 1
 123 461 142 438 152 421 c 0
 158 410 165 393 165 383 c 0
 165 354 151 331 133 311 c 0
 111 286 74 265 42 249 c 1
 27 260 l 1
 45 270 63 286 76 302 c 0
 86 314 91 326 91 341 c 0
 91 351 84 360 78 368 c 0
 69 381 57 398 47 411 c 0
 24 439 6 463 6 501 c 0
 6 541 29 571 57 599 c 0
 81 623 146 685 240 685 c 0
 286 685 329 651 359 614 c 0
 376 594 389 567 398 540 c 1
EndSplineSet
EndChar

StartChar: u1D514
Encoding: 120084 120084 177
Width: 828
Flags: MW
HStem: -27 64 596 68 709 20<336 352 352 352>
VStem: 80 85<404 492.5> 187 74<182 275.5> 655 91<347.5 352>
LayerCount: 2
Fore
SplineSet
432 596 m 1
 346 593 l 2
 327 593 307 596 290 606 c 0
 278 613 267 624 267 639 c 0
 267 647 267 660 278 671 c 2
 336 729 l 1
 352 729 l 1
 347 722 342 712 342 703 c 0
 342 699 343 696 346 692 c 0
 354 683 367 679 378 676 c 0
 397 671 463 666 506 662 c 0
 541 659 575 653 608 642 c 0
 633 633 658 620 676 601 c 0
 729 548 746 473 746 399 c 0
 746 296 724 174 655 112 c 0
 638 97 621 82 603 68 c 1
 621 48 638 29 660 14 c 0
 675 4 691 -6 709 -6 c 0
 736 -6 761 6 783 21 c 1
 783 -6 l 1
 666 -69 l 1
 633 -59 601 -46 570 -29 c 0
 550 -18 530 -6 513 10 c 1
 511 9 l 2
 473 -11 432 -27 389 -27 c 0
 334 -27 280 -15 229 5 c 0
 212 12 194 20 176 26 c 0
 159 32 141 37 123 37 c 0
 84 37 49 16 27 -16 c 1
 11 0 l 1
 39 37 69 73 102 106 c 1
 146 121 187 157 187 207 c 0
 187 222 182 236 176 250 c 0
 167 269 156 286 144 303 c 0
 127 328 99 366 92 377 c 0
 86 387 80 398 80 410 c 0
 80 445 95 477 116 505 c 0
 142 540 176 568 214 591 c 1
 235 580 l 1
 216 566 198 550 184 530 c 0
 174 517 165 501 165 484 c 0
 165 467 171 451 178 435 c 0
 187 411 200 389 214 367 c 0
 234 333 261 290 261 261 c 0
 261 235 250 212 236 191 c 0
 217 161 184 132 159 113 c 1
 171 113 188 108 199 104 c 0
 231 94 262 81 293 69 c 0
 344 50 401 37 456 37 c 0
 530 37 595 78 625 146 c 0
 651 203 655 268 655 330 c 0
 655 374 651 418 639 461 c 1
 629 493 615 524 591 548 c 0
 574 566 551 576 527 584 c 0
 496 593 464 596 432 596 c 1
EndSplineSet
EndChar

StartChar: uni211C
Encoding: 8476 8476 178
Width: 828
Flags: MW
HStem: -27 21<693 693> 26 80<95.5 150> 341 47 628 58
VStem: 27 64 112 75 352 82 629 82
LayerCount: 2
Fore
SplineSet
432 348 m 1
 453 359 502 381 547 388 c 1
 676 463 l 1
 663 464 649 469 639 479 c 0
 632 486 625 523 623 548 c 0
 622 567 616 585 607 601 c 0
 599 617 583 628 565 628 c 0
 540 628 513 618 496 600 c 1
 471 576 452 550 430 512 c 1
 431 507 435 464 435 451 c 0
 435 418 435 382 432 348 c 1
418 548 m 1
 422 553 l 2
 438 573 456 594 474 612 c 0
 516 654 569 686 629 686 c 0
 651 686 673 677 687 660 c 0
 702 642 706 615 709 591 c 0
 711 575 710 558 714 541 c 0
 717 527 722 513 761 513 c 0
 774 513 787 515 799 517 c 1
 806 504 l 1
 777 493 746 477 719 463 c 0
 684 445 631 416 596 388 c 1
 647 388 672 373 698 351 c 1
 701 285 705 181 714 154 c 0
 721 132 729 111 741 91 c 0
 748 81 755 69 767 69 c 0
 772 69 806 82 826 90 c 1
 826 74 l 1
 693 -27 l 1
 629 90 l 1
 630 121 632 150 632 179 c 0
 632 277 615 296 603 308 c 0
 582 329 549 343 520 343 c 0
 497 343 455 332 428 324 c 1
 425 302 421 279 416 257 c 0
 404 206 389 163 360 119 c 1
 304 74 247 19 192 -27 c 1
 170 -5 132 26 111 26 c 0
 80 26 56 8 38 -16 c 1
 27 0 l 1
 43 25 61 55 88 78 c 0
 104 92 121 106 144 106 c 0
 156 106 178 99 192 89 c 0
 210 76 224 63 238 48 c 1
 273 72 301 100 320 138 c 0
 334 166 339 197 344 228 c 0
 350 274 354 320 354 367 c 0
 354 414 353 494 314 551 c 0
 288 590 243 623 196 623 c 0
 156 623 140 616 117 593 c 0
 101 578 99 558 99 536 c 0
 99 524 120 493 135 476 c 1
 146 462 165 439 175 422 c 0
 181 411 188 394 188 384 c 0
 188 355 174 332 156 312 c 0
 134 287 97 266 65 250 c 1
 50 261 l 1
 68 271 86 287 99 303 c 0
 109 315 114 327 114 342 c 0
 114 352 107 361 101 369 c 0
 92 382 80 399 70 412 c 0
 47 440 29 464 29 502 c 0
 29 542 52 572 80 600 c 0
 104 624 170 686 263 686 c 0
 309 686 352 652 382 615 c 0
 397 597 409 573 418 548 c 1
EndSplineSet
EndChar

StartChar: u1D516
Encoding: 120086 120086 179
Width: 828
Flags: MW
HStem: -27 53<415.5 427.5> 341 69<538 632.5> 511 80 628 64
VStem: 65 74 229 75<377 434.5> 676 75
LayerCount: 2
Fore
SplineSet
339 508 m 1
 352 495 l 1
 339 491 329 483 320 474 c 0
 308 461 304 443 304 426 c 0
 304 410 309 394 320 383 c 0
 332 371 350 367 368 367 c 0
 390 367 446 380 485 388 c 1
 527 398 580 410 613 410 c 0
 652 410 691 395 719 367 c 0
 743 343 751 310 751 277 c 0
 751 203 723 132 671 80 c 0
 593 2 482 -27 373 -27 c 0
 297 -27 218 -7 163 48 c 0
 95 116 56 212 56 309 c 0
 56 406 95 495 164 564 c 0
 231 632 332 670 425 689 c 1
 478 661 544 627 581 611 c 0
 605 601 629 591 655 591 c 0
 677 591 694 597 710 612 c 0
 725 627 732 650 737 666 c 1
 756 655 l 1
 748 623 732 593 709 569 c 0
 681 541 644 525 607 511 c 1
 576 514 521 546 480 569 c 1
 452 586 423 601 393 613 c 0
 375 621 356 628 336 628 c 0
 286 628 243 599 208 564 c 0
 159 515 139 446 139 378 c 0
 139 280 170 182 240 112 c 0
 296 55 376 26 455 26 c 0
 519 26 584 31 630 77 c 0
 662 110 677 161 677 207 c 0
 677 244 666 283 639 309 c 0
 617 331 586 341 554 341 c 0
 522 341 479 332 442 325 c 0
 404 317 363 309 325 309 c 0
 300 309 274 312 256 330 c 0
 240 346 229 366 229 388 c 0
 229 417 242 443 261 463 c 1
 283 484 310 500 339 508 c 1
EndSplineSet
EndChar

StartChar: u1D517
Encoding: 120087 120087 180
Width: 669
Flags: MW
HStem: -27 21 48 71 623 63<249.5 251>
VStem: 32 43 261 79 384 69<198 265>
LayerCount: 2
Fore
SplineSet
607 133 m 1
 618 117 l 1
 590 85 561 55 529 28 c 0
 504 6 477 -13 448 -27 c 1
 404 -21 364 0 325 21 c 0
 297 36 267 48 235 48 c 0
 216 48 198 41 181 33 c 0
 156 21 134 6 112 -11 c 1
 102 5 l 1
 140 45 181 82 224 117 c 1
 234 118 244 118 254 118 c 0
 273 118 291 117 309 112 c 1
 330 124 349 140 364 159 c 0
 375 173 384 189 384 207 c 0
 384 221 378 233 371 244 c 0
 361 262 349 278 336 293 c 0
 306 327 267 372 261 404 c 1
 269 438 284 468 302 497 c 1
 326 533 353 566 384 596 c 1
 332 614 278 623 224 623 c 0
 179 623 132 615 100 583 c 0
 83 566 74 540 74 516 c 0
 74 477 103 445 139 431 c 1
 75 367 l 1
 43 392 24 425 24 465 c 0
 24 520 65 583 106 621 c 0
 155 667 216 686 283 686 c 0
 340 686 397 677 453 665 c 1
 492 658 533 649 570 649 c 0
 612 649 649 672 676 703 c 1
 676 681 l 1
 607 591 l 1
 586 578 562 575 538 575 c 0
 500 575 447 580 410 589 c 1
 387 571 380 564 363 538 c 0
 351 520 336 486 336 463 c 0
 336 450 341 438 347 427 c 0
 355 411 366 397 378 383 c 0
 399 360 418 335 434 309 c 0
 444 292 453 275 453 255 c 0
 453 230 439 208 424 189 c 0
 399 156 368 129 337 103 c 1
 380 83 435 58 474 58 c 0
 496 58 517 67 536 78 c 0
 562 92 586 112 607 133 c 1
EndSplineSet
EndChar

StartChar: u1D518
Encoding: 120088 120088 181
Width: 645
Flags: MW
HStem: -27 75<260.5 330.5> 677 20<219 219>
VStem: 59 85<488.5 571> 160 69<231.5 304.5> 458 75<250 261 261 308>
LayerCount: 2
Fore
SplineSet
455 120 m 1
 341 -6 l 1
 324 -19 304 -27 283 -27 c 0
 238 -27 196 -11 155 5 c 0
 117 20 75 37 38 37 c 0
 29 37 21 31 15 26 c 0
 3 17 -7 6 -16 -6 c 1
 -26 11 l 1
 54 101 l 1
 78 103 104 129 123 149 c 0
 149 176 160 213 160 250 c 0
 160 269 154 287 148 304 c 0
 138 330 126 354 112 378 c 0
 89 418 59 471 59 506 c 0
 59 526 69 545 80 562 c 0
 96 588 117 611 139 633 c 0
 163 657 189 680 219 697 c 1
 229 681 l 1
 214 670 200 657 187 644 c 0
 162 620 144 588 144 554 c 0
 144 522 164 481 181 447 c 0
 195 419 208 390 217 361 c 0
 224 338 229 316 229 293 c 0
 229 267 225 241 214 218 c 1
 113 106 l 1
 142 106 182 92 214 80 c 1
 247 66 294 48 315 48 c 0
 346 48 372 68 394 90 c 0
 417 113 445 141 453 165 c 0
 458 181 458 221 458 250 c 0
 458 366 456 481 448 596 c 1
 575 686 l 1
 591 676 l 1
 573 658 557 637 549 612 c 0
 533 564 533 513 533 463 c 2
 533 261 l 2
 533 239 534 218 538 197 c 0
 546 159 555 120 581 90 c 0
 587 83 596 79 606 79 c 0
 630 79 656 94 666 101 c 1
 666 80 l 1
 522 -27 l 1
 455 120 l 1
EndSplineSet
EndChar

StartChar: u1D519
Encoding: 120089 120089 182
Width: 831
Flags: MW
HStem: -27 59<502 572> 90 64<208 231 208 236> 628 58
VStem: 27 69 118 74 352 85 654 97
LayerCount: 2
Fore
SplineSet
378 224 m 1
 285 151 l 1
 324 148 354 129 416 90 c 0
 482 49 530 32 559 32 c 0
 585 32 610 39 629 57 c 1
 643 72 648 92 652 111 c 0
 659 143 661 175 661 207 c 0
 661 231 658 264 655 293 c 1
 653 326 650 360 650 394 c 0
 650 417 654 441 661 463 c 1
 735 548 l 1
 706 548 680 564 655 580 c 0
 628 598 599 617 565 617 c 0
 536 617 499 581 499 581 c 1
 471 554 449 522 433 486 c 1
 433 386 419 304 378 224 c 1
480 601 m 0
 502 626 529 647 558 664 c 0
 578 676 600 686 623 686 c 0
 659 686 691 670 719 649 c 0
 757 622 784 617 800 617 c 0
 809 617 818 619 826 623 c 1
 826 607 l 1
 810 596 796 583 783 569 c 0
 747 534 725 487 725 436 c 0
 725 402 730 369 735 335 c 1
 742 296 751 239 751 218 c 0
 751 187 744 156 730 128 c 0
 719 106 707 86 687 71 c 2
 570 -14 l 2
 556 -25 535 -27 517 -27 c 0
 487 -27 441 -18 368 26 c 0
 348 38 258 90 214 90 c 0
 165 90 122 63 91 26 c 1
 80 42 l 1
 118 85 160 124 208 154 c 1
 254 154 295 180 320 218 c 0
 334 240 340 265 344 291 c 0
 350 328 354 365 354 403 c 0
 353 455 341 513 314 551 c 0
 287 589 243 623 196 623 c 0
 156 623 131 614 111 596 c 0
 101 588 96 573 96 552 c 0
 96 528 120 493 135 476 c 1
 146 462 165 439 175 422 c 0
 181 411 188 394 188 384 c 0
 188 355 174 332 156 312 c 0
 134 287 97 266 65 250 c 1
 50 261 l 1
 68 271 86 287 99 303 c 0
 109 315 114 327 114 342 c 0
 114 352 107 361 101 369 c 0
 92 382 80 399 70 412 c 0
 47 440 29 464 29 502 c 0
 29 542 52 572 80 600 c 0
 104 624 170 686 263 686 c 0
 309 686 352 652 382 615 c 0
 399 594 416 555 425 526 c 1
 438 548 453 570 480 601 c 0
EndSplineSet
EndChar

StartChar: u1D51A
Encoding: 120090 120090 183
Width: 1046
Flags: MW
HStem: -28 71 628 58
VStem: 32 70 118 74 346 80 607 69 886 83<200.5 205.5>
LayerCount: 2
Fore
SplineSet
895 485 m 2
 954 548 l 1
 936 548 903 570 879 585 c 0
 853 602 825 617 794 617 c 0
 772 617 752 607 736 594 c 0
 710 573 693 556 675 530 c 1
 677 497 679 462 679 427 c 0
 679 348 671 271 650 200 c 1
 636 181 594 125 571 101 c 1
 614 101 687 68 741 42 c 0
 757 35 775 32 794 32 c 0
 826 32 852 47 868 74 c 0
 879 92 886 119 886 186 c 0
 886 225 883 265 879 303 c 0
 876 332 874 362 874 391 c 0
 874 430 878 454 884 468 c 0
 887 474 891 480 895 485 c 2
352 191 m 1
 310 157 271 132 234 110 c 1
 279 75 337 42 394 42 c 0
 453 42 508 70 549 112 c 1
 574 136 584 171 592 205 c 0
 604 256 607 309 607 362 c 0
 607 414 600 466 578 514 c 0
 562 551 533 589 496 605 c 1
 468 580 439 554 418 525 c 1
 419 516 425 487 425 476 c 0
 425 461 421 389 407 328 c 0
 396 280 380 233 352 191 c 1
409 551 m 1
 421 564 l 2
 463 610 510 649 559 686 c 1
 612 656 651 590 666 559 c 1
 698 593 732 626 770 653 c 0
 793 670 818 686 847 686 c 0
 864 686 880 681 895 674 c 1
 918 665 939 652 959 639 c 0
 977 627 997 620 1018 620 c 0
 1030 620 1043 623 1055 628 c 1
 1049 607 l 1
 1017 583 987 557 969 522 c 1
 957 494 954 468 954 434 c 0
 954 411 956 389 959 367 c 0
 965 316 969 264 969 213 c 0
 969 188 967 163 960 139 c 0
 954 121 946 105 932 92 c 0
 890 52 843 17 794 -14 c 1
 774 -20 754 -25 734 -25 c 0
 704 -25 673 -18 645 -6 c 0
 597 15 544 37 496 37 c 1
 455 18 415 -2 378 -27 c 1
 373 -27 367 -28 362 -28 c 0
 317 -28 272 -12 235 11 c 0
 208 28 173 48 149 48 c 0
 138 48 115 40 103 32 c 0
 82 18 64 6 46 -11 c 1
 32 5 l 1
 69 48 110 87 155 122 c 1
 158 122 l 2
 205 122 250 142 283 175 c 0
 308 200 321 233 330 267 c 0
 342 310 346 356 346 402 c 0
 345 454 333 513 306 551 c 0
 279 589 235 623 188 623 c 0
 148 623 123 615 102 596 c 0
 90 585 88 576 88 554 c 0
 88 524 112 493 127 476 c 1
 138 462 157 439 167 422 c 0
 173 411 180 394 180 384 c 0
 180 355 166 332 148 312 c 0
 126 287 89 266 57 250 c 1
 42 261 l 1
 60 271 78 287 91 303 c 0
 101 315 106 327 106 342 c 0
 106 352 99 361 93 369 c 0
 84 382 72 399 62 412 c 0
 39 440 21 464 21 502 c 0
 21 542 44 572 72 600 c 0
 96 624 162 686 255 686 c 0
 301 686 344 652 374 615 c 0
 388 598 400 575 409 551 c 1
EndSplineSet
EndChar

StartChar: u1D51B
Encoding: 120091 120091 184
Width: 719
Flags: W
HStem: -27 80<500 589.5> -22 70<94 184> 325 42<160 336 544 544> 333 34<306.5 336>
VStem: 336 69<317 333 367 385>
LayerCount: 2
Fore
SplineSet
78 527 m 1x18
 226 686 l 1
 270 684 315 670 346 639 c 0
 359 626 368 609 375 593 c 0
 386 568 393 542 400 516 c 1
 415 547 434 577 458 601 c 0
 496 639 539 669 588 689 c 1
 600 666 610 642 622 620 c 0
 625 613 629 607 634 601 c 1
 643 593 654 588 666 588 c 0
 677 588 695 597 709 604 c 1
 709 585 l 1
 607 527 l 1
 587 536 570 549 554 564 c 0
 539 579 517 602 512 616 c 1
 497 606 481 593 470 579 c 0
 453 556 439 528 428 500 c 0
 411 458 405 413 405 367 c 1
 581 367 l 1x18
 544 325 l 1x28
 498 331 451 332 405 333 c 1
 405 292 407 251 416 218 c 1
 427 171 445 125 480 90 c 0
 504 66 536 53 570 53 c 0
 609 53 644 74 676 96 c 1
 676 74 l 1
 565 -16 l 1
 549 -21 528 -27 517 -27 c 0x98
 483 -27 450 -13 426 11 c 0
 388 49 368 101 357 154 c 1
 315 112 l 2
 282 79 247 47 208 21 c 0
 190 9 172 -2 152 -11 c 0
 140 -16 126 -22 112 -22 c 0
 76 -22 46 2 27 32 c 1
 86 101 l 1
 101 70 130 48 165 48 c 0
 203 48 238 69 264 95 c 0
 305 136 319 194 331 250 c 0
 335 270 336 301 336 333 c 1x58
 277 333 219 333 160 325 c 1x28
 197 367 l 1
 336 367 l 1
 336 403 336 438 331 474 c 0
 326 508 314 536 289 561 c 0
 272 579 249 594 224 594 c 0
 192 594 167 587 144 564 c 0
 127 547 107 527 95 512 c 1
 78 527 l 1x18
EndSplineSet
EndChar

StartChar: u1D51C
Encoding: 120092 120092 185
Width: 834
Flags: MW
HStem: -219 48<347.5 446.5> -22 80 628 58
VStem: 27 75 123 69 352 80 661 80<306.5 350>
LayerCount: 2
Fore
SplineSet
353 397 m 0
 353 450 341 511 313 551 c 0
 286 589 242 623 195 623 c 0
 156 623 126 610 108 596 c 1
 95 584 94 572 94 551 c 0
 94 530 119 493 134 476 c 1
 145 462 164 439 174 422 c 0
 180 411 187 394 187 384 c 0
 187 355 173 332 155 312 c 0
 133 287 96 266 64 250 c 1
 49 261 l 1
 67 271 85 287 98 303 c 0
 108 315 113 327 113 342 c 0
 113 352 106 361 100 369 c 0
 91 382 79 399 69 412 c 0
 46 440 28 464 28 502 c 0
 28 542 51 572 79 600 c 0
 103 624 168 686 262 686 c 0
 308 686 351 652 381 615 c 0
 398 594 412 566 421 537 c 1
 426 542 l 2
 453 569 482 594 512 617 c 1
 545 644 580 668 618 686 c 1
 647 650 686 622 725 596 c 1
 741 516 741 426 741 341 c 0
 741 272 736 204 724 137 c 0
 715 84 701 32 676 -16 c 1
 632 -83 570 -136 501 -176 c 0
 458 -200 412 -219 362 -219 c 0
 333 -219 304 -213 278 -200 c 0
 257 -189 238 -172 229 -149 c 1
 296 -78 l 1
 306 -78 l 1
 316 -128 362 -171 416 -171 c 0
 477 -171 512 -150 551 -111 c 0
 576 -87 597 -47 613 -16 c 0
 633 25 642 70 648 115 c 0
 658 181 661 247 661 314 c 0
 661 386 657 458 634 527 c 1
 608 556 580 586 544 601 c 1
 536 598 468 566 428 512 c 1
 431 498 432 482 432 468 c 0
 430 377 414 285 362 207 c 1
 246 115 l 1
 270 108 298 94 320 83 c 0
 346 70 373 58 400 58 c 0
 434 58 463 81 485 106 c 1
 494 90 l 1
 471 60 448 31 421 5 c 1
 407 -7 388 -21 370 -21 c 0
 340 -21 294 2 263 20 c 0
 226 41 187 54 163 54 c 0
 117 54 73 22 37 -4 c 1
 26 11 l 1
 63 50 108 89 148 124 c 1
 170 124 200 124 216 122 c 1
 234 132 261 154 283 175 c 0
 308 200 323 233 334 267 c 0
 347 309 353 353 353 397 c 0
EndSplineSet
EndChar

StartChar: uni2128
Encoding: 8488 8488 186
Width: 602
Flags: MW
HStem: -139 32 -16 53 319 56 597 74 709 20<160 176 176 176>
VStem: 112 85<-128 -32> 442 91<153 170.5>
LayerCount: 2
Fore
SplineSet
181 309 m 1
 224 372 l 1
 268 375 305 400 336 431 c 0
 366 461 384 501 384 543 c 0
 384 557 378 570 368 580 c 0
 352 595 331 601 309 601 c 0
 286 601 263 598 240 596 c 0
 213 594 164 591 160 591 c 0
 139 591 117 592 102 607 c 0
 95 614 91 623 91 633 c 1
 160 729 l 1
 176 729 l 1
 172 722 168 713 168 705 c 0
 168 698 171 691 176 686 c 0
 192 671 225 671 251 671 c 0
 259 671 290 672 309 673 c 0
 325 673 341 676 357 676 c 0
 375 676 393 675 410 671 c 0
 422 668 434 663 442 655 c 0
 458 639 469 619 469 596 c 0
 469 546 446 499 410 463 c 0
 376 429 336 398 297 374 c 1
 302 372 l 1
 318 375 342 378 357 378 c 0
 418 378 482 361 517 309 c 1
 528 272 533 235 533 197 c 0
 533 109 502 25 453 -48 c 1
 384 -105 298 -139 208 -139 c 0
 176 -139 144 -136 112 -128 c 1
 112 -103 112 -67 111 -54 c 0
 110 -44 109 -34 102 -27 c 0
 95 -20 85 -16 75 -16 c 0
 64 -16 39 -30 23 -42 c 1
 11 -27 l 1
 34 -8 59 8 85 21 c 1
 106 30 127 37 149 37 c 0
 165 37 184 37 192 21 c 0
 197 11 197 -21 197 -43 c 0
 197 -60 197 -82 208 -93 c 0
 219 -104 243 -109 259 -109 c 0
 305 -109 338 -94 370 -62 c 0
 395 -37 414 2 424 35 c 0
 437 75 442 117 442 159 c 0
 442 182 440 205 434 227 c 0
 429 243 422 259 410 271 c 0
 377 305 330 319 283 319 c 0
 251 319 220 312 192 298 c 1
 181 309 l 1
EndSplineSet
EndChar

StartChar: u1D51E
Encoding: 120094 120094 187
Width: 500
Flags: MW
HStem: -36 92 392 79
VStem: 62 81 329 75
LayerCount: 2
Fore
SplineSet
329 91 m 1
 154 -36 l 1
 124 -4 95 30 67 65 c 1
 65 95 65 126 65 156 c 0
 65 226 70 297 85 365 c 1
 254 471 l 1
 282 452 314 438 347 431 c 1
 414 465 l 1
 422 459 l 1
 412 392 407 324 407 256 c 0
 407 210 407 165 408 119 c 1
 444 74 l 1
 465 81 476 87 490 96 c 1
 497 83 l 1
 374 -27 l 1
 331 46 l 1
 329 91 l 1
329 119 m 1
 328 365 l 1
 281 365 232 378 186 392 c 1
 162 367 156 330 151 295 c 0
 147 264 145 233 145 201 c 0
 145 174 146 148 148 121 c 1
 161 104 187 77 208 56 c 0
 209 55 212 55 215 55 c 0
 230 55 269 78 329 119 c 1
EndSplineSet
EndChar

StartChar: u1D51F
Encoding: 120095 120095 188
Width: 513
Flags: MW
HStem: -31 73 386 84 673 13
VStem: 89 87 364 76
LayerCount: 2
Fore
SplineSet
135 599 m 1
 255 686 l 1
 272 673 l 2
 271 673 252 656 242 647 c 0
 198 609 182 556 179 499 c 0
 177 456 177 407 177 365 c 1
 184 363 l 1
 229 401 276 440 324 470 c 1
 362 448 401 427 441 409 c 1
 443 377 444 345 444 313 c 0
 444 241 439 168 424 97 c 1
 351 50 276 5 196 -31 c 1
 159 2 110 46 86 71 c 1
 100 144 100 228 100 307 c 0
 100 428 99 548 93 668 c 1
 110 672 l 1
 127 595 l 1
 135 599 l 1
178 332 m 1
 178 123 l 1
 210 90 258 42 285 42 c 0
 301 42 314 53 325 64 c 0
 341 81 348 103 353 125 c 0
 361 159 363 193 363 227 c 0
 363 268 363 299 359 340 c 1
 350 352 327 364 274 386 c 1
 243 382 205 353 178 332 c 1
EndSplineSet
EndChar

StartChar: u1D520
Encoding: 120096 120096 189
Width: 389
Flags: MW
HStem: -29 87 390 76
VStem: 71 86
LayerCount: 2
Fore
SplineSet
359 92 m 1
 187 -29 l 1
 147 5 111 44 77 84 c 1
 74 129 72 173 72 218 c 0
 72 247 72 307 84 363 c 1
 249 466 l 1
 288 463 324 444 357 422 c 1
 305 343 l 1
 296 340 l 1
 263 369 213 394 176 394 c 1
 158 364 155 295 155 246 c 0
 155 211 157 177 162 147 c 1
 180 118 215 86 246 58 c 1
 278 68 317 89 351 109 c 1
 359 92 l 1
EndSplineSet
EndChar

StartChar: u1D521
Encoding: 120097 120097 190
Width: 498
Flags: MW
HStem: -34 84 546 64
VStem: 76 76 347 80
LayerCount: 2
Fore
SplineSet
401 109 m 1
 214 -34 l 1
 164 0 115 35 76 81 c 1
 74 111 73 138 73 166 c 0
 73 210 75 259 79 335 c 1
 121 375 167 418 211 447 c 1
 230 443 l 1
 184 393 173 366 165 346 c 0
 156 323 152 290 152 254 c 0
 152 215 156 171 159 135 c 1
 172 119 188 106 204 94 c 0
 227 78 251 64 276 51 c 0
 279 50 281 49 284 49 c 0
 289 49 295 52 299 59 c 0
 327 103 341 154 346 205 c 0
 348 226 349 246 349 267 c 0
 349 311 345 355 337 399 c 1
 298 440 255 478 206 508 c 0
 173 529 136 546 96 546 c 0
 88 546 75 546 72 545 c 2
 26 527 l 1
 13 543 l 1
 56 567 106 591 151 612 c 1
 241 600 343 524 427 455 c 1
 428 437 430 380 430 328 c 0
 430 297 429 267 427 249 c 0
 423 201 419 153 401 109 c 1
EndSplineSet
EndChar

StartChar: u1D522
Encoding: 120098 120098 191
Width: 400
Flags: MW
HStem: -31 92 399 68
VStem: 65 85 282 83
LayerCount: 2
Fore
SplineSet
84 366 m 1
 246 467 l 1
 279 425 320 389 364 358 c 1
 295 292 209 212 151 166 c 1
 151 157 153 148 156 140 c 1
 159 126 216 79 256 61 c 1
 260 62 274 62 279 64 c 2
 353 103 l 1
 358 87 l 1
 304 45 248 5 189 -31 c 1
 149 6 109 43 75 85 c 1
 71 119 70 154 70 188 c 0
 70 248 75 307 84 366 c 1
148 193 m 1
 194 227 246 271 284 312 c 1
 246 336 208 365 176 396 c 0
 176 397 175 397 174 397 c 0
 166 397 160 375 158 369 c 0
 149 337 148 246 148 193 c 1
EndSplineSet
EndChar

StartChar: u1D523
Encoding: 120099 120099 192
Width: 329
Flags: W
HStem: 351 35<45 118 45 119 30 118>
VStem: 91 39<521 574.5> 119 87<351 351> 120 82<111.5 135.5>
LayerCount: 2
Fore
SplineSet
206 351 m 1xa0
 202 145 l 1
 202 78 202 -6 189 -53 c 0
 179 -87 164 -120 146 -150 c 2
 96 -238 l 1
 77 -231 l 1
 85 -204 96 -167 103 -141 c 0
 110 -118 115 -93 117 -69 c 0
 119 -34 120 62 120 128 c 0x90
 120 143 120 275 119 351 c 1xa0
 30 351 l 1
 45 386 l 1
 118 386 l 1
 118 387 109 431 104 453 c 0
 98 478 91 514 91 528 c 0
 91 572 115 609 146 640 c 0
 160 654 175 667 192 679 c 1
 234 679 284 672 316 639 c 1
 269 547 l 1
 259 546 l 1
 251 563 241 579 228 592 c 0
 215 604 198 615 181 615 c 0
 168 615 152 612 142 603 c 1
 133 593 130 581 130 568 c 0xc0
 130 551 142 527 151 509 c 2
 201 414 l 2
 206 406 208 397 210 388 c 1
 324 388 l 1
 312 351 l 1
 206 351 l 1xa0
EndSplineSet
EndChar

StartChar: u1D524
Encoding: 120100 120100 193
Width: 503
Flags: MW
HStem: -209 74<240 305> 389 81
VStem: 76 78 342 79
LayerCount: 2
Fore
SplineSet
16 -131 m 1
 61 -100 105 -63 150 -24 c 1
 78 65 l 1
 76 99 74 134 74 168 c 0
 74 235 79 302 89 368 c 1
 142 405 196 438 251 470 c 1
 285 447 325 434 365 425 c 1
 437 465 l 1
 443 459 l 1
 429 430 427 397 425 365 c 0
 421 310 421 222 421 150 c 0
 421 136 423 122 426 109 c 2
 455 -17 l 1
 404 -81 351 -144 292 -201 c 1
 280 -205 264 -209 256 -209 c 0
 224 -209 193 -200 164 -188 c 0
 127 -172 93 -150 62 -125 c 1
 27 -144 l 1
 16 -131 l 1
342 97 m 1
 275 50 209 -2 147 -55 c 1
 170 -78 196 -100 224 -115 c 0
 246 -127 270 -135 295 -135 c 0
 315 -135 334 -125 348 -111 c 0
 363 -95 369 -66 369 -45 c 0
 369 -23 353 50 342 97 c 1
228 41 m 1
 340 123 l 1
 340 199 342 276 349 351 c 1
 291 359 221 372 173 394 c 1
 157 354 155 304 155 260 c 0
 155 215 156 169 160 124 c 1
 175 95 203 64 228 41 c 1
EndSplineSet
EndChar

StartChar: u1D525
Encoding: 120101 120101 194
Width: 521
Flags: MW
HStem: -206 21 -26 21<131 131> 390 88 669 20<237.5 238>
VStem: 79 85 352 83
LayerCount: 2
Fore
SplineSet
228 -184 m 1
 292 -129 l 1
 303 -121 311 -110 318 -98 c 0
 335 -64 341 -26 346 11 c 0
 354 71 356 132 356 193 c 0
 356 221 350 300 346 354 c 1
 320 373 291 390 258 390 c 0
 227 390 189 361 164 341 c 1
 159 126 l 1
 213 49 l 1
 131 -26 l 1
 76 65 l 1
 83 187 87 309 87 431 c 0
 87 512 86 594 81 675 c 1
 93 677 l 1
 117 601 l 1
 157 631 237 689 238 689 c 2
 255 678 l 1
 172 601 165 536 165 481 c 2
 164 371 l 1
 197 397 262 443 312 478 c 1
 345 448 386 430 428 417 c 1
 432 360 435 303 435 246 c 0
 435 192 433 137 428 84 c 0
 424 45 419 6 408 -31 c 1
 363 -97 306 -150 244 -198 c 1
 228 -184 l 1
EndSplineSet
EndChar

StartChar: u1D526
Encoding: 120102 120102 195
Width: 279
Flags: MW
HStem: -21 101 391 84 556 119
VStem: 91 76
LayerCount: 2
Fore
SplineSet
27 369 m 1
 14 382 l 1
 48 410 85 443 119 475 c 1
 138 455 157 436 179 420 c 1
 172 360 171 300 171 239 c 0
 171 200 172 160 176 128 c 0
 178 109 195 88 208 75 c 1
 212 75 218 76 221 78 c 0
 236 85 254 96 261 102 c 1
 268 83 l 1
 229 46 187 11 145 -21 c 1
 91 55 l 1
 94 108 94 148 94 194 c 0
 94 252 93 308 90 367 c 1
 69 391 l 1
 58 387 40 379 27 369 c 1
187 616 m 1
 130 556 l 1
 109 575 90 596 72 617 c 1
 92 637 114 654 132 675 c 1
 150 654 172 628 187 616 c 1
EndSplineSet
EndChar

StartChar: u1D527
Encoding: 120103 120103 196
Width: 280
Flags: MW
HStem: -208 21 387 88 555 118<125 132>
VStem: 119 79
LayerCount: 2
Fore
SplineSet
168 -44 m 1
 123 -99 70 -151 7 -202 c 1
 -9 -184 l 1
 20 -162 49 -139 74 -113 c 0
 87 -100 95 -83 100 -66 c 0
 116 -10 118 113 118 203 c 0
 118 253 118 322 108 352 c 0
 102 369 83 389 76 389 c 0
 74 389 69 387 68 386 c 2
 39 367 l 1
 25 380 l 1
 131 475 l 1
 153 459 174 441 196 422 c 1
 196 370 195 154 190 26 c 0
 189 1 185 -25 168 -44 c 1
183 615 m 1
 125 555 l 1
 107 570 88 595 71 616 c 1
 132 673 l 1
 148 652 164 633 183 615 c 1
EndSplineSet
EndChar

StartChar: u1D528
Encoding: 120104 120104 197
Width: 389
Flags: MW
HStem: 308 35<33 94 24 95 173 190.5 251 332>
VStem: 94 79<128 308 128 308 128 308> 288 72<434 491.5>
LayerCount: 2
Fore
SplineSet
350 110 m 1
 363 95 l 1
 320 58 252 13 195 -26 c 1
 88 69 l 1
 92 88 94 109 94 127 c 2
 94 308 l 1
 24 308 l 1
 33 343 l 1
 95 343 l 1
 95 570 94 605 88 669 c 1
 105 673 l 1
 113 649 123 594 123 593 c 1
 164 625 209 661 253 686 c 1
 269 676 l 1
 243 652 213 624 202 603 c 1
 183 571 176 534 173 498 c 1
 215 530 256 555 300 585 c 1
 317 569 332 551 344 531 c 0
 353 516 360 500 360 483 c 0
 360 465 350 447 337 434 c 2
 251 343 l 1
 346 343 l 1
 332 308 l 1
 173 308 l 1
 173 128 l 1
 197 104 227 80 255 60 c 1
 287 76 321 89 350 110 c 1
173 343 m 1
 208 343 237 356 260 383 c 0
 275 401 288 422 288 446 c 0
 288 459 282 470 276 481 c 1
 266 495 254 507 241 518 c 1
 221 508 202 495 190 476 c 0
 181 460 178 442 176 424 c 0
 173 399 173 370 173 343 c 1
EndSplineSet
EndChar

StartChar: u1D529
Encoding: 120105 120105 198
Width: 279
Flags: MW
HStem: -20 95 666 20<261 261>
VStem: 99 81
LayerCount: 2
Fore
SplineSet
261 686 m 1
 277 673 l 1
 255 654 234 637 218 613 c 0
 183 559 182 507 182 391 c 0
 182 301 183 212 184 122 c 1
 193 108 210 93 226 81 c 1
 240 85 255 95 266 104 c 1
 276 87 l 1
 148 -20 l 1
 97 56 l 1
 103 164 105 273 105 382 c 0
 105 478 104 573 99 668 c 1
 116 672 l 1
 133 594 l 1
 261 686 l 1
EndSplineSet
EndChar

StartChar: u1D52A
Encoding: 120106 120106 199
Width: 766
Flags: MW
HStem: -23 18 388 86
VStem: 88 80 344 70 580 79
LayerCount: 2
Fore
SplineSet
168 376 m 1
 295 475 l 1
 333 452 373 432 415 418 c 1
 415 379 l 1
 459 409 503 440 544 474 c 1
 583 453 629 428 665 418 c 1
 660 361 662 304 661 247 c 1
 661 126 l 1
 672 110 684 93 698 79 c 1
 718 86 726 89 745 105 c 1
 757 88 l 1
 631 -19 l 1
 621 0 592 35 572 60 c 1
 578 102 583 135 583 274 c 0
 583 300 582 324 580 342 c 0
 579 348 578 354 572 357 c 0
 544 374 512 383 480 391 c 1
 457 379 436 367 415 353 c 1
 415 135 l 2
 415 127 415 118 419 113 c 0
 419 112 449 68 465 47 c 1
 379 -26 l 1
 366 0 343 26 325 46 c 1
 334 85 339 127 339 248 c 0
 339 281 338 314 334 347 c 1
 309 369 263 382 229 391 c 1
 168 349 l 1
 168 152 l 2
 168 136 168 112 173 106 c 0
 173 105 202 67 217 48 c 1
 134 -22 l 1
 85 58 l 1
 90 98 92 138 92 177 c 0
 92 240 91 302 88 365 c 1
 62 391 l 1
 19 367 l 1
 7 379 l 1
 118 472 l 1
 135 455 168 421 168 420 c 2
 168 376 l 1
EndSplineSet
EndChar

StartChar: u1D52B
Encoding: 120107 120107 200
Width: 526
Flags: MW
HStem: -23 21<132 132> 384 86
VStem: 83 93 339 94
LayerCount: 2
Fore
SplineSet
176 367 m 1
 320 475 l 1
 355 451 393 432 433 417 c 1
 429 374 425 315 425 253 c 1
 429 127 l 1
 437 114 445 100 455 87 c 0
 458 83 463 82 468 82 c 0
 469 82 475 85 478 87 c 2
 509 109 l 1
 521 93 l 1
 394 -19 l 1
 339 65 l 1
 345 100 347 146 347 195 c 0
 347 249 345 306 342 358 c 1
 313 373 274 382 241 385 c 1
 176 341 l 1
 172 134 l 2
 172 124 176 110 179 106 c 2
 219 52 l 1
 132 -23 l 1
 118 2 102 25 83 46 c 1
 91 92 94 150 94 211 c 0
 94 263 92 316 90 365 c 1
 66 388 l 1
 31 368 l 1
 18 380 l 1
 52 410 121 470 122 470 c 0
 134 457 157 439 176 425 c 1
 176 367 l 1
EndSplineSet
EndChar

StartChar: u1D52C
Encoding: 120108 120108 201
Width: 488
Flags: MW
HStem: -28 71 398 83
VStem: 65 74 338 79
LayerCount: 2
Fore
SplineSet
165 -28 m 1
 130 2 94 34 66 68 c 1
 66 157 71 266 84 364 c 1
 145 399 203 439 260 481 c 1
 305 451 354 426 408 415 c 1
 411 377 413 340 413 302 c 0
 413 231 407 161 391 92 c 1
 319 46 244 4 165 -28 c 1
268 44 m 0
 274 44 285 57 290 63 c 0
 313 91 322 130 327 170 c 0
 334 232 334 259 334 356 c 1
 289 359 230 381 185 401 c 1
 172 379 166 366 158 329 c 1
 150 299 147 254 147 211 c 0
 147 178 149 147 153 123 c 1
 170 102 189 83 211 68 c 0
 229 56 247 47 268 44 c 0
EndSplineSet
EndChar

StartChar: u1D52D
Encoding: 120109 120109 202
Width: 500
Flags: MW
HStem: -212 21 37 68 388 90 518 20<125 125>
VStem: 87 79<19.5 347> 351 81
LayerCount: 2
Fore
SplineSet
169 -170 m 1
 89 -214 l 1
 78 -207 l 1
 82 -124 87 -8 87 47 c 1
 64 47 41 40 23 24 c 1
 12 38 l 1
 37 61 74 95 88 105 c 1
 88 352 l 1
 75 370 47 407 47 408 c 0
 44 412 42 417 42 422 c 0
 42 430 45 437 49 444 c 0
 70 478 96 510 125 538 c 1
 139 529 l 1
 129 517 121 503 121 487 c 0
 121 474 126 461 133 449 c 0
 142 433 154 419 167 406 c 0
 167 405 166 384 165 372 c 1
 214 405 260 441 307 478 c 1
 342 450 383 430 425 414 c 1
 428 370 430 326 430 282 c 0
 430 260 429 238 428 216 c 0
 426 173 422 129 407 89 c 1
 273 -18 l 1
 241 8 205 30 165 37 c 1
 165 -32 166 -101 169 -170 c 1
166 347 m 1
 166 106 l 1
 206 106 274 76 323 52 c 1
 339 82 349 135 349 230 c 0
 349 271 346 312 343 353 c 1
 318 366 277 381 247 391 c 1
 218 380 193 364 166 347 c 1
EndSplineSet
EndChar

StartChar: u1D52E
Encoding: 120110 120110 203
Width: 489
Flags: MW
HStem: -219 21 -29 87 398 79
VStem: 59 79<136.5 219.5> 319 92
LayerCount: 2
Fore
SplineSet
406 -179 m 1
 323 -224 l 1
 312 -214 l 1
 316 -116 320 -6 320 93 c 1
 264 47 207 9 146 -29 c 1
 62 65 l 1
 60 94 59 122 59 151 c 0
 59 224 65 298 82 369 c 1
 139 400 197 432 247 473 c 1
 276 455 307 439 340 432 c 1
 410 480 l 1
 418 473 l 1
 403 388 399 253 399 141 c 0
 399 34 399 -74 406 -179 c 1
218 50 m 1
 242 63 288 98 319 121 c 1
 319 201 320 287 324 367 c 1
 273 370 223 383 174 398 c 1
 160 373 153 344 148 316 c 0
 141 278 138 239 138 200 c 0
 138 181 138 147 139 144 c 1
 139 137 140 130 145 125 c 0
 167 103 195 71 218 50 c 1
EndSplineSet
EndChar

StartChar: u1D52F
Encoding: 120111 120111 204
Width: 389
Flags: MW
HStem: -21 81<200 255> 381 93
VStem: 97 85
LayerCount: 2
Fore
SplineSet
182 382 m 1
 291 469 l 1
 301 451 313 433 327 417 c 0
 335 408 345 398 357 398 c 0
 368 398 386 408 395 413 c 1
 394 400 l 1
 335 345 l 2
 326 337 314 335 302 335 c 0
 290 335 278 340 269 346 c 0
 253 356 233 371 219 384 c 1
 203 372 188 359 182 350 c 1
 182 152 l 2
 182 136 192 123 201 111 c 0
 217 92 235 75 255 60 c 1
 344 102 l 1
 346 83 l 1
 200 -21 l 1
 163 8 130 41 97 75 c 1
 103 134 103 184 103 245 c 0
 103 271 103 299 102 322 c 0
 101 354 94 365 94 365 c 1
 85 373 75 380 65 387 c 1
 27 371 l 1
 15 381 l 1
 116 474 l 1
 137 453 159 433 182 414 c 1
 182 382 l 1
EndSplineSet
EndChar

StartChar: u1D530
Encoding: 120112 120112 205
Width: 442
Flags: MW
HStem: -30 65 47 64<55 126> 234 66 404 75
VStem: 68 75 296 76
LayerCount: 2
Fore
SplineSet
192 244 m 2
 315 300 l 1
 337 293 354 278 371 262 c 1
 373 236 374 210 374 185 c 0
 374 139 370 94 358 50 c 1
 304 26 249 1 198 -30 c 1
 176 -9 152 11 125 27 c 0
 108 37 90 47 70 47 c 0
 40 47 13 31 -19 3 c 1
 -28 12 l 1
 -13 28 24 67 46 88 c 0
 64 105 89 111 113 111 c 0
 139 111 163 103 185 89 c 2
 266 35 l 2
 267 34 268 34 270 34 c 0
 276 34 281 39 285 48 c 1
 294 78 296 109 296 140 c 0
 296 165 293 203 283 214 c 0
 269 231 256 236 244 236 c 0
 230 236 222 233 209 226 c 2
 107 168 l 1
 92 187 76 213 64 235 c 1
 64 284 65 332 70 377 c 1
 222 479 l 1
 303 433 l 2
 311 429 319 427 329 427 c 0
 352 427 375 440 401 457 c 1
 407 441 l 1
 315 363 l 1
 243 367 189 390 163 415 c 1
 143 396 143 359 143 336 c 0
 143 311 145 286 155 263 c 0
 159 254 164 242 175 242 c 0
 181 242 187 242 192 244 c 2
EndSplineSet
EndChar

StartChar: u1D531
Encoding: 120113 120113 206
Width: 333
Flags: MW
HStem: 351 35<42 115 42 116 26 115 195 285 195 195>
VStem: 115 79<386 418.5 386 558>
LayerCount: 2
Fore
SplineSet
228 641 m 1
 242 627 l 1
 215 601 l 2
 210 596 207 589 206 582 c 0
 195 518 194 451 194 386 c 1
 302 386 l 1
 285 351 l 1
 195 351 l 1
 196 123 l 1
 216 105 240 84 259 73 c 0
 264 70 270 68 276 68 c 0
 291 68 312 77 346 100 c 1
 349 78 l 1
 212 -21 l 1
 115 62 l 2
 115 63 115 254 116 351 c 1
 26 351 l 1
 42 386 l 1
 115 386 l 1
 115 558 l 1
 228 641 l 1
EndSplineSet
EndChar

StartChar: u1D532
Encoding: 120114 120114 207
Width: 517
Flags: MW
HStem: -23 81 396 78<61 119>
VStem: 100 72 336 76
LayerCount: 2
Fore
SplineSet
421 468 m 1
 428 462 l 1
 418 383 415 304 415 225 c 0
 415 193 417 161 421 131 c 0
 423 117 429 103 438 91 c 0
 442 86 448 83 455 83 c 0
 465 83 498 98 508 103 c 1
 514 88 l 1
 472 54 431 19 392 -18 c 1
 384 -16 l 1
 365 16 345 51 333 87 c 1
 265 42 180 -26 180 -26 c 1
 154 -9 92 36 55 48 c 1
 68 70 76 99 82 127 c 0
 91 172 97 218 97 264 c 0
 97 292 97 319 90 346 c 1
 84 364 76 383 61 396 c 1
 23 376 l 1
 8 386 l 1
 119 474 l 1
 135 455 151 436 171 421 c 1
 171 399 172 378 172 356 c 0
 172 325 171 294 170 264 c 0
 168 210 161 156 146 104 c 1
 247 56 l 1
 335 115 l 1
 338 165 339 215 339 264 c 0
 339 316 338 369 336 424 c 1
 421 468 l 1
EndSplineSet
EndChar

StartChar: u1D533
Encoding: 120115 120115 208
Width: 511
Flags: MW
HStem: -28 77 396 81 510 20
VStem: 92 79 358 77
LayerCount: 2
Fore
SplineSet
96 231 m 0
 96 262 94 300 92 345 c 0
 92 353 88 358 83 364 c 0
 74 376 66 382 58 394 c 1
 54 402 51 410 51 418 c 0
 51 424 56 438 59 444 c 0
 80 476 104 506 131 533 c 1
 145 529 l 1
 136 515 129 500 129 483 c 0
 129 473 140 452 148 438 c 0
 153 430 166 418 175 408 c 1
 175 374 l 1
 318 477 l 1
 354 453 392 432 433 416 c 1
 439 350 439 316 439 245 c 0
 439 208 424 126 407 86 c 1
 192 -28 l 1
 161 5 125 37 89 66 c 1
 94 121 96 167 96 231 c 0
175 348 m 1
 172 155 l 2
 172 130 186 108 206 93 c 0
 207 93 231 74 243 64 c 1
 255 56 270 49 285 49 c 0
 298 49 309 58 318 68 c 0
 329 79 336 93 342 108 c 1
 355 148 359 207 359 243 c 0
 359 281 356 320 351 358 c 1
 328 379 297 390 266 396 c 1
 238 394 203 369 175 348 c 1
EndSplineSet
EndChar

StartChar: u1D534
Encoding: 120116 120116 209
Width: 773
Flags: MW
HStem: -28 72<465 552> 386 87 513 20<124 124>
VStem: 88 77<181 190 146 230> 332 86 606 85
LayerCount: 2
Fore
SplineSet
418 368 m 1
 560 471 l 1
 601 447 643 425 686 405 c 1
 691 377 693 313 693 268 c 0
 693 175 674 135 652 72 c 1
 465 -28 l 1
 421 -1 376 24 331 46 c 1
 336 105 339 164 339 222 c 0
 339 262 338 302 334 341 c 1
 311 357 278 378 264 385 c 0
 257 388 248 392 240 392 c 0
 236 392 228 390 224 387 c 0
 202 375 186 362 166 348 c 1
 166 314 165 222 165 158 c 0
 165 134 171 109 185 88 c 1
 193 74 203 59 212 48 c 1
 137 -27 l 1
 120 2 102 30 78 52 c 1
 86 103 88 155 88 207 c 0
 88 253 88 299 85 345 c 0
 84 353 81 358 76 364 c 0
 67 376 59 382 51 394 c 1
 47 402 44 410 44 418 c 0
 44 424 49 438 52 444 c 0
 73 476 97 506 124 533 c 1
 138 529 l 1
 129 515 122 500 122 483 c 0
 122 473 133 452 141 438 c 0
 146 430 159 418 168 408 c 1
 168 376 l 1
 211 406 254 437 291 473 c 1
 332 447 375 425 419 405 c 1
 418 368 l 1
498 386 m 1
 476 386 435 353 418 341 c 1
 417 304 416 270 416 235 c 0
 416 209 417 182 419 154 c 0
 420 131 431 110 448 95 c 0
 475 70 507 44 548 44 c 0
 556 44 565 51 572 58 c 0
 589 75 597 103 601 127 c 0
 608 172 610 218 610 264 c 0
 610 292 606 317 598 348 c 1
 569 366 530 381 498 386 c 1
EndSplineSet
EndChar

StartChar: u1D535
Encoding: 120117 120117 210
Width: 388
Flags: MW
HStem: -188 21<123 123> -25 84<210 271> 384 89
VStem: 14 51 115 80
LayerCount: 2
Fore
SplineSet
192 376 m 1
 301 465 l 1
 318 437 343 417 370 398 c 1
 303 339 l 1
 275 353 256 381 244 390 c 1
 229 381 202 357 195 347 c 1
 191 329 190 306 190 289 c 0
 189 234 191 174 195 117 c 1
 214 97 235 79 258 63 c 0
 262 60 267 59 271 59 c 0
 276 60 284 59 293 64 c 2
 356 98 l 1
 359 80 l 1
 210 -25 l 1
 185 3 156 27 126 49 c 1
 109 33 93 16 81 -5 c 0
 72 -20 65 -36 65 -54 c 0
 65 -74 75 -91 89 -105 c 0
 111 -127 158 -136 187 -139 c 1
 187 -148 l 1
 123 -188 l 1
 90 -180 56 -169 31 -144 c 0
 18 -132 10 -115 10 -98 c 0
 10 -73 23 -51 36 -30 c 0
 57 4 77 29 104 59 c 1
 110 101 111 150 111 192 c 0
 111 246 112 300 108 353 c 1
 99 363 87 376 78 381 c 0
 75 383 70 386 68 386 c 0
 65 386 60 384 56 382 c 0
 47 377 28 368 27 368 c 2
 14 377 l 1
 47 411 82 442 118 473 c 1
 143 451 181 416 194 407 c 1
 192 376 l 1
EndSplineSet
EndChar

StartChar: u1D536
Encoding: 120118 120118 211
Width: 498
Flags: MW
HStem: -219 21<222 222> -26 21 391 82<251.5 311> 508 20
VStem: 89 74 350 81
LayerCount: 2
Fore
SplineSet
89 255 m 0
 89 286 89 290 86 336 c 0
 85 344 82 349 77 355 c 0
 68 367 60 374 52 386 c 0
 48 392 45 400 45 410 c 0
 45 414 50 429 53 435 c 0
 74 467 98 497 125 524 c 1
 139 520 l 1
 130 506 123 491 123 474 c 0
 123 464 134 443 142 429 c 0
 147 421 160 409 169 399 c 1
 169 367 l 1
 311 473 l 1
 348 451 385 429 426 414 c 1
 433 354 437 284 437 228 c 0
 437 148 429 54 407 -23 c 0
 394 -69 290 -168 222 -219 c 1
 184 -202 l 1
 218 -185 251 -166 278 -140 c 0
 300 -118 314 -89 324 -60 c 0
 335 -28 340 6 343 39 c 0
 348 89 350 139 350 189 c 0
 350 245 345 301 339 356 c 1
 315 371 286 386 259 391 c 1
 244 391 200 363 170 340 c 1
 169 276 167 259 167 152 c 0
 167 114 182 86 212 48 c 1
 137 -27 l 1
 120 2 98 34 78 52 c 1
 88 113 89 178 89 255 c 0
EndSplineSet
EndChar

StartChar: u1D537
Encoding: 120119 120119 212
Width: 390
Flags: MW
HStem: -215 61<130.5 188> 388 83
VStem: -7 79 240 74<36.5 38.5>
LayerCount: 2
Fore
SplineSet
290 -99 m 1
 153 -215 l 1
 108 -215 65 -200 29 -174 c 0
 11 -160 -3 -140 -7 -116 c 1
 0 -89 47 -25 80 13 c 0
 122 62 162 102 207 147 c 1
 172 163 136 177 97 181 c 1
 97 192 l 1
 98 192 145 236 170 259 c 0
 186 274 204 292 204 315 c 0
 204 338 188 360 170 372 c 0
 158 381 144 388 131 388 c 0
 124 388 121 386 114 382 c 0
 90 368 68 352 47 335 c 1
 36 347 l 1
 81 392 129 434 182 471 c 1
 206 459 231 446 250 427 c 0
 260 418 269 407 275 396 c 0
 280 388 284 379 284 370 c 0
 284 357 278 344 269 334 c 2
 188 247 l 1
 225 234 267 218 300 198 c 1
 311 155 314 109 314 64 c 0
 314 9 304 -46 290 -99 c 1
225 130 m 1
 184 95 144 59 112 16 c 0
 92 -11 72 -40 72 -73 c 0
 72 -90 82 -104 94 -115 c 1
 117 -139 149 -154 183 -154 c 0
 193 -154 199 -150 206 -142 c 0
 216 -132 224 -105 228 -85 c 0
 235 -50 240 -15 240 20 c 0
 240 57 236 94 225 130 c 1
EndSplineSet
EndChar

StartChar: u1D6AA
Encoding: 120490 120490 213
Width: 536
Flags: MW
HStem: -9 21<118 118> 631 61
VStem: 102 124 548 31
LayerCount: 2
Fore
SplineSet
562 692 m 1
 579 511 l 1
 551 508 l 1
 510 586 l 2
 499 606 480 622 455 626 c 0
 419 631 383 633 347 633 c 0
 317 633 288 631 257 630 c 0
 243 629 228 620 228 606 c 1
 225 569 225 479 225 416 c 0
 225 287 226 159 234 31 c 1
 118 -9 l 1
 101 3 l 1
 105 182 106 539 106 587 c 0
 106 608 102 630 86 645 c 2
 54 675 l 1
 56 692 l 1
 379 692 l 1
 562 692 l 1
EndSplineSet
EndChar

StartChar: u1D6AB
Encoding: 120491 120491 214
Width: 782
Flags: MW
HStem: -2 59 679 20<510 510>
VStem: 23 728
LayerCount: 2
Fore
SplineSet
385 669 m 1
 510 699 l 1
 543 574 580 450 626 328 c 0
 661 235 703 145 750 55 c 1
 751 44 l 1
 628 -7 l 1
 560 -1 257 6 257 6 c 1
 151 6 46 0 26 -1 c 1
 26 0 24 20 23 34 c 1
 150 243 295 483 385 669 c 1
120 67 m 1
 564 55 l 1
 576 64 584 69 584 69 c 1
 516 230 457 404 403 568 c 1
 399 566 390 564 389 564 c 0
 306 400 210 225 120 67 c 1
EndSplineSet
EndChar

StartChar: u1D6AF
Encoding: 120495 120495 215
Width: 968
Flags: MW
HStem: 651 48
VStem: 734 138
LayerCount: 2
Fore
SplineSet
608 429 m 2
 623 473 l 1
 644 473 l 1
 644 229 l 1
 618 229 l 1
 604 285 l 2
 601 296 589 300 579 301 c 0
 535 304 445 303 378 301 c 0
 365 301 350 296 346 284 c 2
 327 229 l 1
 308 229 l 1
 308 348 l 1
 308 473 l 1
 334 473 l 1
 346 422 l 2
 347 418 354 411 378 411 c 0
 445 409 518 408 579 410 c 0
 592 411 604 418 608 429 c 2
428 -14 m 0
 338 -14 244 5 179 64 c 0
 105 131 77 227 77 321 c 0
 77 424 111 526 191 598 c 0
 230 633 279 657 331 673 c 0
 392 692 457 699 521 699 c 0
 615 699 712 682 780 621 c 0
 848 559 872 470 872 383 c 0
 872 276 845 166 760 89 c 0
 673 10 549 -14 428 -14 c 0
493 32 m 0
 558 32 618 56 663 98 c 0
 691 123 708 159 719 193 c 0
 733 238 738 285 738 331 c 0
 738 383 732 435 716 485 c 0
 703 524 684 561 653 590 c 0
 604 634 537 655 468 655 c 0
 413 655 344 639 306 607 c 0
 229 542 215 443 215 348 c 0
 215 255 243 161 316 94 c 0
 362 52 429 32 493 32 c 0
EndSplineSet
EndChar

StartChar: u1D6B2
Encoding: 120498 120498 216
Width: 847
Flags: MW
HStem: -13 21<629 629> 674 20<508 508>
VStem: 18 798<16 39>
LayerCount: 2
Fore
SplineSet
403 672 m 1
 508 694 l 1
 532 596 558 499 588 402 c 0
 611 330 636 258 667 188 c 1
 685 150 705 108 734 80 c 0
 747 67 766 62 785 62 c 0
 795 62 805 63 814 66 c 1
 816 39 l 1
 629 -13 l 1
 601 -2 580 19 570 45 c 1
 559 77 464 374 412 539 c 1
 397 539 l 1
 301 366 222 200 142 20 c 1
 30 -4 l 1
 18 16 l 1
 159 228 287 447 403 672 c 1
EndSplineSet
EndChar

StartChar: u1D6B5
Encoding: 120501 120501 217
Width: 652
Flags: MW
HStem: -3 109 169 20<595 595> 306 107 505 21<26 56 26 26 597 620 597 597> 584 115
VStem: 26 597<186 505>
LayerCount: 2
Fore
SplineSet
623 186 m 1
 602 -14 l 1
 50 -6 l 1
 29 186 l 1
 55 188 l 1
 72 136 l 2
 79 115 104 106 128 106 c 2
 522 106 l 2
 543 106 567 113 574 133 c 2
 595 189 l 1
 623 186 l 1
149 413 m 1
 503 413 l 1
 507 406 l 1
 477 308 l 1
 207 307 l 2
 180 307 152 305 125 302 c 1
 117 308 l 1
 149 413 l 1
598 693 m 1
 620 505 l 1
 597 505 l 1
 575 547 l 2
 569 560 555 569 540 574 c 1
 521 582 500 584 479 584 c 2
 141 585 l 2
 119 585 94 582 84 562 c 2
 56 505 l 1
 26 505 l 1
 46 700 l 1
 598 693 l 1
EndSplineSet
EndChar

StartChar: u1D6B7
Encoding: 120503 120503 218
Width: 844
Flags: MW
HStem: -14 21<598 598> 623 65
VStem: 119 126 589 126
LayerCount: 2
Fore
SplineSet
716 214 m 2
 724 19 l 1
 598 -14 l 1
 582 -3 l 1
 587 191 l 2
 588 231 589 440 589 601 c 0
 589 617 573 623 551 623 c 2
 284 623 l 2
 268 623 251 615 249 599 c 0
 244 562 244 411 244 316 c 0
 244 220 246 124 252 27 c 1
 130 -9 l 1
 115 1 l 1
 118 103 119 206 119 309 c 0
 119 408 116 507 116 605 c 0
 116 619 111 633 96 638 c 2
 29 659 l 1
 29 690 l 1
 100 687 170 686 241 686 c 2
 646 686 l 1
 813 686 l 1
 811 653 l 1
 751 641 l 2
 729 636 716 615 715 595 c 0
 713 554 713 512 713 471 c 0
 713 385 713 288 716 214 c 2
EndSplineSet
EndChar

StartChar: u1D6BA
Encoding: 120506 120506 219
Width: 712
Flags: MW
HStem: 0 20 623 66
VStem: 28 635
LayerCount: 2
Fore
SplineSet
377 378 m 2
 173 125 l 1
 334 125 494 126 653 134 c 1
 659 119 l 1
 626 -1 l 1
 586 2 545 2 504 2 c 0
 346 3 187 1 28 1 c 1
 47 68 l 1
 125 150 214 260 284 350 c 1
 87 626 l 1
 87 639 l 1
 166 690 l 1
 321 690 477 690 632 699 c 1
 642 691 l 1
 604 623 l 1
 538 626 379 626 263 626 c 1
 258 619 l 1
 379 442 l 2
 389 428 392 419 392 411 c 0
 392 403 385 389 377 378 c 2
EndSplineSet
EndChar

